<svg width="216" height="219" viewBox="0 0 216 219" fill="none" xmlns="http://www.w3.org/2000/svg">
<path d="M215.092 116.22C212.082 79.1175 213.64 89.9444 207.859 62.2946C199.57 22.605 169.816 41.2486 137.714 8.34453C136.922 7.55196 136.129 6.68086 135.364 5.83594C131.457 1.399 122.455 0 108.014 0C93.5731 0 84.5436 1.399 80.636 5.83594C79.8973 6.68086 79.0785 7.55196 78.3136 8.34453C46.1846 41.2486 16.432 22.605 8.16889 62.2946C2.38675 89.9444 3.94426 79.0898 0.907774 116.22C0.0904806 126.413 38.8188 134.942 40.2716 126.967L41.4321 120.682C41.8291 118.516 42.805 118.438 43.6237 120.471C55.742 156.939 46.6602 152.53 47.9007 211.523C47.9268 212.474 48.5871 213.636 49.3797 214.164C52.9964 218.047 77.838 218.627 107.988 218.627C139.878 218.204 162.979 218.047 166.596 214.164C167.387 213.636 168.047 212.474 168.073 211.523C169.341 152.53 160.233 156.939 172.35 120.445C173.169 118.412 174.146 118.49 174.542 120.655L175.704 126.941C177.181 134.942 215.911 126.413 215.092 116.22ZM108.014 17.2969C93.9425 17.2969 82.5367 14.0758 82.5367 10.0882C82.5367 6.10061 93.9425 2.87798 108.014 2.87798C122.085 2.87798 133.49 6.10061 133.49 10.0882C133.49 14.0758 122.085 17.2969 108.014 17.2969Z" fill="white"/>
<path fill-rule="evenodd" clip-rule="evenodd" d="M207.733 61.6C202.971 39.8512 191.571 36.0358 176.846 31.1078C165.318 27.2494 151.751 22.7088 137.737 8.34453C136.945 7.55196 136.152 6.68087 135.387 5.83594C131.479 1.399 122.478 0 108.037 0C93.596 0 84.5665 1.399 80.6589 5.83594C79.9201 6.68087 79.1015 7.55196 78.3365 8.34453C64.3129 22.7064 50.7419 27.2479 39.2131 31.1058C24.4842 36.0347 13.0883 39.8484 8.33984 61.6H207.733ZM82.5597 10.0882C82.5597 14.0758 93.9653 17.297 108.037 17.297C122.108 17.297 133.513 14.0758 133.513 10.0882C133.513 6.10062 122.108 2.87797 108.037 2.87797C93.9653 2.87797 82.5597 6.10062 82.5597 10.0882Z" fill="black"/>
<path fill-rule="evenodd" clip-rule="evenodd" d="M1.25046 111.76C1.13283 113.224 1.00714 114.775 0.872868 116.419C0.055387 126.612 38.7837 135.141 40.2366 127.166L41.3973 120.881C41.5304 120.154 41.7291 119.662 41.9649 119.406V111.76H1.25046Z" fill="black"/>
<path fill-rule="evenodd" clip-rule="evenodd" d="M214.816 111.76C214.933 113.224 215.059 114.775 215.193 116.419C216.011 126.612 177.282 135.141 175.83 127.166L174.669 120.881C174.536 120.154 174.337 119.662 174.101 119.406V111.76H214.816Z" fill="black"/>
</svg>
