<?xml version="1.0" standalone="no"?>
<!DOCTYPE svg PUBLIC "-//W3C//DTD SVG 20010904//EN"
 "http://www.w3.org/TR/2001/REC-SVG-20010904/DTD/svg10.dtd">
<svg version="1.0" xmlns="http://www.w3.org/2000/svg"
 width="700.000000pt" height="700.000000pt" viewBox="0 0 700.000000 700.000000"
 preserveAspectRatio="xMidYMid meet">
<metadata>
Created by potrace 1.14, written by Peter Selinger 2001-2017
</metadata>
<g transform="translate(0.000000,700.000000) scale(0.100000,-0.100000)"
fill="#000000" stroke="none">
<path d="M0 3500 l0 -3500 3500 0 3500 0 0 3500 0 3500 -3500 0 -3500 0 0
-3500z m4691 2165 c103 -22 170 -55 235 -117 72 -68 107 -135 108 -208 2 -147
-137 -216 -303 -148 l-32 13 53 35 c44 29 54 41 56 68 7 69 -87 172 -215 236
-100 50 -186 67 -357 73 -87 3 -152 9 -145 13 20 11 171 41 254 51 93 10 255
3 346 -16z m-606 -116 c90 -11 239 -52 250 -69 9 -14 -62 -32 -124 -31 -31 0
-83 10 -115 21 -32 11 -106 29 -164 40 -58 11 -108 22 -110 25 -2 2 13 7 34
10 22 4 44 8 49 10 21 7 93 5 180 -6z m-245 -144 c115 -23 223 -62 361 -131
155 -77 216 -95 327 -98 79 -2 97 -6 199 -50 l112 -48 -6 -31 c-4 -18 -16 -70
-27 -117 -20 -82 -22 -85 -49 -85 -25 -1 -34 -10 -71 -75 -31 -55 -48 -76 -65
-78 -42 -6 -109 27 -147 74 -46 56 -92 84 -137 84 -50 0 -74 -29 -83 -99 -10
-76 -11 -605 -1 -661 l7 -45 183 3 c249 3 433 17 551 42 124 25 139 25 171 -2
19 -17 31 -46 47 -111 l22 -88 -30 -55 c-16 -29 -31 -54 -34 -54 -3 0 -23 25
-44 55 -22 31 -44 52 -50 48 -6 -4 -26 -18 -44 -31 -30 -23 -34 -24 -51 -8
-24 22 -68 20 -306 -9 -110 -14 -203 -25 -207 -25 -14 0 -8 -23 52 -187 33
-91 60 -167 60 -169 0 -2 -8 -4 -17 -4 -10 0 -49 -15 -87 -34 l-68 -33 -27 58
c-14 32 -28 58 -31 58 -3 0 -201 -248 -442 -550 l-436 -551 23 -51 c83 -190
41 -324 -143 -455 l-43 -31 33 -17 c18 -10 58 -22 88 -29 67 -13 74 -31 30
-82 -17 -19 -36 -46 -42 -59 -8 -18 -28 -29 -72 -43 -100 -30 -132 -34 -150
-16 -21 22 -21 71 1 83 26 15 -119 105 -219 137 -43 14 -83 25 -87 25 -5 0
-45 -49 -89 -108 -115 -156 -235 -259 -387 -335 -186 -93 -366 -120 -615 -94
-80 9 -194 19 -255 22 -258 14 -553 36 -585 42 -22 4 72 13 245 22 l280 16
-80 56 c-223 156 -360 348 -421 587 -13 52 -24 99 -24 104 0 6 20 -31 45 -81
84 -166 205 -307 347 -400 94 -62 271 -147 373 -178 81 -24 106 -27 240 -27
142 0 155 2 245 32 204 68 380 208 475 377 34 60 68 145 62 151 -2 2 -17 6
-34 10 -28 5 -31 3 -47 -39 -29 -76 -132 -222 -201 -284 -235 -212 -597 -251
-865 -93 -66 39 -160 115 -160 130 0 4 35 -13 78 -39 142 -85 296 -120 448
-101 195 24 377 121 494 261 49 59 126 186 118 194 -3 3 -111 31 -241 62
l-236 57 -44 -22 c-81 -40 -169 -21 -214 47 -32 48 -29 54 13 26 89 -60 194
-5 194 101 0 31 -7 44 -42 77 -27 26 -38 42 -29 45 17 6 393 571 388 586 -6
20 -169 96 -249 116 -120 30 -209 40 -403 47 -99 3 -189 9 -200 13 -15 5 0 14
63 39 147 56 241 74 392 74 151 -1 261 -23 399 -82 111 -47 107 -49 195 89 42
66 76 125 76 132 0 22 -161 498 -168 498 -4 0 -39 -9 -77 -20 -177 -51 -267
-7 -282 136 -5 43 -3 55 10 60 9 3 99 0 199 -8 101 -8 185 -14 186 -12 2 1
-45 53 -105 116 -161 168 -207 269 -206 453 1 142 32 238 109 331 32 40 141
121 150 112 2 -3 -11 -38 -30 -79 -42 -91 -69 -199 -64 -259 l3 -45 85 -42
c110 -55 210 -78 305 -70 40 4 80 9 89 13 26 10 1 32 -69 64 -77 35 -80 34
245 55 275 17 297 15 467 -30 249 -65 415 -119 428 -139 7 -12 48 -156 89
-321 42 -165 83 -315 91 -332 9 -21 24 -35 41 -39 27 -7 138 0 216 13 38 6 40
7 18 14 -14 4 -46 7 -71 8 -76 2 -84 14 -115 186 -19 111 -28 205 -34 360 -8
211 -18 299 -46 410 -33 128 -114 234 -221 288 -129 66 -360 129 -614 168 -73
11 -135 22 -137 23 -2 2 50 7 115 10 65 4 127 9 138 11 45 9 385 -6 455 -20z
m1273 -1656 c15 -24 -9 -75 -61 -131 -58 -62 -118 -83 -218 -75 -81 6 -117 20
-112 45 3 14 19 18 88 23 97 7 154 31 191 79 62 82 89 96 112 59z m-16 -548
c51 -79 92 -146 90 -147 -2 -2 -37 3 -78 12 -237 51 -511 -56 -665 -259 -60
-79 -121 -208 -139 -295 -21 -98 -19 -253 4 -344 58 -227 224 -417 435 -499
240 -93 504 -39 699 143 l58 54 108 -90 109 -91 -41 -43 c-250 -261 -671 -357
-1027 -234 -257 89 -473 296 -577 552 -57 142 -67 202 -67 400 0 173 2 191 28
275 118 388 424 653 812 704 38 5 89 8 113 7 l44 -1 94 -144z m-3267 -769 c0
-24 -33 -102 -43 -102 -7 0 -121 13 -255 29 -231 28 -298 40 -221 42 27 0 456
32 507 38 6 0 12 -3 12 -7z"/>
<path d="M3176 4574 c38 -26 103 -74 144 -108 83 -67 300 -274 300 -286 0 -4
-17 -19 -39 -33 l-38 -25 -54 55 c-109 111 -267 235 -392 307 -39 23 -23 3
101 -121 134 -134 258 -290 250 -314 -7 -19 -173 -139 -192 -139 -38 0 -240
49 -351 86 -60 20 -161 60 -224 90 -62 30 -116 54 -119 54 -28 0 322 -222 405
-257 27 -11 42 -11 95 2 34 8 63 13 64 12 3 -3 -115 -100 -142 -117 -19 -11
-34 -2 -176 103 -86 63 -165 120 -176 126 -23 12 -52 5 -52 -12 0 -14 139
-419 150 -437 7 -11 16 -12 50 -1 47 14 69 34 117 104 18 26 36 47 41 47 5 0
-13 -80 -39 -177 -25 -98 -45 -180 -43 -182 2 -2 23 9 46 24 50 33 572 403
637 452 62 46 115 120 137 192 10 33 22 61 25 61 11 0 20 -86 13 -116 -17 -73
-61 -127 -178 -219 -26 -22 -44 -41 -39 -42 12 -4 563 104 571 112 3 3 -8 5
-25 5 -41 0 -80 33 -93 78 -12 44 -87 443 -98 522 l-7 55 -115 7 c-132 7 -237
29 -454 93 -85 25 -158 45 -162 45 -4 0 23 -21 62 -46z"/>
<path d="M4115 3708 c-33 -5 -181 -27 -330 -49 -148 -23 -300 -45 -337 -51
l-66 -10 -7 -82 c-4 -44 -18 -130 -31 -190 -59 -260 -95 -443 -114 -586 -29
-222 -34 -204 53 -223 39 -9 75 -13 78 -9 52 60 878 1137 891 1162 18 35 18
35 -4 42 -30 8 -61 7 -133 -4z"/>
<path d="M3161 3462 c-45 -37 -87 -74 -91 -82 -10 -18 -50 -673 -50 -809 0
-50 3 -91 7 -91 4 0 31 10 60 22 62 26 59 13 68 283 7 205 21 324 70 567 19
94 35 173 35 175 0 10 -24 -5 -99 -65z"/>
<path d="M2777 3473 c-11 -3 -16 -10 -13 -20 3 -8 6 -20 6 -26 0 -13 39 33 40
46 0 7 -4 8 -33 0z"/>
<path d="M2656 3355 c-23 -34 -12 -45 16 -17 16 15 19 25 12 32 -8 8 -16 3
-28 -15z"/>
<path d="M2892 3247 c-18 -18 -32 -42 -32 -52 0 -21 60 -209 65 -203 7 9 15
288 8 288 -5 0 -23 -15 -41 -33z"/>
<path d="M2768 3064 c-6 -49 11 -104 49 -161 19 -29 37 -52 39 -50 5 5 -66
220 -77 231 -4 5 -9 -4 -11 -20z"/>
<path d="M2254 2728 l-181 -272 28 -39 c18 -24 31 -59 35 -88 4 -27 9 -49 13
-49 3 0 110 -18 236 -39 127 -22 233 -36 236 -33 12 13 28 156 18 162 -5 4
-98 13 -207 20 -193 14 -195 15 -112 21 47 4 138 7 203 8 l117 1 0 43 c0 64
-34 185 -75 268 l-36 74 35 -40 c49 -56 95 -146 126 -245 l27 -85 36 -3 c21
-2 37 0 37 5 0 4 -9 42 -20 83 -10 41 -18 76 -16 78 2 1 44 -43 94 -99 l90
-102 -24 -52 c-37 -79 -48 -157 -34 -229 15 -78 29 -104 79 -149 53 -48 84
-51 45 -4 -72 86 -97 223 -55 306 34 66 44 68 90 14 23 -26 44 -59 47 -73 3
-14 10 -36 16 -50 10 -23 12 -23 15 -5 13 68 54 103 108 93 14 -3 25 -2 25 3
0 18 -47 39 -87 39 -38 0 -48 5 -81 41 -20 23 -38 45 -40 48 -1 4 21 18 49 32
97 45 209 31 309 -38 14 -9 5 4 -19 30 -84 88 -217 116 -325 68 -27 -11 -57
-21 -66 -21 -10 0 -60 46 -112 101 -82 90 -133 129 -168 129 -7 0 -9 -8 -5
-20 3 -11 4 -20 1 -20 -6 0 -110 109 -114 121 -2 5 6 22 17 38 l21 29 -94 86
c-52 47 -95 86 -97 86 -2 -1 -86 -123 -185 -272z"/>
<path d="M2720 2277 l0 -95 34 -4 33 -4 7 90 c3 49 5 90 4 92 -2 1 -20 5 -40
9 l-38 7 0 -95z"/>
</g>
</svg>
