<svg width="97" height="32" viewBox="0 0 97 32" fill="none" xmlns="http://www.w3.org/2000/svg">
<path d="M31.4858 31.2744H29.5049L45.2368 10.314H47.2178L31.4858 31.2744Z" fill="#275D7C"/>
<path d="M80.7434 31.2744H78.7612L94.4932 10.314H96.4753L80.7434 31.2744Z" fill="#275D7C"/>
<path d="M78.9451 17.6681H81.3029V25.7931L84.4056 21.6594V17.6681H87.4002L89.7297 14.5654H78.9451C78.7475 14.5654 78.5622 14.6428 78.4235 14.7814C78.2848 14.9201 78.2075 15.1055 78.2075 15.3031V16.9305C78.2075 17.1281 78.2836 17.3134 78.4235 17.4521C78.5634 17.5908 78.7475 17.6681 78.9451 17.6681Z" fill="#275D7C"/>
<path d="M51.8592 14.5974H50.2318C50.0366 14.5974 49.8525 14.6723 49.7102 14.8134C49.5715 14.9533 49.4941 15.1374 49.4941 15.335V26.0116C49.4941 26.2117 49.5715 26.3982 49.7102 26.5332C49.8488 26.6719 50.0354 26.7492 50.2318 26.7492H51.8592C52.2961 26.7492 52.6128 26.4387 52.6128 26.0104V15.3338C52.614 14.9067 52.2961 14.5974 51.8592 14.5974Z" fill="#275D7C"/>
<path d="M71.7604 14.5974H70.2594C69.8826 14.5974 69.5549 14.7545 69.3033 15.065L64.6002 21.1784V15.3363C64.6002 14.9079 64.2897 14.5986 63.8625 14.5986H62.3627C61.986 14.5986 61.6583 14.7557 61.4067 15.0663L53.2915 25.6446C53.1025 25.8852 53.089 26.1969 53.2498 26.4326C53.3823 26.6351 53.5959 26.7517 53.8352 26.7517H55.8407C56.2175 26.7517 56.5452 26.5946 56.7968 26.2841L61.4999 20.1707V26.0128C61.4999 26.4412 61.8104 26.7517 62.2376 26.7517H63.7374C64.1141 26.7517 64.4418 26.5946 64.6934 26.2841L69.3806 20.1756V26.0141C69.3806 26.4424 69.6973 26.7529 70.1342 26.7529H71.7617C72.1888 26.7529 72.4993 26.4424 72.4993 26.0141V15.3375C72.4981 14.9067 72.1875 14.5974 71.7604 14.5974Z" fill="#275D7C"/>
<path d="M76.4354 14.5974H74.8079C74.6128 14.5974 74.4287 14.6723 74.2863 14.8134C74.1476 14.9533 74.0703 15.1374 74.0703 15.335V26.0116C74.0703 26.2117 74.1476 26.3982 74.2863 26.5332C74.4262 26.6719 74.6116 26.7492 74.8079 26.7492H76.4354C76.8723 26.7492 77.189 26.4387 77.189 26.0104V15.3338C77.189 14.9067 76.8723 14.5974 76.4354 14.5974Z" fill="#275D7C"/>
<path d="M24.9536 14.7937C24.9266 14.7925 24.8983 14.7913 24.8713 14.7913C24.8627 14.7913 24.8529 14.7913 24.8431 14.7913C24.7511 14.7913 24.659 14.7962 24.5682 14.8011L24.389 14.8097C24.3338 14.8109 24.2785 14.8134 24.2245 14.8183C24.13 14.8269 24.038 14.8404 23.9459 14.8551L23.7778 14.8784C23.7311 14.8845 23.6845 14.8907 23.6391 14.8993C23.525 14.9214 23.4145 14.9508 23.304 14.979L23.2635 14.9901C23.2341 14.9975 23.2046 15.0048 23.1752 15.011C23.1408 15.0183 23.1077 15.0257 23.0745 15.0355C22.888 15.0907 22.7051 15.157 22.5308 15.2282C21.8091 15.5289 21.1746 15.9535 20.6456 16.4874C20.1142 17.0238 19.6871 17.6632 19.3753 18.3849C19.0636 19.1066 18.9053 19.9006 18.9053 20.7426C18.9053 21.587 19.055 22.3884 19.352 23.1224C19.6466 23.8551 20.0626 24.5007 20.5879 25.0432C21.112 25.5844 21.7416 26.0164 22.4584 26.3282C23.1825 26.6436 23.9643 26.7958 24.8038 26.797C24.9045 26.797 25.0014 26.7909 25.0972 26.786L25.3009 26.7762C25.3598 26.7737 25.4187 26.7725 25.4776 26.7663C25.5807 26.7565 25.6801 26.7393 25.7808 26.7222L25.8581 26.7099C25.8925 26.705 25.9268 26.7001 25.9624 26.6952C26.0128 26.6878 26.0631 26.6817 26.1122 26.6706C26.2324 26.6461 26.3503 26.6117 26.4669 26.5773L26.5184 26.5626C26.5491 26.554 26.581 26.5454 26.6141 26.5368C26.6497 26.5282 26.6841 26.5196 26.7185 26.5086C26.9185 26.4423 27.1137 26.365 27.2978 26.2791C28.0575 25.9268 28.7239 25.4359 29.2787 24.8198L27.9421 23.6968C27.5555 24.1484 27.1014 24.5031 26.5859 24.7609C26.0545 25.026 25.4813 25.1659 24.8799 25.1782C24.2994 25.1782 23.7508 25.0653 23.2451 24.8419C22.7431 24.621 22.2927 24.308 21.9073 23.9116C21.5244 23.5176 21.2163 23.0512 20.9893 22.5259C20.761 21.9994 20.6456 21.4274 20.6456 20.8285C20.6456 20.232 20.7549 19.6613 20.9709 19.1348C21.1857 18.6107 21.4827 18.1407 21.8533 17.7405C22.224 17.3392 22.6683 17.0164 23.1727 16.782C23.6784 16.5476 24.2209 16.4224 24.7867 16.4101L24.864 16.4089C24.9155 16.4089 24.9671 16.4126 25.0186 16.4162L25.145 16.4236C25.1892 16.4248 25.2346 16.4273 25.2776 16.4322C25.3525 16.4396 25.4261 16.4531 25.4985 16.4666L25.5967 16.4825C25.6372 16.4887 25.6777 16.4948 25.7182 16.5046C25.8053 16.5243 25.89 16.5513 25.9759 16.577L26.0471 16.5979C26.079 16.6065 26.1122 16.6163 26.1429 16.6273L24.9536 14.7937Z" fill="#275D7C"/>
<path d="M48.8991 24.0295C48.7788 23.789 48.5456 23.6466 48.2743 23.6466H44.4009V16.074L41.2822 20.2297V26.0117C41.2822 26.2117 41.3608 26.3983 41.4958 26.5321C41.6357 26.6732 41.821 26.7505 42.0199 26.7505H46.7107C47.0777 26.7505 47.4005 26.5934 47.6509 26.2854L48.8414 24.7451C48.996 24.5352 49.0181 24.2689 48.8991 24.0295Z" fill="#275D7C"/>
<path d="M37.2429 14.79C37.0723 14.79 36.9398 14.8526 36.8269 14.9876L32.9927 19.8516L29.1548 14.9827C29.0456 14.8526 28.9142 14.79 28.7424 14.79H26.6216L32.0746 21.7232V25.8078L33.9095 23.4268V21.7232L39.3625 14.79H37.2429Z" fill="#275D7C"/>
<path d="M37.1643 31.0558C37.4442 31.0558 37.6884 30.9871 37.8983 30.8509C38.1081 30.7134 38.2579 30.5281 38.3475 30.2924L38.5659 30.3464C38.4653 30.6287 38.2886 30.8533 38.0394 31.019C37.789 31.1847 37.4982 31.2669 37.1643 31.2669C36.7323 31.2669 36.3678 31.1172 36.0708 30.8177C35.7738 30.5183 35.624 30.1537 35.624 29.7217C35.624 29.2897 35.7725 28.9252 36.0708 28.6257C36.3678 28.3262 36.7335 28.1765 37.1643 28.1765C37.4969 28.1765 37.789 28.2587 38.0394 28.422C38.2898 28.5852 38.4653 28.8061 38.5659 29.0823L38.3512 29.1498C38.2652 28.9154 38.1155 28.7288 37.9044 28.5914C37.6933 28.4551 37.4454 28.3864 37.1631 28.3864C36.7937 28.3864 36.4819 28.5153 36.2279 28.773C35.9738 29.0307 35.8462 29.3462 35.8462 29.7217C35.8462 30.0961 35.9738 30.4127 36.2279 30.6705C36.4832 30.927 36.7949 31.0558 37.1643 31.0558Z" fill="#275D7C"/>
<path d="M41.3066 31.0116V31.2166H39.2754V28.2256H39.5037V31.0116H41.3066Z" fill="#275D7C"/>
<path d="M42.1072 28.2256H41.8789V31.2166H42.1072V28.2256Z" fill="#275D7C"/>
<path d="M46.1373 28.2256V31.2166H45.9188V28.7386L44.6326 31.2166H44.4718L43.1818 28.7386V31.2166H42.9634V28.2256H43.1647L44.5528 30.8864L45.9409 28.2256H46.1373Z" fill="#275D7C"/>
<path d="M48.6783 29.6898V29.6984C48.8722 29.7193 49.0268 29.7941 49.1447 29.9218C49.2625 30.0494 49.3214 30.2139 49.3214 30.4127C49.3214 30.6508 49.2392 30.8447 49.0759 30.9932C48.9127 31.1417 48.6906 31.2166 48.4107 31.2166H46.9956V28.2256H48.326C48.6059 28.2256 48.8243 28.2955 48.9827 28.4355C49.141 28.5754 49.2195 28.7607 49.2195 28.9939C49.2195 29.178 49.168 29.3351 49.0637 29.4627C48.9581 29.5904 48.8305 29.6652 48.6783 29.6898ZM47.2239 28.422V29.6137H48.3751C48.5629 29.6137 48.7139 29.5572 48.8305 29.4443C48.9471 29.3314 49.0047 29.1841 49.0047 29.0025C49.0047 28.827 48.9434 28.6858 48.8194 28.5803C48.6955 28.4747 48.5261 28.422 48.3076 28.422H47.2239ZM47.2239 31.0202H48.3935C48.6046 31.0202 48.774 30.9625 48.9029 30.8484C49.0305 30.7343 49.0943 30.5845 49.0943 30.3992C49.0943 30.2151 49.0293 30.069 48.9004 29.961C48.7703 29.8543 48.601 29.8003 48.3899 29.8003H47.2251V31.0202H47.2239Z" fill="#275D7C"/>
<path d="M53.402 28.4306H52.2373V31.2166H52.0053V28.4306H50.8394V28.2256H53.402V28.4306Z" fill="#275D7C"/>
<path d="M54.1137 28.6245C54.4095 28.325 54.7728 28.1753 55.2011 28.1753C55.6295 28.1753 55.9915 28.325 56.2861 28.6245C56.5807 28.924 56.7279 29.2885 56.7279 29.7205C56.7279 30.155 56.5807 30.5207 56.2861 30.819C55.9915 31.116 55.6295 31.2657 55.2011 31.2657C54.7691 31.2657 54.4058 31.1172 54.1113 30.819C53.8167 30.5207 53.6694 30.155 53.6694 29.7205C53.6694 29.2897 53.8179 28.924 54.1137 28.6245ZM55.2011 31.0558C55.5669 31.0558 55.8762 30.9282 56.1278 30.6717C56.3794 30.4152 56.5046 30.0985 56.5046 29.7205C56.5046 29.3449 56.3794 29.0295 56.1278 28.7718C55.8762 28.514 55.5669 28.3852 55.2011 28.3852C54.8317 28.3852 54.5212 28.514 54.2696 28.7718C54.018 29.0295 53.8928 29.3449 53.8928 29.7205C53.8928 30.0985 54.018 30.4152 54.2696 30.6717C54.5224 30.9282 54.8317 31.0558 55.2011 31.0558Z" fill="#275D7C"/>
<path d="M60.841 28.4306H59.675V31.2166H59.4431V28.4306H58.2783V28.2256H60.841V28.4306Z" fill="#275D7C"/>
<path d="M63.8271 28.2256V31.2166H63.6037V29.8101H61.6216V31.2166H61.3945V28.2256H61.6216V29.6051H63.6037V28.2256H63.8271Z" fill="#275D7C"/>
<path d="M64.9133 28.4306V29.6137H66.6942V29.815H64.9133V31.0116H66.828V31.2166H64.6851V28.2256H66.828V28.4306H64.9133Z" fill="#275D7C"/>
<path d="M70.9396 28.4306H69.7749V31.2166H69.5429V28.4306H68.377V28.2256H70.9396V28.4306Z" fill="#275D7C"/>
<path d="M71.6523 28.6245C71.9481 28.325 72.3114 28.1753 72.7397 28.1753C73.1681 28.1753 73.5301 28.325 73.8247 28.6245C74.1192 28.924 74.2665 29.2885 74.2665 29.7205C74.2665 30.155 74.1192 30.5207 73.8247 30.819C73.5301 31.116 73.1681 31.2657 72.7397 31.2657C72.3077 31.2657 71.9444 31.1172 71.6498 30.819C71.3553 30.5207 71.208 30.155 71.208 29.7205C71.208 29.2897 71.3553 28.924 71.6523 28.6245ZM72.7385 31.0558C73.1042 31.0558 73.4135 30.9282 73.6651 30.6717C73.9167 30.4152 74.0419 30.0985 74.0419 29.7205C74.0419 29.3449 73.9167 29.0295 73.6651 28.7718C73.4135 28.514 73.1042 28.3852 72.7385 28.3852C72.3691 28.3852 72.0585 28.514 71.8069 28.7718C71.5553 29.0295 71.4302 29.3449 71.4302 29.7205C71.4302 30.0985 71.5553 30.4152 71.8069 30.6717C72.0598 30.9282 72.3703 31.0558 72.7385 31.0558Z" fill="#275D7C"/>
<path d="M74.9763 28.2256H76.2393C76.5424 28.2256 76.7866 28.3078 76.972 28.4735C77.1561 28.6392 77.2493 28.8515 77.2493 29.1142C77.2493 29.3793 77.1573 29.5941 76.972 29.7598C76.7879 29.9254 76.5436 30.0077 76.2393 30.0077H75.2034V31.2178H74.9751V28.2256H74.9763ZM75.2046 29.8015H76.2405C76.4761 29.8015 76.6651 29.7377 76.8075 29.61C76.9499 29.4824 77.0223 29.3167 77.0223 29.1142C77.0223 28.9117 76.9511 28.7472 76.8075 28.6208C76.6651 28.4944 76.4749 28.4306 76.2405 28.4306H75.2046V29.8015Z" fill="#275D7C"/>
<path d="M78.2075 13.1773C86.5411 11.6677 87.1523 9.58737 92.7784 10.314L90.5336 13.1773H78.2075Z" fill="#275D7C"/>
<path d="M15.5413 24.6676C15.5769 24.6161 15.6003 24.5375 15.6481 24.5167C15.8543 24.4308 15.8703 24.2737 15.8469 24.0883C15.464 24.0147 15.0762 23.9914 14.762 23.7275C16.2225 22.8205 16.4778 21.9872 15.75 20.5033C17.5038 18.2978 19.2614 16.0861 21.0373 13.8536C21.1625 14.1089 21.284 14.3544 21.4019 14.5949C21.6252 14.4354 21.9566 14.2611 22.4205 14.1408C22.164 13.4326 21.9075 12.7282 21.6522 12.0237C22.5236 11.9181 23.3656 11.8162 24.2088 11.7119C24.4837 11.6776 24.7611 11.6174 24.9488 11.9095C25.1329 11.7684 25.2937 11.6444 25.4606 11.5155C25.6374 11.7622 25.7994 11.9868 25.9737 12.2311C26.0927 12.0163 26.1995 11.8297 26.2989 11.6407C26.3222 11.5966 26.3406 11.5352 26.3308 11.4885C26.2707 11.1977 26.2302 10.897 26.1295 10.6196C25.9847 10.2207 25.7343 10.1495 25.3256 10.2416C24.7905 10.3619 24.2468 10.4748 23.7019 10.5091C22.8157 10.5644 21.9259 10.5521 21.0373 10.5717C20.8569 10.5754 20.6765 10.5963 20.4801 10.611C20.4666 10.4674 20.4531 10.3471 20.4445 10.2269C20.4114 9.79238 20.3746 9.35667 20.3488 8.92097C20.3378 8.73932 20.3427 8.55522 20.3513 8.37358C20.3856 7.68627 20.4396 7.00019 20.458 6.31289C20.4715 5.81582 20.8152 5.58385 21.2632 5.80723C21.3442 5.84773 21.4252 5.89805 21.4915 5.95941C21.6031 6.06251 21.7259 6.16561 21.8056 6.29202C21.9701 6.55099 22.218 6.64058 22.4954 6.69827C22.6918 6.74 22.8342 6.69581 22.9262 6.50067C23.0453 6.24661 23.1839 6.00237 23.3128 5.75568C23.6381 5.86614 23.6491 5.85755 23.7178 5.53844C23.8001 5.15919 23.8884 4.7824 23.9805 4.38106C23.7056 4.26447 23.4024 4.14051 23.1029 4.00918C22.7531 3.85454 22.4083 3.68762 22.0069 3.79685C21.9443 3.81404 21.8695 3.7944 21.8007 3.78949C21.2227 3.7404 20.7084 3.50598 20.2113 3.22614C19.5621 2.85917 18.8576 2.60389 18.1408 2.44556C17.4756 2.29828 16.7748 2.2676 16.09 2.26637C15.2591 2.26514 14.4269 2.34983 13.596 2.3977C13.9532 2.48115 14.3103 2.52043 14.665 2.57443C15.8028 2.74626 16.9196 2.99295 17.9874 3.44706C18.838 3.80913 19.3424 4.42893 19.5633 5.31629C19.8125 6.31534 19.8481 7.32912 19.8272 8.35026C19.8235 8.50981 19.8284 8.67305 19.8542 8.83137C19.9597 9.4659 20.0886 10.0968 20.1807 10.7325C20.2138 10.9608 20.3144 11.0185 20.5182 11.0295C20.8164 11.0455 21.1134 11.086 21.4117 11.1167C20.9747 11.2075 20.5415 11.2627 20.107 11.302C19.6897 11.3388 19.5081 11.205 19.4062 10.8037C19.0982 9.59477 18.795 8.38462 18.4796 7.17816C18.4575 7.0947 18.3679 6.9916 18.2881 6.96705C17.5493 6.74 16.8104 6.51294 16.063 6.3178C15.3707 6.13738 14.681 5.91523 13.9434 6.03305C13.7249 6.06742 13.5003 6.05883 13.2781 6.07233C12.5724 6.11774 11.8655 6.16438 11.1291 6.21347C11.4175 6.44667 11.8508 6.36689 12.0606 6.78418C11.7575 6.82591 11.4961 6.89096 11.2334 6.89341C10.4577 6.89832 9.77042 6.59886 9.11625 6.21715C9.0598 6.18402 9.0242 6.06619 9.02911 5.9901C9.05857 5.42552 9.20462 4.88795 9.43904 4.37493C9.51391 4.21169 9.59737 4.05091 9.70415 3.83245C9.55932 3.911 9.46604 3.95641 9.3789 4.01041C8.3099 4.66703 7.9282 5.79618 8.0902 7.13152C8.20312 8.06061 8.71737 8.77369 9.40345 9.38122C9.59982 9.55427 9.75938 9.76783 9.97293 10.0035C9.86861 9.99734 9.83179 9.99488 9.79374 9.99243C9.12239 9.94088 8.44981 9.89179 7.77846 9.8341C7.60295 9.81938 7.54895 9.88565 7.55018 10.0538C7.55263 10.9448 8.04847 11.345 8.90883 11.14C9.08803 11.097 9.26353 11.0443 9.44027 10.9976C9.54091 10.9706 9.64401 10.9473 9.75938 10.9203C10.092 11.9083 10.4197 12.8791 10.7425 13.8524C10.7584 13.9015 10.7474 13.9751 10.7204 14.0205C10.454 14.4501 10.1877 14.8797 9.91034 15.3019C9.80479 15.4614 9.67592 15.5191 9.4685 15.416C7.73182 14.5581 5.96815 14.5164 4.1836 15.2675C4.06087 15.3191 3.94182 15.3816 3.82154 15.4393C4.10628 15.4909 4.37752 15.486 4.64876 15.4921C5.72268 15.5142 6.79414 15.5559 7.83246 15.8677C8.29517 16.0064 8.74069 16.1868 9.14203 16.5145C9.0868 16.6041 9.04507 16.6765 8.99843 16.7464C8.32953 17.7627 7.66309 18.7814 6.9856 19.7927C6.90092 19.9191 6.761 20.0099 6.65545 20.1081C6.9721 20.2161 7.22125 20.4493 7.1918 20.874C7.1697 21.1783 6.99542 21.3894 6.70946 21.4852C6.3253 21.614 6.02215 21.4741 5.78773 21.1427C5.80491 21.7024 6.58795 22.2473 7.29244 21.7834C7.41394 21.7036 7.51459 21.6828 7.65082 21.7159C8.46822 21.916 9.28808 22.1099 10.1067 22.3075C10.1988 22.3296 10.2884 22.359 10.3988 22.3897C9.83915 23.5864 8.99229 24.4345 7.77969 24.8751C6.20379 25.447 4.74695 25.1819 3.38461 24.1288C4.11733 25.1328 5.57049 25.771 6.98192 25.652C8.97879 25.4838 10.2724 24.3571 11.0198 22.526C11.1536 22.5615 11.2825 22.5971 11.4114 22.6315C10.7621 24.8358 8.2878 26.3589 5.97796 26.0018C4.95191 25.8434 4.02773 25.4114 3.15878 24.8837C1.99773 24.1804 1.20119 23.1408 0.675888 21.8914C0.655023 21.8436 0.630476 21.7969 0.608384 21.749C0.911536 23.7913 1.98422 25.3071 3.81786 26.3638C2.53652 26.4338 1.32515 26.5001 0.11377 26.5663C1.19137 26.6694 2.26774 26.7357 3.34411 26.8057C4.10015 26.8548 4.86355 26.8646 5.61222 26.9689C7.71955 27.2622 9.5495 26.7197 11.053 25.2064C11.4961 24.7609 11.8397 24.2172 12.219 23.7312C12.5319 23.8318 12.9099 23.9104 13.2475 24.0724C13.5911 24.2381 13.8943 24.4848 14.2661 24.7302C14.1275 24.7388 14.0624 24.7425 13.9802 24.7462C13.9875 24.88 13.9679 25.0101 14.0072 25.1193C14.0366 25.2015 14.1532 25.323 14.2097 25.3132C14.5668 25.2469 14.9289 25.1733 15.2676 25.0469C15.3867 24.9941 15.4517 24.7965 15.5413 24.6676ZM20.0935 12.5649C20.2383 12.5465 20.3918 12.6005 20.5415 12.6214C20.485 12.7552 20.4531 12.9073 20.3672 13.019C18.6134 15.2896 16.8534 17.5565 15.0934 19.8234C15.07 19.8528 15.043 19.8786 15.0332 19.8896C14.7338 19.8197 14.4527 19.7546 14.136 19.681C14.1692 19.4147 14.2121 19.1238 14.2428 18.8317C14.3975 17.3122 14.7828 15.8382 15.1056 14.3507C15.1768 14.0205 15.156 13.6695 15.1793 13.294C16.085 13.1528 16.9982 13.008 17.9125 12.8705C18.6379 12.7625 19.3645 12.657 20.0935 12.5649ZM13.9274 16.7023C13.8108 17.7025 13.8194 18.7163 13.7715 19.735C13.5334 19.8381 13.2708 19.951 13.0388 20.0516C13.0388 19.6159 13.0192 19.1606 13.0425 18.7089C13.1088 17.4252 13.1947 16.1426 13.2646 14.86C13.2757 14.6452 13.3371 14.4931 13.5236 14.3666C13.8378 14.1543 14.1324 13.9101 14.4834 13.6437C14.2858 14.7042 14.0452 15.6958 13.9274 16.7023ZM10.3399 10.8393C10.54 10.7129 10.675 10.7681 10.8431 10.897C11.4789 11.3867 12.1318 11.8518 12.7222 12.2851C13.0867 11.9856 13.3923 11.7352 13.7114 11.4738C13.5359 11.5082 13.3518 11.518 13.1873 11.5818C12.9897 11.6579 12.8056 11.6493 12.6362 11.5524C12.0398 11.2112 11.4482 10.8626 10.8627 10.503C10.6553 10.3754 10.4749 10.206 10.227 10.0121C10.3215 10.0366 10.3534 10.0391 10.3792 10.0526C11.636 10.7607 13.0008 11.1486 14.4048 11.4174C14.465 11.4284 14.5509 11.4247 14.5951 11.3904C14.9412 11.1265 15.2811 10.8528 15.642 10.5681C14.9854 9.43031 14.0636 8.57118 13.1124 7.73291C14.276 8.34658 15.2701 9.18116 16.1832 10.1311C16.344 10.0182 16.4938 9.91388 16.6619 9.79606C15.6948 8.77492 14.6883 7.81391 13.4721 7.0947C14.9485 7.48376 16.3772 8.08638 17.985 7.97838C18.0304 8.28276 18.0709 8.60554 18.1286 8.92588C18.2734 9.72364 18.4231 10.5202 18.5802 11.3155C18.6588 11.7132 18.8404 12.0138 19.3424 11.9427C19.3375 11.966 19.3326 11.9893 19.3289 12.0126C18.1617 12.2421 16.9933 12.4704 15.8261 12.6999C15.8199 12.684 15.8126 12.6692 15.8064 12.6533C16.009 12.495 16.2176 12.3428 16.4127 12.1746C16.5981 12.0151 16.7883 11.8555 16.9417 11.6677C17.2584 11.2799 17.2927 10.8381 17.1197 10.3042C17.0804 10.433 17.0559 10.5042 17.0362 10.5779C16.8742 11.1829 16.5662 11.6579 16.0225 12.02C14.9841 12.711 13.9863 13.4621 12.9701 14.1862C12.6792 14.3936 12.3834 14.5912 12.0889 14.7938C12.0643 14.7827 12.0398 14.7717 12.0152 14.7594C12.2104 14.0254 12.4043 13.2903 12.5921 12.5846C12.3601 12.7245 12.1907 12.9798 12.0496 13.2584C11.9686 13.4167 11.485 13.6167 11.3193 13.5566C11.2886 13.5456 11.2567 13.5087 11.2457 13.4768C10.9425 12.5981 10.6406 11.7168 10.3399 10.8393ZM11.5672 16.2813C11.7697 16.8814 11.9551 17.4313 12.1416 17.9824C11.8692 17.462 11.2764 17.0533 11.5672 16.2813ZM11.4494 14.0586C11.5586 14.0377 11.6482 14.0205 11.7943 13.9935C11.7084 14.1408 11.6507 14.239 11.5623 14.3912C11.5132 14.2439 11.485 14.1629 11.4494 14.0586ZM12.1416 16.0788C11.9833 15.6173 11.9821 15.6173 12.3625 15.2982C12.4374 15.2356 12.5135 15.1755 12.554 15.1435C12.5221 15.7609 12.4902 16.3942 12.4595 16.998C12.3625 16.7207 12.2521 16.3991 12.1416 16.0788ZM10.9744 14.5409C11.01 14.6403 11.0321 14.7005 11.0591 14.7766C10.9573 14.8441 10.8591 14.9104 10.7609 14.9766C10.7474 14.9644 10.7351 14.9521 10.7216 14.9386C10.8002 14.8171 10.8775 14.6931 10.9744 14.5409ZM11.6311 21.8632C11.4519 21.8325 11.3267 21.8104 11.2236 21.7932V20.685C11.3905 20.6997 11.5243 20.712 11.6961 20.7279C11.674 21.1059 11.6544 21.468 11.6311 21.8632ZM13.5948 22.116C13.5285 21.9786 13.4438 21.8877 13.4549 21.8129C13.4978 21.5355 13.3027 21.398 13.1579 21.2287C13.0646 21.1182 12.9664 21.0114 12.8707 20.9034C12.2214 21.5073 12.3527 22.6389 13.1444 23.3654C12.1343 23.1642 11.8053 21.6656 12.5405 20.5266C12.1637 20.1007 11.7832 19.6687 11.3758 19.2085C11.4727 19.5963 11.5586 19.9412 11.6482 20.3033C11.5488 20.3118 11.4875 20.3118 11.4298 20.3241C11.2395 20.3634 11.1708 20.2898 11.1315 20.0958C10.9671 19.2907 10.5989 18.5862 10.0171 17.9983C10.4663 18.7139 10.7314 19.4809 10.7695 20.3462C9.9447 20.3781 9.13957 20.4088 8.33322 20.4395C8.33322 20.4518 8.33444 20.4653 8.33444 20.4775C9.14203 20.5364 9.94961 20.5941 10.794 20.6555C10.7449 21.0102 10.6983 21.3391 10.6492 21.6963C9.65505 21.5306 8.69282 21.371 7.74287 21.2139C7.71219 21.0163 7.71219 20.82 7.64591 20.6494C7.58209 20.4837 7.45076 20.345 7.32312 20.1572C8.03375 19.0956 8.76401 18.0032 9.53109 16.8557C9.91402 17.2165 10.2871 17.5675 10.6651 17.9247C10.5657 18.0756 10.4909 18.1886 10.4086 18.315C10.6541 18.5776 10.8959 18.8378 11.1389 19.098C11.1598 19.0808 11.1806 19.0624 11.2027 19.0452C11.1561 18.9741 11.1094 18.9029 11.0518 18.8145C11.3525 18.8403 11.5979 18.9065 11.7943 19.1545C12.0606 19.4895 12.3736 19.7878 12.6534 20.1118C12.7725 20.2492 12.8633 20.2554 13.0204 20.1658C13.9053 19.6614 14.9952 19.9547 15.4873 20.8286C15.1682 20.5205 14.8037 20.3057 14.3557 20.2664C13.9114 20.2284 13.5064 20.3303 13.1296 20.6174C13.299 20.8065 13.4549 20.993 13.6267 21.1636C13.6635 21.1992 13.7605 21.1943 13.8243 21.1796C14.0992 21.117 14.2956 21.198 14.4355 21.4447C13.8869 21.3195 13.6304 21.5036 13.5948 22.116Z" fill="#275D7C"/>
<path d="M20.4716 1.09671C21.321 1.14212 22.1396 1.31395 22.8723 1.77788C23.2331 2.00616 23.5387 2.29213 23.7363 2.67751C23.8824 2.96348 23.8358 3.16722 23.5694 3.34764C23.4283 3.44337 23.2675 3.5121 23.103 3.60047C23.4823 3.78088 23.8603 3.88644 24.269 3.85084C24.7857 3.80543 25.1404 3.43478 25.1637 2.91562C25.1821 2.47991 25.0177 2.10803 24.7477 1.77911C24.3427 1.28572 23.8051 1.00343 23.1951 0.862288C21.8634 0.554228 20.5551 0.748146 19.2578 1.09303C19.6628 1.09303 20.0679 1.07462 20.4716 1.09671Z" fill="#275D7C"/>
<path d="M25.2384 12.3514C25.1378 12.4521 25.0813 12.5932 24.993 12.7074C24.653 13.1443 24.1694 13.2253 23.6589 13.229C23.5668 13.229 23.4748 13.2228 23.3839 13.2314C23.3361 13.2363 23.2588 13.2621 23.2526 13.2903C23.2428 13.3394 23.2612 13.4168 23.2968 13.4487C23.3631 13.5076 23.4478 13.5702 23.5312 13.5812C23.8012 13.6156 24.0798 13.6708 24.345 13.6389C24.9746 13.5628 25.3955 13.1946 25.641 12.6104C25.7159 12.4324 25.6005 12.3269 25.5072 12.2336C25.4815 12.2066 25.306 12.2827 25.2384 12.3514Z" fill="#275D7C"/>
<path d="M5.87972 20.2725C4.77144 20.3535 3.6472 20.4345 2.52296 20.5167C2.52174 20.5327 2.52174 20.5486 2.52051 20.5646C3.58215 20.6873 4.64379 20.8113 5.66248 20.9291C5.74226 20.6885 5.8073 20.4909 5.87972 20.2725Z" fill="#275D7C"/>
<path d="M20.9673 2.00367C20.9747 2.00122 20.9796 1.99508 21.0017 1.98158C20.199 1.51151 18.3617 1.34091 17.7935 1.64284C18.3531 1.76066 18.9889 1.80975 19.551 2.03804C20.0677 2.24791 20.501 2.189 20.9673 2.00367Z" fill="#275D7C"/>
</svg>
