<svg width="104" height="40" viewBox="0 0 104 40" fill="none" xmlns="http://www.w3.org/2000/svg">
<path d="M34.4856 34.2748H32.5046L48.2366 13.3145H50.2175L34.4856 34.2748Z" fill="white"/>
<path d="M83.7434 34.2748H81.7612L97.4932 13.3145H99.4753L83.7434 34.2748Z" fill="white"/>
<path d="M81.9453 20.6686H84.303V28.7936L87.4057 24.6599V20.6686H90.4004L92.7299 17.5659H81.9453C81.7477 17.5659 81.5624 17.6432 81.4237 17.7819C81.285 17.9206 81.2077 18.1059 81.2077 18.3035V19.931C81.2077 20.1286 81.2838 20.3139 81.4237 20.4526C81.5636 20.5913 81.7477 20.6686 81.9453 20.6686Z" fill="white"/>
<path d="M54.8593 17.5977H53.2319C53.0367 17.5977 52.8526 17.6725 52.7103 17.8137C52.5716 17.9536 52.4943 18.1377 52.4943 18.3353V29.0119C52.4943 29.2119 52.5716 29.3985 52.7103 29.5335C52.849 29.6722 53.0355 29.7495 53.2319 29.7495H54.8593C55.2963 29.7495 55.6129 29.439 55.6129 29.0106V18.3341C55.6141 17.9069 55.2963 17.5977 54.8593 17.5977Z" fill="white"/>
<path d="M74.7606 17.5977H73.2595C72.8827 17.5977 72.555 17.7548 72.3034 18.0653L67.6003 24.1786V18.3365C67.6003 17.9082 67.2898 17.5989 66.8627 17.5989H65.3629C64.9861 17.5989 64.6584 17.756 64.4068 18.0665L56.2916 28.6449C56.1026 28.8854 56.0891 29.1972 56.2499 29.4328C56.3825 29.6353 56.596 29.7519 56.8354 29.7519H58.8408C59.2176 29.7519 59.5453 29.5948 59.7969 29.2843L64.5001 23.171V29.0131C64.5001 29.4414 64.8106 29.7519 65.2377 29.7519H66.7375C67.1143 29.7519 67.442 29.5948 67.6936 29.2843L72.3808 23.1759V29.0143C72.3808 29.4426 72.6974 29.7532 73.1343 29.7532H74.7618C75.1889 29.7532 75.4994 29.4426 75.4994 29.0143V18.3377C75.4982 17.9069 75.1877 17.5977 74.7606 17.5977Z" fill="white"/>
<path d="M79.4354 17.5977H77.808C77.6129 17.5977 77.4288 17.6725 77.2864 17.8137C77.1477 17.9536 77.0704 18.1377 77.0704 18.3353V29.0119C77.0704 29.2119 77.1477 29.3985 77.2864 29.5335C77.4263 29.6722 77.6116 29.7495 77.808 29.7495H79.4354C79.8724 29.7495 80.189 29.439 80.189 29.0106V18.3341C80.189 17.9069 79.8724 17.5977 79.4354 17.5977Z" fill="white"/>
<path d="M27.9538 17.794C27.9267 17.7927 27.8985 17.7915 27.8715 17.7915C27.8629 17.7915 27.8531 17.7915 27.8433 17.7915C27.7512 17.7915 27.6592 17.7964 27.5684 17.8013L27.3892 17.8099C27.3339 17.8111 27.2787 17.8136 27.2247 17.8185C27.1302 17.8271 27.0382 17.8406 26.9461 17.8553L26.778 17.8786C26.7313 17.8848 26.6847 17.8909 26.6393 17.8995C26.5251 17.9216 26.4147 17.9511 26.3042 17.9793L26.2637 17.9903C26.2343 17.9977 26.2048 18.0051 26.1753 18.0112C26.141 18.0186 26.1078 18.0259 26.0747 18.0357C25.8882 18.091 25.7053 18.1572 25.531 18.2284C24.8093 18.5291 24.1748 18.9538 23.6458 19.4877C23.1144 20.024 22.6873 20.6635 22.3755 21.3851C22.0638 22.1068 21.9055 22.9009 21.9055 23.7428C21.9055 24.5872 22.0552 25.3887 22.3522 26.1226C22.6468 26.8554 23.0628 27.5009 23.5881 28.0434C24.1122 28.5847 24.7418 29.0167 25.4586 29.3284C26.1827 29.6439 26.9645 29.796 27.804 29.7973C27.9047 29.7973 28.0016 29.7911 28.0973 29.7862L28.3011 29.7764C28.36 29.774 28.4189 29.7727 28.4778 29.7666C28.5809 29.7568 28.6803 29.7396 28.781 29.7224L28.8583 29.7101C28.8927 29.7052 28.927 29.7003 28.9626 29.6954C29.0129 29.688 29.0633 29.6819 29.1124 29.6709C29.2326 29.6463 29.3505 29.6119 29.4671 29.5776L29.5186 29.5628C29.5493 29.5543 29.5812 29.5457 29.6143 29.5371C29.6499 29.5285 29.6843 29.5199 29.7187 29.5088C29.9187 29.4426 30.1139 29.3652 30.298 29.2793C31.0577 28.9271 31.7241 28.4362 32.2789 27.82L30.9423 26.697C30.5557 27.1487 30.1016 27.5034 29.5861 27.7611C29.0547 28.0262 28.4815 28.1661 27.8801 28.1784C27.2996 28.1784 26.751 28.0655 26.2453 27.8421C25.7433 27.6212 25.2929 27.3082 24.9075 26.9118C24.5246 26.5178 24.2165 26.0515 23.9895 25.5262C23.7612 24.9996 23.6458 24.4277 23.6458 23.8288C23.6458 23.2323 23.755 22.6616 23.9711 22.135C24.1858 21.611 24.4829 21.1409 24.8535 20.7408C25.2242 20.3394 25.6685 20.0167 26.1729 19.7822C26.6786 19.5478 27.221 19.4226 27.7868 19.4104L27.8642 19.4091C27.9157 19.4091 27.9673 19.4128 28.0188 19.4165L28.1452 19.4239C28.1894 19.4251 28.2348 19.4275 28.2778 19.4324C28.3526 19.4398 28.4263 19.4533 28.4987 19.4668L28.5969 19.4828C28.6374 19.4889 28.6779 19.495 28.7184 19.5049C28.8055 19.5245 28.8902 19.5515 28.9761 19.5773L29.0473 19.5981C29.0792 19.6067 29.1124 19.6165 29.143 19.6276L27.9538 17.794Z" fill="white"/>
<path d="M51.899 27.0298C51.7787 26.7892 51.5455 26.6469 51.2743 26.6469H47.4008V19.0742L44.2822 23.23V29.0119C44.2822 29.212 44.3607 29.3985 44.4957 29.5323C44.6356 29.6735 44.821 29.7508 45.0198 29.7508H49.7107C50.0776 29.7508 50.4004 29.5937 50.6508 29.2856L51.8413 27.7453C51.996 27.5354 52.018 27.2691 51.899 27.0298Z" fill="white"/>
<path d="M40.243 17.7905C40.0724 17.7905 39.9399 17.8531 39.827 17.9881L35.9928 22.852L32.1549 17.9832C32.0457 17.8531 31.9144 17.7905 31.7425 17.7905H29.6217L35.0747 24.7237V28.8083L36.9096 26.4273V24.7237L42.3626 17.7905H40.243Z" fill="white"/>
<path d="M40.1645 34.0561C40.4443 34.0561 40.6886 33.9873 40.8985 33.8511C41.1083 33.7137 41.2581 33.5283 41.3477 33.2927L41.5661 33.3467C41.4655 33.629 41.2887 33.8536 41.0396 34.0193C40.7892 34.1849 40.4983 34.2672 40.1645 34.2672C39.7325 34.2672 39.368 34.1174 39.071 33.818C38.7739 33.5185 38.6242 33.154 38.6242 32.722C38.6242 32.2899 38.7727 31.9254 39.071 31.626C39.368 31.3265 39.7337 31.1768 40.1645 31.1768C40.4971 31.1768 40.7892 31.259 41.0396 31.4222C41.29 31.5855 41.4655 31.8064 41.5661 32.0825L41.3513 32.15C41.2654 31.9156 41.1157 31.7291 40.9046 31.5916C40.6935 31.4554 40.4456 31.3866 40.1633 31.3866C39.7939 31.3866 39.4821 31.5155 39.2281 31.7732C38.974 32.031 38.8464 32.3464 38.8464 32.722C38.8464 33.0963 38.974 33.413 39.2281 33.6707C39.4833 33.9272 39.7951 34.0561 40.1645 34.0561Z" fill="white"/>
<path d="M44.3067 34.0121V34.2171H42.2755V31.2261H42.5038V34.0121H44.3067Z" fill="white"/>
<path d="M45.1069 31.2261H44.8787V34.2171H45.1069V31.2261Z" fill="white"/>
<path d="M49.1375 31.2261V34.2171H48.919V31.7391L47.6328 34.2171H47.472L46.1821 31.7391V34.2171H45.9636V31.2261H46.1649L47.553 33.8869L48.9411 31.2261H49.1375Z" fill="white"/>
<path d="M51.6781 32.6903V32.6989C51.872 32.7197 52.0267 32.7946 52.1445 32.9222C52.2623 33.0499 52.3212 33.2144 52.3212 33.4132C52.3212 33.6513 52.239 33.8452 52.0757 33.9937C51.9125 34.1422 51.6904 34.2171 51.4105 34.2171H49.9954V31.2261H51.3259C51.6057 31.2261 51.8241 31.296 51.9825 31.4359C52.1408 31.5759 52.2193 31.7612 52.2193 31.9944C52.2193 32.1785 52.1678 32.3356 52.0635 32.4632C51.9579 32.5909 51.8303 32.6657 51.6781 32.6903ZM50.2237 31.4224V32.6142H51.3749C51.5627 32.6142 51.7137 32.5577 51.8303 32.4448C51.9469 32.3319 52.0046 32.1846 52.0046 32.003C52.0046 31.8275 51.9432 31.6863 51.8192 31.5808C51.6953 31.4752 51.5259 31.4224 51.3074 31.4224H50.2237ZM50.2237 34.0207H51.3934C51.6045 34.0207 51.7738 33.963 51.9027 33.8489C52.0303 33.7347 52.0942 33.585 52.0942 33.3997C52.0942 33.2156 52.0291 33.0695 51.9002 32.9615C51.7701 32.8547 51.6008 32.8007 51.3897 32.8007H50.2249V34.0207H50.2237Z" fill="white"/>
<path d="M56.4021 31.431H55.2373V34.2171H55.0054V31.431H53.8394V31.2261H56.4021V31.431Z" fill="white"/>
<path d="M57.1139 31.625C57.4097 31.3255 57.773 31.1758 58.2014 31.1758C58.6297 31.1758 58.9918 31.3255 59.2863 31.625C59.5809 31.9245 59.7282 32.289 59.7282 32.721C59.7282 33.1555 59.5809 33.5212 59.2863 33.8195C58.9918 34.1165 58.6297 34.2662 58.2014 34.2662C57.7693 34.2662 57.406 34.1177 57.1115 33.8195C56.8169 33.5212 56.6696 33.1555 56.6696 32.721C56.6696 32.2902 56.8182 31.9245 57.1139 31.625ZM58.2014 34.0563C58.5671 34.0563 58.8764 33.9287 59.128 33.6722C59.3796 33.4157 59.5048 33.099 59.5048 32.721C59.5048 32.3454 59.3796 32.03 59.128 31.7723C58.8764 31.5145 58.5671 31.3857 58.2014 31.3857C57.8319 31.3857 57.5214 31.5145 57.2698 31.7723C57.0182 32.03 56.893 32.3454 56.893 32.721C56.893 33.099 57.0182 33.4157 57.2698 33.6722C57.5226 33.9287 57.8319 34.0563 58.2014 34.0563Z" fill="white"/>
<path d="M63.8409 31.431H62.675V34.2171H62.443V31.431H61.2783V31.2261H63.8409V31.431Z" fill="white"/>
<path d="M66.827 31.2261V34.2171H66.6037V32.8106H64.6215V34.2171H64.3945V31.2261H64.6215V32.6056H66.6037V31.2261H66.827Z" fill="white"/>
<path d="M67.9132 31.431V32.6142H69.6941V32.8155H67.9132V34.0121H69.8279V34.2171H67.6849V31.2261H69.8279V31.431H67.9132Z" fill="white"/>
<path d="M73.9394 31.431H72.7747V34.2171H72.5427V31.431H71.3768V31.2261H73.9394V31.431Z" fill="white"/>
<path d="M74.6525 31.625C74.9483 31.3255 75.3116 31.1758 75.7399 31.1758C76.1682 31.1758 76.5303 31.3255 76.8249 31.625C77.1194 31.9245 77.2667 32.289 77.2667 32.721C77.2667 33.1555 77.1194 33.5212 76.8249 33.8195C76.5303 34.1165 76.1682 34.2662 75.7399 34.2662C75.3079 34.2662 74.9446 34.1177 74.65 33.8195C74.3555 33.5212 74.2082 33.1555 74.2082 32.721C74.2082 32.2902 74.3555 31.9245 74.6525 31.625ZM75.7387 34.0563C76.1044 34.0563 76.4137 33.9287 76.6653 33.6722C76.9169 33.4157 77.0421 33.099 77.0421 32.721C77.0421 32.3454 76.9169 32.03 76.6653 31.7723C76.4137 31.5145 76.1044 31.3857 75.7387 31.3857C75.3692 31.3857 75.0587 31.5145 74.8071 31.7723C74.5555 32.03 74.4303 32.3454 74.4303 32.721C74.4303 33.099 74.5555 33.4157 74.8071 33.6722C75.06 33.9287 75.3705 34.0563 75.7387 34.0563Z" fill="white"/>
<path d="M77.9761 31.2261H79.239C79.5422 31.2261 79.7864 31.3083 79.9718 31.474C80.1559 31.6397 80.2491 31.852 80.2491 32.1147C80.2491 32.3798 80.1571 32.5946 79.9718 32.7602C79.7877 32.9259 79.5434 33.0082 79.239 33.0082H78.2032V34.2183H77.9749V31.2261H77.9761ZM78.2044 32.802H79.2403C79.4759 32.802 79.6649 32.7382 79.8073 32.6105C79.9497 32.4829 80.0221 32.3172 80.0221 32.1147C80.0221 31.9122 79.9509 31.7477 79.8073 31.6213C79.6649 31.4949 79.4747 31.431 79.2403 31.431H78.2044V32.802Z" fill="white"/>
<path d="M81.2077 16.1778C89.5413 14.6682 90.1525 12.5879 95.7786 13.3144L93.5338 16.1778H81.2077Z" fill="white"/>
<path d="M18.5413 27.6679C18.5769 27.6163 18.6003 27.5378 18.6481 27.5169C18.8543 27.431 18.8703 27.2739 18.8469 27.0886C18.464 27.015 18.0762 26.9916 17.762 26.7278C19.2225 25.8208 19.4778 24.9874 18.75 23.5036C20.5038 21.298 22.2614 19.0864 24.0373 16.8539C24.1625 17.1091 24.284 17.3546 24.4019 17.5952C24.6252 17.4356 24.9566 17.2613 25.4205 17.1411C25.164 16.4329 24.9075 15.7284 24.6522 15.0239C25.5236 14.9184 26.3656 14.8165 27.2088 14.7122C27.4837 14.6778 27.7611 14.6177 27.9488 14.9098C28.1329 14.7686 28.2937 14.6447 28.4606 14.5158C28.6374 14.7625 28.7994 14.9871 28.9737 15.2313C29.0927 15.0165 29.1995 14.83 29.2989 14.641C29.3222 14.5968 29.3406 14.5354 29.3308 14.4888C29.2707 14.1979 29.2302 13.8972 29.1295 13.6198C28.9847 13.221 28.7343 13.1498 28.3256 13.2418C27.7905 13.3621 27.2468 13.475 26.7019 13.5094C25.8157 13.5646 24.9259 13.5523 24.0373 13.572C23.8569 13.5757 23.6765 13.5965 23.4801 13.6113C23.4666 13.4677 23.4531 13.3474 23.4445 13.2271C23.4114 12.7926 23.3746 12.3569 23.3488 11.9212C23.3378 11.7396 23.3427 11.5555 23.3513 11.3738C23.3856 10.6865 23.4396 10.0004 23.458 9.31313C23.4715 8.81606 23.8152 8.5841 24.2632 8.80747C24.3442 8.84797 24.4252 8.89829 24.4915 8.95966C24.6031 9.06275 24.7259 9.16585 24.8056 9.29227C24.9701 9.55123 25.218 9.64083 25.4954 9.69851C25.6918 9.74024 25.8342 9.69606 25.9262 9.50091C26.0453 9.24686 26.1839 9.00261 26.3128 8.75592C26.6381 8.86638 26.6491 8.85779 26.7178 8.53868C26.8001 8.15944 26.8884 7.78265 26.9805 7.38131C26.7056 7.26471 26.4024 7.14075 26.1029 7.00943C25.7531 6.85478 25.4083 6.68787 25.0069 6.7971C24.9443 6.81428 24.8695 6.79464 24.8007 6.78973C24.2227 6.74064 23.7084 6.50622 23.2113 6.22639C22.5621 5.85942 21.8576 5.60413 21.1408 5.44581C20.4756 5.29853 19.7748 5.26784 19.09 5.26661C18.2591 5.26539 17.4269 5.35007 16.596 5.39794C16.9532 5.4814 17.3103 5.52067 17.665 5.57468C18.8028 5.7465 19.9196 5.9932 20.9874 6.44731C21.838 6.80937 22.3424 7.42918 22.5633 8.31654C22.8125 9.31559 22.8481 10.3294 22.8272 11.3505C22.8235 11.5101 22.8284 11.6733 22.8542 11.8316C22.9597 12.4661 23.0886 13.097 23.1807 13.7328C23.2138 13.961 23.3144 14.0187 23.5182 14.0298C23.8164 14.0457 24.1134 14.0862 24.4117 14.1169C23.9747 14.2077 23.5415 14.263 23.107 14.3022C22.6897 14.3391 22.5081 14.2053 22.4062 13.8039C22.0982 12.595 21.795 11.3849 21.4796 10.1784C21.4575 10.0949 21.3679 9.99185 21.2881 9.9673C20.5493 9.74024 19.8104 9.51319 19.063 9.31804C18.3707 9.13762 17.681 8.91547 16.9434 9.0333C16.7249 9.06766 16.5003 9.05907 16.2781 9.07257C15.5724 9.11798 14.8655 9.16462 14.1291 9.21372C14.4175 9.44691 14.8508 9.36713 15.0606 9.78443C14.7575 9.82616 14.4961 9.8912 14.2334 9.89366C13.4577 9.89857 12.7704 9.5991 12.1163 9.2174C12.0598 9.18426 12.0242 9.06644 12.0291 8.99034C12.0586 8.42577 12.2046 7.8882 12.439 7.37517C12.5139 7.21194 12.5974 7.05116 12.7041 6.83269C12.5593 6.91124 12.466 6.95665 12.3789 7.01065C11.3099 7.66728 10.9282 8.79642 11.0902 10.1318C11.2031 11.0609 11.7174 11.7739 12.4035 12.3815C12.5998 12.5545 12.7594 12.7681 12.9729 13.0037C12.8686 12.9976 12.8318 12.9951 12.7937 12.9927C12.1224 12.9411 11.4498 12.892 10.7785 12.8343C10.603 12.8196 10.549 12.8859 10.5502 13.054C10.5526 13.9451 11.0485 14.3452 11.9088 14.1402C12.088 14.0973 12.2635 14.0445 12.4403 13.9979C12.5409 13.9709 12.644 13.9475 12.7594 13.9205C13.092 14.9085 13.4197 15.8794 13.7425 16.8526C13.7584 16.9017 13.7474 16.9754 13.7204 17.0208C13.454 17.4503 13.1877 17.8799 12.9103 18.3021C12.8048 18.4617 12.6759 18.5194 12.4685 18.4163C10.7318 17.5584 8.96815 17.5166 7.1836 18.2678C7.06087 18.3193 6.94182 18.3819 6.82154 18.4396C7.10628 18.4911 7.37752 18.4862 7.64876 18.4924C8.72268 18.5144 9.79414 18.5562 10.8325 18.8679C11.2952 19.0066 11.7407 19.187 12.142 19.5147C12.0868 19.6043 12.0451 19.6767 11.9984 19.7467C11.3295 20.7629 10.6631 21.7816 9.9856 22.7929C9.90092 22.9193 9.761 23.0102 9.65545 23.1084C9.9721 23.2164 10.2213 23.4495 10.1918 23.8742C10.1697 24.1786 9.99542 24.3897 9.70946 24.4854C9.3253 24.6143 9.02215 24.4744 8.78773 24.143C8.80491 24.7027 9.58795 25.2476 10.2924 24.7837C10.4139 24.7039 10.5146 24.683 10.6508 24.7162C11.4682 24.9162 12.2881 25.1101 13.1067 25.3077C13.1988 25.3298 13.2884 25.3593 13.3988 25.39C12.8392 26.5866 11.9923 27.4347 10.7797 27.8753C9.20379 28.4472 7.74695 28.1821 6.38461 27.1291C7.11733 28.133 8.57049 28.7713 9.98192 28.6522C11.9788 28.4841 13.2724 27.3574 14.0198 25.5262C14.1536 25.5618 14.2825 25.5974 14.4114 25.6317C13.7621 27.836 11.2878 29.3592 8.97796 29.002C7.95191 28.8437 7.02773 28.4117 6.15878 27.8839C4.99773 27.1806 4.20119 26.1411 3.67589 24.8917C3.65502 24.8438 3.63048 24.7972 3.60838 24.7493C3.91154 26.7916 4.98422 28.3073 6.81786 29.3641C5.53652 29.434 4.32515 29.5003 3.11377 29.5666C4.19137 29.6697 5.26774 29.7359 6.34411 29.8059C7.10015 29.855 7.86355 29.8648 8.61222 29.9691C10.7195 30.2625 12.5495 29.72 14.053 28.2067C14.4961 27.7612 14.8397 27.2175 15.219 26.7314C15.5319 26.8321 15.9099 26.9106 16.2475 27.0726C16.5911 27.2383 16.8943 27.485 17.2661 27.7305C17.1275 27.7391 17.0624 27.7428 16.9802 27.7464C16.9875 27.8802 16.9679 28.0103 17.0072 28.1195C17.0366 28.2018 17.1532 28.3233 17.2097 28.3135C17.5668 28.2472 17.9289 28.1736 18.2676 28.0471C18.3867 27.9944 18.4517 27.7968 18.5413 27.6679ZM23.0935 15.5652C23.2383 15.5468 23.3918 15.6008 23.5415 15.6216C23.485 15.7554 23.4531 15.9076 23.3672 16.0193C21.6134 18.2898 19.8534 20.5567 18.0934 22.8236C18.07 22.8531 18.043 22.8788 18.0332 22.8899C17.7338 22.8199 17.4527 22.7549 17.136 22.6812C17.1692 22.4149 17.2121 22.124 17.2428 21.8319C17.3975 20.3125 17.7828 18.8385 18.1056 17.3509C18.1768 17.0208 18.156 16.6698 18.1793 16.2942C19.085 16.1531 19.9982 16.0082 20.9125 15.8708C21.6379 15.7628 22.3645 15.6572 23.0935 15.5652ZM16.9274 19.7025C16.8108 20.7028 16.8194 21.7166 16.7715 22.7352C16.5334 22.8383 16.2708 22.9513 16.0388 23.0519C16.0388 22.6162 16.0192 22.1609 16.0425 21.7092C16.1088 20.4254 16.1947 19.1428 16.2646 17.8603C16.2757 17.6455 16.3371 17.4933 16.5236 17.3669C16.8378 17.1546 17.1324 16.9103 17.4834 16.644C17.2858 17.7044 17.0452 18.6961 16.9274 19.7025ZM13.3399 13.8395C13.54 13.7131 13.675 13.7683 13.8431 13.8972C14.4789 14.3869 15.1318 14.8521 15.7222 15.2853C16.0867 14.9859 16.3923 14.7355 16.7114 14.4741C16.5359 14.5084 16.3518 14.5182 16.1873 14.5821C15.9897 14.6582 15.8056 14.6496 15.6362 14.5526C15.0398 14.2114 14.4482 13.8629 13.8627 13.5032C13.6553 13.3756 13.4749 13.2062 13.227 13.0123C13.3215 13.0369 13.3534 13.0393 13.3792 13.0528C14.636 13.761 16.0008 14.1488 17.4048 14.4176C17.465 14.4287 17.5509 14.425 17.5951 14.3906C17.9412 14.1267 18.2811 13.853 18.642 13.5683C17.9854 12.4306 17.0636 11.5714 16.1124 10.7332C17.276 11.3468 18.2701 12.1814 19.1832 13.1314C19.344 13.0184 19.4938 12.9141 19.6619 12.7963C18.6948 11.7752 17.6883 10.8142 16.4721 10.0949C17.9485 10.484 19.3772 11.0866 20.985 10.9786C21.0304 11.283 21.0709 11.6058 21.1286 11.9261C21.2734 12.7239 21.4231 13.5204 21.5802 14.3157C21.6588 14.7134 21.8404 15.0141 22.3424 14.9429C22.3375 14.9662 22.3326 14.9895 22.3289 15.0129C21.1617 15.2424 19.9933 15.4707 18.8261 15.7002C18.8199 15.6842 18.8126 15.6695 18.8064 15.6535C19.009 15.4952 19.2176 15.343 19.4127 15.1749C19.5981 15.0153 19.7883 14.8558 19.9417 14.668C20.2584 14.2801 20.2927 13.8383 20.1197 13.3044C20.0804 13.4333 20.0559 13.5045 20.0362 13.5781C19.8742 14.1832 19.5662 14.6582 19.0225 15.0202C17.9841 15.7112 16.9863 16.4623 15.9701 17.1865C15.6792 17.3939 15.3834 17.5915 15.0889 17.794C15.0643 17.783 15.0398 17.7719 15.0152 17.7596C15.2104 17.0257 15.4043 16.2905 15.5921 15.5848C15.3601 15.7247 15.1907 15.98 15.0496 16.2586C14.9686 16.4169 14.485 16.617 14.3193 16.5568C14.2886 16.5458 14.2567 16.509 14.2457 16.4771C13.9425 15.5983 13.6406 14.7171 13.3399 13.8395ZM14.5672 19.2815C14.7697 19.8817 14.9551 20.4315 15.1416 20.9826C14.8692 20.4622 14.2764 20.0535 14.5672 19.2815ZM14.4494 17.0588C14.5586 17.038 14.6482 17.0208 14.7943 16.9938C14.7084 17.1411 14.6507 17.2392 14.5623 17.3914C14.5132 17.2442 14.485 17.1632 14.4494 17.0588ZM15.1416 19.079C14.9833 18.6175 14.9821 18.6175 15.3625 18.2984C15.4374 18.2358 15.5135 18.1757 15.554 18.1438C15.5221 18.7611 15.4902 19.3944 15.4595 19.9983C15.3625 19.7209 15.2521 19.3994 15.1416 19.079ZM13.9744 17.5412C14.01 17.6406 14.0321 17.7007 14.0591 17.7768C13.9573 17.8443 13.8591 17.9106 13.7609 17.9769C13.7474 17.9646 13.7351 17.9523 13.7216 17.9388C13.8002 17.8173 13.8775 17.6934 13.9744 17.5412ZM14.6311 24.8634C14.4519 24.8328 14.3267 24.8107 14.2236 24.7935V23.6852C14.3905 23.6999 14.5243 23.7122 14.6961 23.7282C14.674 24.1062 14.6544 24.4682 14.6311 24.8634ZM16.5948 25.1163C16.5285 24.9788 16.4438 24.888 16.4549 24.8131C16.4978 24.5357 16.3027 24.3983 16.1579 24.2289C16.0646 24.1184 15.9664 24.0117 15.8707 23.9037C15.2214 24.5075 15.3527 25.6391 16.1444 26.3657C15.1343 26.1644 14.8053 24.6658 15.5405 23.5269C15.1637 23.101 14.7832 22.669 14.3758 22.2087C14.4727 22.5966 14.5586 22.9414 14.6482 23.3035C14.5488 23.3121 14.4875 23.3121 14.4298 23.3244C14.2395 23.3636 14.1708 23.29 14.1315 23.0961C13.9671 22.2909 13.5989 21.5865 13.0171 20.9986C13.4663 21.7141 13.7314 22.4812 13.7695 23.3465C12.9447 23.3784 12.1396 23.409 11.3332 23.4397C11.3332 23.452 11.3344 23.4655 11.3344 23.4778C12.142 23.5367 12.9496 23.5944 13.794 23.6557C13.7449 24.0104 13.6983 24.3394 13.6492 24.6965C12.6551 24.5308 11.6928 24.3713 10.7429 24.2142C10.7122 24.0166 10.7122 23.8202 10.6459 23.6496C10.5821 23.4839 10.4508 23.3452 10.3231 23.1574C11.0337 22.0958 11.764 21.0035 12.5311 19.8559C12.914 20.2168 13.2871 20.5678 13.6651 20.9249C13.5657 21.0759 13.4909 21.1888 13.4086 21.3152C13.6541 21.5779 13.8959 21.8381 14.1389 22.0983C14.1598 22.0811 14.1806 22.0627 14.2027 22.0455C14.1561 21.9743 14.1094 21.9031 14.0518 21.8147C14.3525 21.8405 14.5979 21.9068 14.7943 22.1547C15.0606 22.4898 15.3736 22.788 15.6534 23.112C15.7725 23.2495 15.8633 23.2556 16.0204 23.166C16.9053 22.6616 17.9952 22.9549 18.4873 23.8288C18.1682 23.5207 17.8037 23.306 17.3557 23.2667C16.9114 23.2286 16.5064 23.3305 16.1296 23.6177C16.299 23.8067 16.4549 23.9933 16.6267 24.1639C16.6635 24.1994 16.7605 24.1945 16.8243 24.1798C17.0992 24.1172 17.2956 24.1982 17.4355 24.4449C16.8869 24.3197 16.6304 24.5038 16.5948 25.1163Z" fill="white"/>
<path d="M23.4715 4.09695C24.3208 4.14236 25.1395 4.31419 25.8722 4.77812C26.233 5.00641 26.5386 5.29237 26.7362 5.67776C26.8823 5.96373 26.8356 6.16746 26.5693 6.34788C26.4282 6.44361 26.2674 6.51234 26.1029 6.60071C26.4822 6.78113 26.8602 6.88668 27.2689 6.85109C27.7856 6.80568 28.1403 6.43502 28.1636 5.91586C28.182 5.48016 28.0176 5.10827 27.7475 4.77935C27.3425 4.28596 26.805 4.00368 26.195 3.86253C24.8633 3.55447 23.555 3.74839 22.2577 4.09327C22.6627 4.09327 23.0677 4.07486 23.4715 4.09695Z" fill="white"/>
<path d="M28.2384 15.3514C28.1378 15.4521 28.0813 15.5932 27.993 15.7074C27.653 16.1443 27.1694 16.2253 26.6589 16.229C26.5668 16.229 26.4748 16.2228 26.3839 16.2314C26.3361 16.2363 26.2588 16.2621 26.2526 16.2903C26.2428 16.3394 26.2612 16.4168 26.2968 16.4487C26.3631 16.5076 26.4478 16.5702 26.5312 16.5812C26.8012 16.6156 27.0798 16.6708 27.345 16.6389C27.9746 16.5628 28.3955 16.1946 28.641 15.6104C28.7159 15.4324 28.6005 15.3269 28.5072 15.2336C28.4815 15.2066 28.306 15.2827 28.2384 15.3514Z" fill="white"/>
<path d="M8.87978 23.2729C7.7715 23.354 6.64726 23.435 5.52302 23.5172C5.5218 23.5331 5.5218 23.5491 5.52057 23.5651C6.58221 23.6878 7.64385 23.8117 8.66254 23.9296C8.74232 23.689 8.80737 23.4914 8.87978 23.2729Z" fill="white"/>
<path d="M23.9673 5.00392C23.9747 5.00146 23.9796 4.99533 24.0017 4.98182C23.199 4.51176 21.3617 4.34116 20.7935 4.64308C21.3531 4.76091 21.9889 4.81 22.551 5.03828C23.0677 5.24816 23.501 5.18924 23.9673 5.00392Z" fill="white"/>
</svg>
