<svg width="120" height="120" viewBox="0 0 120 120" fill="none" xmlns="http://www.w3.org/2000/svg">
<g clip-path="url(#clip0_3591_3820)">
<circle cx="60" cy="60" r="60" fill="#275D7C"/>
<path d="M52 52L68 68" stroke="white" stroke-width="1.5" stroke-linecap="round" stroke-linejoin="round"/>
<path d="M55 68H68V55" stroke="white" stroke-width="1.5" stroke-linecap="round" stroke-linejoin="round"/>
<path d="M30.686 25.5625C31.933 26.727 32.5703 27.9574 32.598 29.2537C32.6254 30.5432 32.0456 31.8236 30.8586 33.0947L28.9044 35.1873L21.3501 28.1328L23.5118 25.8179C24.6088 24.6433 25.7868 24.0344 27.0458 23.9913C28.3049 23.9483 29.5183 24.472 30.686 25.5625ZM29.8485 26.5215C28.8633 25.6015 27.8893 25.1563 26.9266 25.1859C25.9671 25.212 25.0322 25.7125 24.1218 26.6874L22.93 27.9637L28.9651 33.5996L29.9639 32.53C30.9419 31.4828 31.4203 30.4561 31.3992 29.4497C31.3747 28.4401 30.8578 27.4641 29.8485 26.5215Z" fill="#7E9EB1"/>
<path d="M38.9014 26.1393L37.9266 26.7928L33.612 20.3567L34.5869 19.7032L38.9014 26.1393ZM32.3606 18.6677C32.2111 18.4446 32.1569 18.2454 32.1983 18.0701C32.2371 17.8909 32.3387 17.7462 32.5031 17.636C32.6597 17.531 32.8302 17.4933 33.0146 17.5229C33.199 17.5525 33.3647 17.6769 33.5116 17.8961C33.6586 18.1154 33.7121 18.3178 33.672 18.5036C33.6293 18.6854 33.5297 18.8288 33.3731 18.9338C33.2087 19.044 33.0362 19.083 32.8558 19.0508C32.6726 19.0146 32.5076 18.887 32.3606 18.6677Z" fill="#7E9EB1"/>
<path d="M46.6023 19.8756C46.8867 20.5382 46.8592 21.1553 46.5197 21.7267C46.1802 22.2981 45.5644 22.7752 44.6721 23.1581C43.7279 23.5633 42.9275 23.7299 42.2709 23.6578L41.8415 22.6573C42.258 22.6837 42.6825 22.6631 43.1151 22.5954C43.552 22.5259 43.9523 22.413 44.3161 22.2569C44.8792 22.0153 45.2742 21.7406 45.5012 21.4329C45.7263 21.1209 45.7599 20.7808 45.6019 20.4126C45.4829 20.1354 45.2603 19.9514 44.9341 19.8606C44.6104 19.7636 44.0423 19.7305 43.2297 19.7612C42.4611 19.7987 41.897 19.787 41.5374 19.7259C41.1803 19.6586 40.8822 19.5378 40.6432 19.3633C40.4086 19.1871 40.2216 18.9365 40.0822 18.6117C39.8331 18.0313 39.873 17.4731 40.202 16.937C40.5291 16.3965 41.1041 15.9497 41.9271 15.5966C42.6937 15.2675 43.5099 15.1019 44.3757 15.0996L44.3688 16.1412C43.5277 16.1534 42.817 16.284 42.2366 16.5331C41.7256 16.7524 41.3745 16.998 41.1834 17.2697C40.9923 17.5415 40.9572 17.8182 41.078 18.0997C41.1598 18.2903 41.2771 18.4322 41.43 18.5256C41.5873 18.6171 41.8002 18.6771 42.0688 18.7054C42.3374 18.7337 42.8285 18.7307 43.542 18.6963C44.5186 18.6413 45.221 18.7066 45.6494 18.892C46.0821 19.0756 46.3997 19.4035 46.6023 19.8756Z" fill="#7E9EB1"/>
<path d="M54.2788 20.2889C53.1754 20.4911 52.258 20.3094 51.5267 19.7439C50.7991 19.1728 50.3215 18.2661 50.0938 17.0236C49.8602 15.7487 49.9856 14.7075 50.4702 13.8999C50.9593 13.0916 51.7718 12.5833 52.9076 12.3751C53.2739 12.308 53.6473 12.2803 54.028 12.292C54.4087 12.3037 54.7131 12.3438 54.9413 12.4122L54.7663 13.4577C54.4926 13.4024 54.1992 13.3699 53.886 13.3602C53.5719 13.3459 53.2989 13.36 53.0671 13.4025C51.5187 13.6862 50.9255 14.8156 51.2874 16.7905C51.459 17.727 51.7784 18.4112 52.2457 18.843C52.7176 19.2741 53.3244 19.4216 54.0662 19.2857C54.7013 19.1693 55.3276 18.9132 55.9451 18.5173L56.1324 19.5395C55.6709 19.8972 55.053 20.147 54.2788 20.2889Z" fill="#7E9EB1"/>
<path d="M66.9386 16.0507C66.8598 17.3113 66.4807 18.277 65.8013 18.9476C65.1221 19.6135 64.2228 19.9115 63.1032 19.8416C62.4117 19.7984 61.808 19.5977 61.292 19.2396C60.7761 18.8815 60.3912 18.39 60.1375 17.7649C59.8837 17.1399 59.7823 16.4205 59.8331 15.6067C59.9119 14.346 60.2884 13.3849 60.9625 12.7234C61.6369 12.0572 62.5339 11.759 63.6535 11.829C64.7354 11.8966 65.5714 12.3101 66.1615 13.0695C66.7563 13.8292 67.0153 14.8229 66.9386 16.0507ZM61.0468 15.6825C60.9851 16.6703 61.1356 17.4353 61.4984 17.9775C61.8612 18.5196 62.426 18.8146 63.1927 18.8625C63.9595 18.9104 64.5565 18.6904 64.9836 18.2023C65.4158 17.7099 65.6629 16.9674 65.7249 15.9748C65.7864 14.9917 65.633 14.2336 65.2649 13.7006C64.9018 13.1631 64.3322 12.8702 63.556 12.8217C62.7893 12.7738 62.195 12.9893 61.7731 13.4682C61.3512 13.9472 61.1091 14.6853 61.0468 15.6825Z" fill="#7E9EB1"/>
<path d="M72.0469 21.2664L71.6174 12.9897L72.8155 13.3747L72.9981 18.2602C73.0283 19.3986 73.0258 20.1305 72.9906 20.4558L73.0444 20.4731C73.1702 20.2511 73.4829 19.8095 73.9825 19.1483C74.4881 18.484 75.6023 17.0425 77.3252 14.8238L78.5233 15.2088L73.3527 21.686L72.0469 21.2664Z" fill="#7E9EB1"/>
<path d="M81.8375 25.8654C80.8639 25.2624 80.2782 24.4893 80.0806 23.5464C79.8869 22.6059 80.1165 21.6088 80.7692 20.555C81.4269 19.4932 82.2098 18.8111 83.1178 18.5086C84.0299 18.2087 84.9267 18.3317 85.8082 18.8777C86.6336 19.389 87.1179 20.066 87.2612 20.9087C87.407 21.7475 87.2044 22.6116 86.6534 23.5011L86.2625 24.1322L81.7248 21.3215C81.2658 22.1072 81.0966 22.8146 81.217 23.4436C81.3415 24.0751 81.7403 24.5993 82.4134 25.0163C83.1226 25.4556 83.9156 25.7416 84.7925 25.8745L84.2415 26.764C83.7946 26.6979 83.393 26.5988 83.0368 26.4669C82.682 26.3414 82.2823 26.1409 81.8375 25.8654ZM85.2787 19.7057C84.7498 19.3781 84.2203 19.2886 83.6904 19.4371C83.1644 19.5881 82.6847 19.9507 82.2514 20.525L85.6953 22.6582C86.0849 22.0291 86.2425 21.4614 86.168 20.9551C86.096 20.4448 85.7996 20.0283 85.2787 19.7057Z" fill="#7E9EB1"/>
<path d="M95.4511 26.7142C95.696 26.9559 95.8959 27.1929 96.0508 27.4251L95.1703 28.0859C94.9919 27.8105 94.8154 27.5867 94.6409 27.4145C94.1947 26.9743 93.6335 26.778 92.9573 26.8259C92.2844 26.877 91.6815 27.1727 91.1485 27.7128L88.2287 30.6719L87.3933 29.8476L92.8356 24.3321L93.5251 25.0124L92.6127 26.1283L92.6529 26.168C93.2118 26.011 93.7315 25.9775 94.212 26.0676C94.6925 26.1577 95.1056 26.3733 95.4511 26.7142Z" fill="#7E9EB1"/>
<path d="M99.4697 49.4662L104.19 47.698C104.768 47.4815 105.155 47.1959 105.349 46.8412C105.548 46.485 105.55 46.0464 105.354 45.5256C105.098 44.8414 104.712 44.4096 104.197 44.2302C103.682 44.0507 103.016 44.1139 102.2 44.4197L98.1479 45.9374L97.7363 44.8384L102.457 43.0702C103.035 42.8537 103.421 42.5681 103.616 42.2134C103.814 41.8572 103.815 41.4164 103.619 40.8912C103.361 40.2026 102.964 39.7749 102.428 39.6081C101.899 39.4441 101.164 39.5382 100.224 39.8903L96.417 41.3162L96.0053 40.2172L103.262 37.4993L103.596 38.3931L102.67 38.9438L102.69 38.9968C103.121 39.0719 103.506 39.2599 103.845 39.5607C104.186 39.8659 104.444 40.2524 104.619 40.7203C105.044 41.8546 104.911 42.7498 104.221 43.406L104.241 43.459C104.701 43.5331 105.119 43.734 105.493 44.0619C105.868 44.3897 106.153 44.8162 106.35 45.3414C106.657 46.1624 106.675 46.8553 106.404 47.42C106.138 47.9876 105.542 48.4449 104.615 48.7921L99.8814 50.5652L99.4697 49.4662Z" fill="#7E9EB1"/>
<path d="M104.476 61.3088C103.213 61.3552 102.215 61.0736 101.48 60.4639C100.75 59.8541 100.365 58.9886 100.323 57.8677C100.298 57.1753 100.438 56.5547 100.743 56.0058C101.048 55.4569 101.499 55.0252 102.096 54.7108C102.693 54.3965 103.399 54.2243 104.214 54.1943C105.476 54.1478 106.47 54.4273 107.195 55.0326C107.924 55.6377 108.31 56.5008 108.351 57.6218C108.391 58.7051 108.062 59.5779 107.365 60.2403C106.668 60.9074 105.705 61.2635 104.476 61.3088ZM104.258 55.4095C103.269 55.4459 102.523 55.6714 102.019 56.0861C101.516 56.5008 101.278 57.0921 101.307 57.8598C101.335 58.6275 101.613 59.1998 102.141 59.5765C102.674 59.9578 103.437 60.1301 104.431 60.0936C105.415 60.0574 106.154 59.8297 106.648 59.4106C107.147 58.9961 107.382 58.4003 107.354 57.6231C107.325 56.8554 107.052 56.2853 106.534 55.9129C106.015 55.5405 105.257 55.3727 104.258 55.4095Z" fill="#7E9EB1"/>
<path d="M107.17 70.2468C107.104 70.5845 107.017 70.8822 106.909 71.1397L105.872 70.7721C106.002 70.471 106.091 70.2002 106.138 69.9596C106.258 69.3443 106.111 68.7682 105.697 68.2315C105.282 67.6993 104.702 67.3608 103.957 67.2158L99.8763 66.4216L100.101 65.2696L107.706 66.75L107.521 67.7007L106.087 67.5584L106.076 67.6139C106.516 67.9925 106.832 68.4068 107.023 68.8569C107.213 69.307 107.262 69.7703 107.17 70.2468Z" fill="#7E9EB1"/>
<path d="M96.8471 75.7107C97.3104 74.6632 97.9954 73.9767 98.9021 73.6511C99.8069 73.3297 100.826 73.4197 101.96 73.9211C103.102 74.4263 103.886 75.1078 104.31 75.9655C104.733 76.8276 104.735 77.7327 104.315 78.681C103.922 79.569 103.319 80.142 102.504 80.4C101.693 80.6599 100.809 80.5782 99.8522 80.155L99.1733 79.8548L101.332 74.9732C100.491 74.6268 99.7668 74.5566 99.1604 74.7625C98.5521 74.9727 98.0878 75.4399 97.7675 76.1641C97.4301 76.9271 97.256 77.7519 97.2451 78.6387L96.2882 78.2155C96.2922 77.7637 96.335 77.3523 96.4166 76.9813C96.492 76.6127 96.6355 76.1891 96.8471 75.7107ZM103.422 78.2706C103.674 77.7017 103.69 77.1649 103.469 76.6605C103.247 76.1603 102.822 75.7352 102.194 75.3851L100.555 79.0899C101.232 79.3892 101.816 79.4671 102.307 79.3236C102.803 79.182 103.174 78.831 103.422 78.2706Z" fill="#7E9EB1"/>
<path d="M85.5075 90.5664L89.563 93.0639C89.813 93.215 90.3537 93.5817 91.1851 94.1642L91.2278 94.127C90.8288 93.381 90.5357 92.7926 90.3485 92.362L88.4788 87.9822L89.503 87.0914L96.183 91.5507L95.2548 92.358C93.6004 91.2171 92.3413 90.3476 91.4776 89.7496C90.6104 89.1547 90.0466 88.7362 89.7861 88.4942L89.7434 88.5313C89.8806 88.7681 90.0457 89.0836 90.2388 89.4779C90.4313 89.8788 90.5776 90.2014 90.6775 90.4455L92.5235 94.7335L91.5633 95.5686L87.5995 93.1226C86.8683 92.6841 86.2863 92.2878 85.8532 91.9335L85.8106 91.9706C85.9077 92.111 86.042 92.3409 86.2135 92.6602C86.3815 92.9826 87.2579 94.7408 88.8428 97.9348L87.9252 98.7328L84.4566 91.4804L85.5075 90.5664Z" fill="#7E9EB1"/>
<path d="M78.6191 94.9341L79.6617 94.3952L83.2196 101.279L82.1771 101.817L78.6191 94.9341ZM84.2717 103.098C84.3951 103.337 84.4262 103.541 84.3653 103.711C84.3065 103.884 84.1892 104.017 84.0133 104.107C83.8458 104.194 83.6722 104.212 83.4923 104.162C83.3124 104.112 83.1619 103.969 83.0407 103.735C82.9195 103.5 82.8893 103.293 82.9502 103.113C83.0132 102.937 83.1284 102.806 83.2959 102.719C83.4717 102.629 83.6475 102.609 83.8232 102.662C84.001 102.718 84.1505 102.864 84.2717 103.098Z" fill="#7E9EB1"/>
<path d="M72.2675 98.3545C72.0704 98.419 71.8844 98.4947 71.7096 98.5817C71.5362 98.6731 71.4009 98.7521 71.3036 98.8187L71.0244 97.9653C71.1262 97.8675 71.29 97.7619 71.5157 97.6483C71.7354 97.5318 71.9394 97.4427 72.1275 97.3812C73.552 96.915 74.5098 97.4322 75.0008 98.9329L76.4345 103.314L77.4894 102.969L77.6653 103.506L76.7621 104.315L76.8063 106.041L76.1613 106.252L75.6027 104.546L73.4661 105.245L73.1824 104.378L75.3191 103.679L73.9008 99.3449C73.7557 98.9014 73.539 98.5954 73.2508 98.4269C72.9626 98.2584 72.6348 98.2343 72.2675 98.3545Z" fill="#7E9EB1"/>
<path d="M62.4602 99.1971L62.9213 104.188C62.9794 104.817 63.1659 105.273 63.4808 105.557C63.7957 105.84 64.2582 105.953 64.8683 105.897C65.6802 105.822 66.2535 105.547 66.5882 105.071C66.9183 104.595 67.0369 103.855 66.9441 102.851L66.5715 98.8173L67.7401 98.7094L68.752 109.663L67.5833 109.771L67.2771 106.456C67.2402 106.057 67.2284 105.724 67.2417 105.458L67.1713 105.464C66.9756 105.856 66.6763 106.177 66.2734 106.428C65.8662 106.683 65.3905 106.836 64.846 106.886C63.9027 106.973 63.1756 106.813 62.6646 106.406C62.1494 106.004 61.8467 105.315 61.7566 104.339L61.2916 99.305L62.4602 99.1971Z" fill="#7E9EB1"/>
<path d="M43.7595 105.601C44.8352 105.966 45.8074 105.895 46.676 105.388C47.5386 104.884 48.1811 104.01 48.6034 102.764C49.0378 101.483 49.0748 100.391 48.7144 99.4873C48.3479 98.5866 47.609 97.9479 46.4976 97.5709C45.8147 97.3394 44.9942 97.198 44.0361 97.1468L44.3744 96.1492C45.1391 96.1248 46.0191 96.2814 47.0145 96.619C48.4562 97.1079 49.4215 97.923 49.9104 99.0643C50.3949 100.204 50.3639 101.58 49.8174 103.191C49.4753 104.2 48.9881 105.02 48.3559 105.651C47.7191 106.282 46.9763 106.682 46.1273 106.852C45.2739 107.02 44.3651 106.941 43.401 106.614C42.3744 106.266 41.5408 105.774 40.9003 105.139L41.7138 104.325C42.3367 104.924 43.0186 105.349 43.7595 105.601Z" fill="#7E9EB1"/>
<path d="M37.837 101.243L36.7846 100.553L37.7885 95.9275C38.0301 94.8799 38.2363 94.1443 38.4069 93.7207L38.3596 93.6897C38.1766 93.8571 37.8453 94.1303 37.3658 94.5091C36.8798 94.8893 35.3618 96.0356 32.8116 97.9481L31.7592 97.258L39.3817 91.7053C40.1357 91.157 40.7975 90.8526 41.367 90.792C41.9351 90.7249 42.4872 90.8671 43.0232 91.2186C43.3228 91.415 43.5964 91.6423 43.8442 91.9006L43.3286 92.6869C43.1428 92.4975 42.9159 92.3149 42.6479 92.1391C41.9739 91.6972 41.245 91.7603 40.461 92.3285L39.4957 93.0143L37.837 101.243Z" fill="#7E9EB1"/>
<path d="M32.7188 87.6733L33.561 88.4906L25.9 96.3851L25.0578 95.5678L32.7188 87.6733Z" fill="#7E9EB1"/>
<path d="M28.9002 83.2938L29.6143 84.225L23.4657 88.9403L22.7516 88.0091L28.9002 83.2938ZM21.8598 90.2966C21.6466 90.4601 21.4512 90.5268 21.2737 90.4967C21.0924 90.4694 20.9415 90.3772 20.8211 90.2201C20.7063 90.0705 20.6579 89.9028 20.6757 89.7169C20.6935 89.531 20.8071 89.3577 21.0165 89.1971C21.226 89.0365 21.4246 88.9702 21.6125 88.9984C21.7967 89.0294 21.9461 89.1197 22.0609 89.2693C22.1813 89.4264 22.2312 89.596 22.2106 89.7782C22.1861 89.9632 22.0692 90.136 21.8598 90.2966Z" fill="#7E9EB1"/>
<path d="M22.3047 70.6125L17.6445 72.5341C17.0737 72.7694 16.697 73.0675 16.5144 73.4283C16.3274 73.7909 16.3399 74.2293 16.5519 74.7434C16.8304 75.4188 17.23 75.8378 17.7508 76.0003C18.2715 76.1628 18.935 76.0779 19.7411 75.7456L23.7411 74.0962L24.1885 75.1812L19.5283 77.1027C18.9575 77.3381 18.5808 77.6362 18.3982 77.9969C18.2112 78.3595 18.2246 78.8001 18.4384 79.3186C18.7187 79.9984 19.1292 80.4128 19.6699 80.562C20.2045 80.7087 20.9359 80.5906 21.864 80.208L25.6222 78.6584L26.0696 79.7433L18.9061 82.697L18.5423 81.8147L19.4499 81.2339L19.4284 81.1817C18.9953 81.1206 18.6044 80.9453 18.2556 80.6558C17.905 80.3619 17.6345 79.984 17.4441 79.5221C16.9823 78.4023 17.0857 77.5032 17.7543 76.8248L17.7327 76.7725C17.2699 76.7135 16.8461 76.5263 16.4611 76.2109C16.0762 75.8955 15.7768 75.4785 15.563 74.96C15.2288 74.1495 15.1882 73.4576 15.4413 72.8843C15.6881 72.3084 16.2691 71.8318 17.1841 71.4545L21.8573 69.5276L22.3047 70.6125Z" fill="#7E9EB1"/>
<path d="M21.2072 64.0811L21.357 65.2451L13.6718 66.2338L13.5221 65.0698L21.2072 64.0811ZM11.6019 66.5999C11.3354 66.6342 11.133 66.5937 10.9946 66.4785C10.8516 66.3638 10.7674 66.2083 10.7422 66.012C10.7181 65.825 10.7605 65.6556 10.8692 65.5038C10.978 65.352 11.1633 65.2592 11.4251 65.2256C11.6869 65.1919 11.8919 65.2344 12.0402 65.3531C12.1839 65.4725 12.2678 65.6256 12.2918 65.8126C12.3171 66.0089 12.275 66.1807 12.1656 66.3278C12.0516 66.4755 11.8637 66.5662 11.6019 66.5999Z" fill="#7E9EB1"/>
<path d="M20.1659 56.9426C20.1727 56.7353 20.1651 56.5347 20.1432 56.3406C20.1166 56.1464 20.0887 55.9922 20.0594 55.8781L20.9568 55.9075C21.0138 56.0367 21.0571 56.2268 21.0866 56.4777C21.1209 56.7241 21.1349 56.9461 21.1284 57.144C21.0791 58.642 20.2655 59.365 18.6874 59.3132L14.0804 59.1618L14.0439 60.2711L13.4786 60.2526L13.0275 59.1272L11.3904 58.5782L11.4127 57.8999L13.2074 57.9589L13.2813 55.7119L14.1928 55.7418L14.1189 57.9888L18.6765 58.1386C19.1428 58.1539 19.5045 58.055 19.7614 57.8418C20.0184 57.6286 20.1532 57.3289 20.1659 56.9426Z" fill="#7E9EB1"/>
<path d="M17.942 45.1102C17.4081 44.9097 17.0486 44.6337 16.8634 44.2822C16.6799 43.9262 16.6777 43.51 16.8567 43.0335C17.0307 42.5702 17.3026 42.262 17.6723 42.1089C18.0419 41.9557 18.4981 41.9811 19.0408 42.185C19.5659 42.3822 19.9237 42.6626 20.1144 43.0263C20.3023 43.3838 20.3084 43.7965 20.1327 44.2641C19.9554 44.7363 19.6761 45.0442 19.2948 45.1879C18.9091 45.3301 18.4582 45.3041 17.942 45.1102Z" fill="#7E9EB1"/>
</g>
<defs>
<clipPath id="clip0_3591_3820">
<rect width="120" height="120" fill="white"/>
</clipPath>
</defs>
</svg>
