<svg width="115" height="113" viewBox="0 0 115 113" fill="none" xmlns="http://www.w3.org/2000/svg">
<path opacity="0.7" d="M65 135.156C100.899 135.156 130 106.055 130 70.1562C130 34.2577 100.899 5.15625 65 5.15625C29.1015 5.15625 0 34.2577 0 70.1562C0 106.055 29.1015 135.156 65 135.156Z" fill="#18384B"/>
<path d="M69.5234 84.7955V72.2295C69.0395 72.3481 68.5339 72.4121 68.0134 72.4121H62.8304C62.3098 72.4121 61.8043 72.3481 61.3203 72.2295V84.7955H69.5234Z" fill="#FFAF10"/>
<path d="M64.9531 84.7955V72.4121H62.8304C62.3098 72.4121 61.8043 72.3481 61.3203 72.2295V84.7955H64.9531Z" fill="#EF9614"/>
<path d="M65.4225 66.7975C62.2812 66.7975 59.2727 66.2191 56.4961 65.166V66.3215C56.4961 69.82 59.3323 72.6562 62.831 72.6562H68.014C71.5127 72.6562 74.3489 69.82 74.3489 66.3215V65.166C71.572 66.2191 68.5638 66.7975 65.4225 66.7975Z" fill="#FFCD1E"/>
<path d="M63.7568 66.7413C61.2166 66.5748 58.778 66.0316 56.4961 65.166V66.3215C56.4961 69.82 59.3323 72.6562 62.831 72.6562H68.014C68.3653 72.6562 68.7096 72.6264 69.0452 72.5713C66.172 72.1007 63.9504 69.6981 63.7568 66.7413Z" fill="#FFB21E"/>
<path d="M74.5625 89.5312V85.5469C74.5625 84.9023 74.0352 84.375 73.3906 84.375H57.4531C56.8086 84.375 56.2812 84.9023 56.2812 85.5469V89.5312H74.5625Z" fill="#F19B15"/>
<path d="M63.3125 89.5312V85.5469C63.3125 84.9023 63.8398 84.375 64.4844 84.375H57.4531C56.8086 84.375 56.2812 84.9023 56.2812 85.5469V89.5312H63.3125Z" fill="#E18904"/>
<path d="M87.5703 109.453V90.2344C87.5703 89.5898 87.043 89.0625 86.3984 89.0625H44.4453C43.8008 89.0625 43.2734 89.5898 43.2734 90.2344V109.453H87.5703Z" fill="#A05F33"/>
<path d="M46.9062 109.453V90.2344C46.9062 89.5898 47.4336 89.0625 48.0781 89.0625H44.4453C43.8008 89.0625 43.2734 89.5898 43.2734 90.2344V109.453H46.9062Z" fill="#87502A"/>
<path d="M81.1295 104.297C81.1295 104.941 80.6021 105.469 79.9576 105.469H50.8848C50.2402 105.469 49.7129 104.941 49.7129 104.297V94.4531C49.7129 93.8086 50.2402 93.2812 50.8848 93.2812H79.9576C80.6021 93.2812 81.1295 93.8086 81.1295 94.4531V104.297Z" fill="#293D7C"/>
<path d="M54.395 104.297V94.4531C54.395 93.8086 54.9223 93.2812 55.5669 93.2812H50.8848C50.2402 93.2812 49.7129 93.8086 49.7129 94.4531V104.297C49.7129 104.941 50.2402 105.469 50.8848 105.469H55.5669C54.9223 105.469 54.395 104.941 54.395 104.297Z" fill="#1A2B63"/>
<path d="M92.4922 109.219H38.3516C37.707 109.219 37.1797 109.746 37.1797 110.391V112.582C45.5192 117.303 55.1551 120 65.4219 120C75.6887 120 85.3245 117.303 93.6641 112.582V110.391C93.6641 109.746 93.1367 109.219 92.4922 109.219Z" fill="#BF7E52"/>
<path d="M44.3281 110.391C44.3281 109.746 44.8555 109.219 45.5 109.219H38.3516C37.707 109.219 37.1797 109.746 37.1797 110.391V112.582C39.4693 113.878 41.8569 115.021 44.3281 115.998V110.391Z" fill="#AA6B3F"/>
<path d="M104.856 5.99805H95.7728V7.96891C95.7728 8.48594 95.3523 8.90641 94.8353 8.90641H90.9023C90.7727 8.90641 90.6679 9.01141 90.6679 9.14078V11.8574H102.954C102.452 22.1237 97.8107 31.3202 90.6679 37.8102V41.5513C90.6679 42.9126 90.558 44.2485 90.3496 45.5519C101.535 37.6855 108.858 24.6829 108.858 10.0005C108.858 7.79336 107.063 5.99805 104.856 5.99805Z" fill="#FFCD1E"/>
<path d="M40.1752 41.5513V37.8102C33.0326 31.3202 28.3908 22.1237 27.8892 11.8574H40.1752V9.14078C40.1752 9.01141 40.0702 8.90641 39.9408 8.90641H36.0075C35.4905 8.90641 35.07 8.48594 35.07 7.96891V5.99805H25.9868C23.7799 5.99805 21.9844 7.79359 21.9844 10.0005C21.9844 24.6831 29.3084 37.6858 40.4932 45.5521C40.2848 44.2485 40.1752 42.9126 40.1752 41.5513Z" fill="#FFCD1E"/>
<path d="M39.9414 8.90625V41.5512C39.9414 55.6237 51.3496 67.032 65.4222 67.032C79.4948 67.032 90.9032 55.6237 90.9032 41.5512V8.90625H39.9414Z" fill="#F19B15"/>
<path d="M45.0316 41.5515V8.67285H39.9414V41.5515C39.9414 55.624 51.3496 67.0322 65.4222 67.0322C66.2755 67.0322 67.1177 66.987 67.9492 66.9045C55.0802 65.619 45.0316 54.7587 45.0316 41.5515Z" fill="#E18904"/>
<path d="M65.4219 53.7891C75.0006 53.7891 82.7656 46.024 82.7656 36.4453C82.7656 26.8666 75.0006 19.1016 65.4219 19.1016C55.8432 19.1016 48.0781 26.8666 48.0781 36.4453C48.0781 46.024 55.8432 53.7891 65.4219 53.7891Z" fill="#DB722C"/>
<path d="M52.5312 36.4453C52.5312 27.6216 59.1221 20.3423 67.6484 19.2487C66.9191 19.1552 66.177 19.1016 65.4219 19.1016C55.8432 19.1016 48.0781 26.8666 48.0781 36.4453C48.0781 46.024 55.8432 53.7891 65.4219 53.7891C66.177 53.7891 66.9191 53.7354 67.6484 53.6419C59.1221 52.5485 52.5312 45.2691 52.5312 36.4453Z" fill="#C95E23"/>
<path d="M71.4585 47.273C71.1718 47.2732 70.8786 47.1954 70.5873 47.0421L65.8653 44.5598C65.7941 44.5223 65.6352 44.4785 65.4221 44.4785C65.2088 44.4785 65.0499 44.5223 64.9782 44.5598L60.2567 47.0421C59.9652 47.1954 59.672 47.273 59.3856 47.273C58.9506 47.273 58.5613 47.0956 58.2899 46.7735C57.9887 46.4166 57.8743 45.9211 57.9674 45.3785L58.8692 40.121C58.9088 39.8902 58.7628 39.4409 58.5952 39.2773L54.7754 35.5538C54.2781 35.0688 54.0978 34.4679 54.2809 33.9049C54.4639 33.342 54.9629 32.962 55.6501 32.8622L60.9287 32.0953C61.1602 32.0616 61.5427 31.7838 61.6463 31.5738L64.007 26.7902C64.3145 26.1675 64.8301 25.8105 65.4221 25.8105C66.0142 25.8105 66.53 26.1675 66.837 26.7902L69.1979 31.5738C69.3015 31.7838 69.6838 32.0618 69.9153 32.0953L75.1942 32.8622C75.8811 32.962 76.3803 33.342 76.5631 33.9049C76.7462 34.4679 76.5662 35.0688 76.0691 35.5535L72.249 39.2773C72.0812 39.4406 71.9352 39.8902 71.9748 40.121L72.8764 45.3785C72.9695 45.9211 72.8551 46.4166 72.5541 46.7735C72.2825 47.0956 71.8932 47.273 71.4585 47.273Z" fill="#FFCD1E"/>
<path d="M61.8364 44.876L62.8135 39.179C62.8564 38.9289 62.6982 38.4417 62.5166 38.2647L58.3773 34.23C57.8689 33.7343 57.6709 33.1272 57.816 32.5479L55.6501 32.8626C54.9629 32.9625 54.4639 33.3424 54.2809 33.9053C54.0978 34.4683 54.2781 35.0693 54.7754 35.5542L58.5952 39.2777C58.7628 39.4411 58.9088 39.8906 58.8692 40.1214L57.9674 45.3789C57.8745 45.9215 57.9889 46.417 58.2899 46.7739C58.5615 47.096 58.9506 47.2734 59.3856 47.2734C59.6722 47.2734 59.9652 47.1958 60.2567 47.0425L62.0078 46.1219C61.8193 45.7699 61.757 45.3396 61.8364 44.876Z" fill="#FFB21E"/>
<path d="M96.0078 7.96875C96.0078 8.61328 95.4805 9.14062 94.8359 9.14062H36.0078C35.3633 9.14062 34.8359 8.61328 34.8359 7.96875V1.17188C34.8359 0.527344 35.3633 0 36.0078 0H94.8359C95.4805 0 96.0078 0.527344 96.0078 1.17188V7.96875Z" fill="#FFCD1E"/>
<path d="M41.9844 7.96875V1.17188C41.9844 0.527344 42.5117 0 43.1562 0H36.0078C35.3633 0 34.8359 0.527344 34.8359 1.17188V7.96875C34.8359 8.61328 35.3633 9.14062 36.0078 9.14062H43.1562C42.5117 9.14062 41.9844 8.61328 41.9844 7.96875Z" fill="#FFB21E"/>
<path d="M35.1875 77.5779C34.8859 77.5779 34.6177 77.3855 34.5214 77.0998C33.1723 73.1027 32.1627 72.093 28.1659 70.7442C27.8799 70.6477 27.6875 70.3795 27.6875 70.0779C27.6875 69.7762 27.8799 69.5081 28.1656 69.4118C32.1624 68.063 33.1721 67.053 34.5212 63.0562C34.6177 62.7705 34.8856 62.5781 35.1873 62.5781C35.4889 62.5781 35.757 62.7705 35.8534 63.0562C37.2024 67.053 38.2121 68.063 42.2089 69.4118C42.4946 69.5084 42.6873 69.7762 42.6873 70.0779C42.6873 70.3795 42.4948 70.6477 42.2089 70.7442C38.2121 72.093 37.2024 73.1027 35.8534 77.0998C35.7573 77.3855 35.4891 77.5779 35.1875 77.5779Z" fill="#FFCD1E"/>
<path d="M93.4297 69.8438C93.1895 69.8438 92.9755 69.6905 92.8986 69.4629C91.8238 66.2777 91.0189 65.4731 87.834 64.3983C87.6066 64.3212 87.4531 64.1077 87.4531 63.8672C87.4531 63.627 87.6066 63.4132 87.834 63.3363C91.0191 62.2615 91.8238 61.4566 92.8986 58.2717C92.9755 58.0439 93.1892 57.8906 93.4297 57.8906C93.6702 57.8906 93.8834 58.0439 93.9608 58.2717C95.0356 61.4566 95.8405 62.2612 99.0254 63.3363C99.2527 63.4132 99.4062 63.627 99.4062 63.8672C99.4062 64.1077 99.2527 64.3212 99.0254 64.3983C95.8402 65.4734 95.0356 66.2777 93.9608 69.4629C93.8834 69.6905 93.6699 69.8438 93.4297 69.8438Z" fill="white"/>
<path d="M71.75 98.2031H59.0938C58.4466 98.2031 57.9219 97.6784 57.9219 97.0312C57.9219 96.3841 58.4466 95.8594 59.0938 95.8594H71.75C72.3973 95.8594 72.9219 96.3841 72.9219 97.0312C72.9219 97.6784 72.3973 98.2031 71.75 98.2031Z" fill="white"/>
<path d="M68.9375 102.422H61.9062C61.2591 102.422 60.7344 101.897 60.7344 101.25C60.7344 100.603 61.2591 100.078 61.9062 100.078H68.9375C69.5848 100.078 70.1094 100.603 70.1094 101.25C70.1094 101.897 69.5848 102.422 68.9375 102.422Z" fill="white"/>
<path d="M51.125 18.75C50.8988 18.75 50.6977 18.6056 50.6253 18.3914C49.6135 15.3938 48.8562 14.6365 45.8586 13.6247C45.6444 13.5523 45.5 13.3512 45.5 13.125C45.5 12.8988 45.6444 12.6977 45.8586 12.6253C48.8562 11.6137 49.6135 10.8562 50.6253 7.85859C50.6977 7.64437 50.8988 7.5 51.125 7.5C51.3512 7.5 51.5523 7.64437 51.6247 7.85859C52.6365 10.8562 53.3938 11.6135 56.3914 12.6253C56.6056 12.6977 56.75 12.8988 56.75 13.125C56.75 13.3512 56.6056 13.5523 56.3914 13.6247C53.3938 14.6365 52.6365 15.3938 51.6247 18.3914C51.5523 18.6056 51.3512 18.75 51.125 18.75Z" fill="white"/>
</svg>
