<svg width="1440" height="547" viewBox="0 0 1440 547" fill="none" xmlns="http://www.w3.org/2000/svg">
<path d="M720 539C1002.67 539 1257.98 509.796 1440 462.833V0H0V462.833C182.023 509.796 437.329 539 720 539Z" fill="#275D7C"/>
<mask id="mask0_3776_14794" style="mask-type:alpha" maskUnits="userSpaceOnUse" x="0" y="0" width="1440" height="539">
<path d="M720 539C1002.67 539 1257.98 509.796 1440 462.833V0H0V462.833C182.023 509.796 437.329 539 720 539Z" fill="#275D7C"/>
</mask>
<g mask="url(#mask0_3776_14794)">
<g opacity="0.2" filter="url(#filter0_d_3776_14794)">
<circle cx="720.5" cy="586.5" r="262.503" stroke="white" shape-rendering="crispEdges"/>
</g>
<g opacity="0.25" filter="url(#filter1_d_3776_14794)">
<circle cx="720.5" cy="586.5" r="161.387" stroke="white" shape-rendering="crispEdges"/>
</g>
<g opacity="0.15" filter="url(#filter2_d_3776_14794)">
<circle cx="720.5" cy="586.5" r="363.619" stroke="white" shape-rendering="crispEdges"/>
</g>
<g opacity="0.1" filter="url(#filter3_d_3776_14794)">
<circle cx="720.5" cy="586.5" r="463.713" stroke="white" shape-rendering="crispEdges"/>
</g>
<g opacity="0.06" filter="url(#filter4_d_3776_14794)">
<circle cx="720.5" cy="586.5" r="573" stroke="white" shape-rendering="crispEdges"/>
</g>
<path d="M1032.31 100.676C1032.31 100.676 1031.78 100.498 1031.04 100.251C1028.49 99.4003 1026.45 97.3678 1025.6 94.8147C1025.36 94.0743 1025.18 93.5414 1025.18 93.5414C1025.07 93.2181 1024.77 93 1024.43 93C1024.09 93 1023.78 93.2181 1023.68 93.5414C1023.68 93.5414 1023.5 94.0743 1023.25 94.8145C1022.4 97.3678 1020.37 99.4003 1017.81 100.251C1017.07 100.498 1016.54 100.676 1016.54 100.676C1016.22 100.784 1016 101.086 1016 101.427C1016 101.768 1016.22 102.07 1016.54 102.178C1016.54 102.178 1017.07 102.356 1017.81 102.602C1020.37 103.454 1022.4 105.486 1023.25 108.039C1023.5 108.78 1023.68 109.312 1023.68 109.312C1023.78 109.636 1024.09 109.854 1024.43 109.854H1024.43C1024.77 109.854 1025.07 109.636 1025.18 109.313C1025.18 109.313 1025.36 108.78 1025.6 108.039C1026.45 105.486 1028.49 103.454 1031.04 102.603C1031.78 102.356 1032.31 102.178 1032.31 102.178C1032.64 102.07 1032.85 101.768 1032.85 101.427C1032.85 101.086 1032.64 100.784 1032.31 100.676V100.676Z" fill="#F7D058"/>
<path d="M401.125 430.529C401.125 430.529 400.533 430.331 399.71 430.057C396.873 429.111 394.615 426.853 393.669 424.016C393.396 423.194 393.198 422.602 393.198 422.602C393.078 422.242 392.742 422 392.363 422C391.984 422 391.648 422.242 391.528 422.602C391.528 422.602 391.331 423.194 391.057 424.016C390.111 426.853 387.853 429.111 385.016 430.057C384.194 430.331 383.602 430.529 383.602 430.529C383.242 430.648 383 430.985 383 431.363C383 431.742 383.242 432.078 383.602 432.198C383.602 432.198 384.194 432.396 385.016 432.669C387.853 433.615 390.111 435.873 391.057 438.71C391.331 439.533 391.528 440.125 391.528 440.125C391.648 440.484 391.984 440.727 392.363 440.727H392.363C392.742 440.727 393.078 440.484 393.198 440.125C393.198 440.125 393.396 439.533 393.669 438.71C394.615 435.873 396.873 433.615 399.71 432.669C400.533 432.396 401.125 432.198 401.125 432.198C401.484 432.078 401.727 431.742 401.727 431.363C401.727 430.985 401.484 430.648 401.125 430.529V430.529Z" fill="#F7D058"/>
<path d="M973.375 482.94C973.375 482.94 972.546 482.663 971.395 482.28C967.423 480.956 964.261 477.794 962.937 473.823C962.554 472.671 962.277 471.842 962.277 471.842C962.109 471.339 961.639 471 961.108 471C960.578 471 960.108 471.339 959.94 471.842C959.94 471.842 959.663 472.671 959.28 473.823C957.956 477.794 954.794 480.956 950.823 482.28C949.671 482.663 948.842 482.94 948.842 482.94C948.339 483.108 948 483.578 948 484.109C948 484.639 948.339 485.11 948.842 485.277C948.842 485.277 949.671 485.554 950.822 485.937C954.794 487.261 957.956 490.423 959.28 494.394C959.663 495.546 959.94 496.375 959.94 496.375C960.108 496.878 960.578 497.217 961.108 497.217H961.109C961.639 497.217 962.109 496.878 962.277 496.375C962.277 496.375 962.554 495.546 962.937 494.395C964.261 490.423 967.423 487.261 971.394 485.937C972.546 485.554 973.375 485.277 973.375 485.277C973.878 485.11 974.217 484.639 974.217 484.109C974.217 483.578 973.878 483.108 973.375 482.94V482.94Z" fill="white"/>
<path d="M1108.31 320.676C1108.31 320.676 1107.78 320.498 1107.04 320.251C1104.49 319.4 1102.45 317.368 1101.6 314.815C1101.36 314.074 1101.18 313.541 1101.18 313.541C1101.07 313.218 1100.77 313 1100.43 313C1100.09 313 1099.78 313.218 1099.68 313.541C1099.68 313.541 1099.5 314.074 1099.25 314.814C1098.4 317.368 1096.37 319.4 1093.81 320.251C1093.07 320.498 1092.54 320.676 1092.54 320.676C1092.22 320.784 1092 321.086 1092 321.427C1092 321.768 1092.22 322.07 1092.54 322.178C1092.54 322.178 1093.07 322.356 1093.81 322.602C1096.37 323.454 1098.4 325.486 1099.25 328.039C1099.5 328.78 1099.68 329.312 1099.68 329.312C1099.78 329.636 1100.09 329.854 1100.43 329.854H1100.43C1100.77 329.854 1101.07 329.636 1101.18 329.313C1101.18 329.313 1101.36 328.78 1101.6 328.039C1102.45 325.486 1104.49 323.454 1107.04 322.603C1107.78 322.356 1108.31 322.178 1108.31 322.178C1108.64 322.07 1108.85 321.768 1108.85 321.427C1108.85 321.086 1108.64 320.784 1108.31 320.676V320.676Z" fill="#B1C5D0"/>
<path d="M276.75 238.234C276.75 238.234 276.039 237.997 275.052 237.669C271.648 236.534 268.938 233.824 267.803 230.42C267.475 229.432 267.238 228.722 267.238 228.722C267.094 228.291 266.69 228 266.236 228C265.781 228 265.378 228.291 265.234 228.722C265.234 228.722 264.997 229.432 264.668 230.419C263.534 233.824 260.824 236.534 257.42 237.668C256.432 237.997 255.722 238.234 255.722 238.234C255.291 238.378 255 238.782 255 239.236C255 239.69 255.291 240.094 255.722 240.238C255.722 240.238 256.432 240.475 257.419 240.803C260.824 241.938 263.534 244.648 264.668 248.052C264.997 249.039 265.234 249.75 265.234 249.75C265.378 250.181 265.781 250.472 266.236 250.472H266.236C266.69 250.472 267.094 250.181 267.238 249.75C267.238 249.75 267.475 249.039 267.803 248.053C268.938 244.648 271.648 241.938 275.052 240.803C276.039 240.475 276.75 240.238 276.75 240.238C277.181 240.094 277.472 239.69 277.472 239.236C277.472 238.781 277.181 238.378 276.75 238.234V238.234Z" fill="white"/>
</g>
<defs>
<filter id="filter0_d_3776_14794" x="453.497" y="323.497" width="534.006" height="534.006" filterUnits="userSpaceOnUse" color-interpolation-filters="sRGB">
<feFlood flood-opacity="0" result="BackgroundImageFix"/>
<feColorMatrix in="SourceAlpha" type="matrix" values="0 0 0 0 0 0 0 0 0 0 0 0 0 0 0 0 0 0 127 0" result="hardAlpha"/>
<feOffset dy="4"/>
<feGaussianBlur stdDeviation="2"/>
<feComposite in2="hardAlpha" operator="out"/>
<feColorMatrix type="matrix" values="0 0 0 0 0 0 0 0 0 0 0 0 0 0 0 0 0 0 0.25 0"/>
<feBlend mode="normal" in2="BackgroundImageFix" result="effect1_dropShadow_3776_14794"/>
<feBlend mode="normal" in="SourceGraphic" in2="effect1_dropShadow_3776_14794" result="shape"/>
</filter>
<filter id="filter1_d_3776_14794" x="554.613" y="424.612" width="331.775" height="331.775" filterUnits="userSpaceOnUse" color-interpolation-filters="sRGB">
<feFlood flood-opacity="0" result="BackgroundImageFix"/>
<feColorMatrix in="SourceAlpha" type="matrix" values="0 0 0 0 0 0 0 0 0 0 0 0 0 0 0 0 0 0 127 0" result="hardAlpha"/>
<feOffset dy="4"/>
<feGaussianBlur stdDeviation="2"/>
<feComposite in2="hardAlpha" operator="out"/>
<feColorMatrix type="matrix" values="0 0 0 0 0 0 0 0 0 0 0 0 0 0 0 0 0 0 0.25 0"/>
<feBlend mode="normal" in2="BackgroundImageFix" result="effect1_dropShadow_3776_14794"/>
<feBlend mode="normal" in="SourceGraphic" in2="effect1_dropShadow_3776_14794" result="shape"/>
</filter>
<filter id="filter2_d_3776_14794" x="352.381" y="222.381" width="736.238" height="736.238" filterUnits="userSpaceOnUse" color-interpolation-filters="sRGB">
<feFlood flood-opacity="0" result="BackgroundImageFix"/>
<feColorMatrix in="SourceAlpha" type="matrix" values="0 0 0 0 0 0 0 0 0 0 0 0 0 0 0 0 0 0 127 0" result="hardAlpha"/>
<feOffset dy="4"/>
<feGaussianBlur stdDeviation="2"/>
<feComposite in2="hardAlpha" operator="out"/>
<feColorMatrix type="matrix" values="0 0 0 0 0 0 0 0 0 0 0 0 0 0 0 0 0 0 0.25 0"/>
<feBlend mode="normal" in2="BackgroundImageFix" result="effect1_dropShadow_3776_14794"/>
<feBlend mode="normal" in="SourceGraphic" in2="effect1_dropShadow_3776_14794" result="shape"/>
</filter>
<filter id="filter3_d_3776_14794" x="252.287" y="122.287" width="936.427" height="936.427" filterUnits="userSpaceOnUse" color-interpolation-filters="sRGB">
<feFlood flood-opacity="0" result="BackgroundImageFix"/>
<feColorMatrix in="SourceAlpha" type="matrix" values="0 0 0 0 0 0 0 0 0 0 0 0 0 0 0 0 0 0 127 0" result="hardAlpha"/>
<feOffset dy="4"/>
<feGaussianBlur stdDeviation="2"/>
<feComposite in2="hardAlpha" operator="out"/>
<feColorMatrix type="matrix" values="0 0 0 0 0 0 0 0 0 0 0 0 0 0 0 0 0 0 0.25 0"/>
<feBlend mode="normal" in2="BackgroundImageFix" result="effect1_dropShadow_3776_14794"/>
<feBlend mode="normal" in="SourceGraphic" in2="effect1_dropShadow_3776_14794" result="shape"/>
</filter>
<filter id="filter4_d_3776_14794" x="143" y="13" width="1155" height="1155" filterUnits="userSpaceOnUse" color-interpolation-filters="sRGB">
<feFlood flood-opacity="0" result="BackgroundImageFix"/>
<feColorMatrix in="SourceAlpha" type="matrix" values="0 0 0 0 0 0 0 0 0 0 0 0 0 0 0 0 0 0 127 0" result="hardAlpha"/>
<feOffset dy="4"/>
<feGaussianBlur stdDeviation="2"/>
<feComposite in2="hardAlpha" operator="out"/>
<feColorMatrix type="matrix" values="0 0 0 0 0 0 0 0 0 0 0 0 0 0 0 0 0 0 0.25 0"/>
<feBlend mode="normal" in2="BackgroundImageFix" result="effect1_dropShadow_3776_14794"/>
<feBlend mode="normal" in="SourceGraphic" in2="effect1_dropShadow_3776_14794" result="shape"/>
</filter>
</defs>
</svg>
