<svg width="184" height="207" viewBox="0 0 184 207" fill="none" xmlns="http://www.w3.org/2000/svg">
<g clip-path="url(#clip0_3834_19353)">
<g filter="url(#filter0_f_3834_19353)">
<path d="M171.011 193.761C168.58 193.208 166.116 192.817 163.634 192.589C161.424 192.301 158.812 192.166 155.949 192.051C154.547 191.936 153.106 192.051 151.646 192.051C150.186 192.051 148.687 192.051 147.189 192.051C145.69 192.051 144.211 192.224 142.751 192.359C141.291 192.493 139.831 192.551 138.448 192.743C135.662 193.165 133.068 193.53 130.859 193.972C126.46 195.067 123.617 195.893 123.617 195.893C123.406 195.981 123.232 196.137 123.122 196.337C123.013 196.538 122.976 196.769 123.016 196.993C123.056 197.218 123.172 197.421 123.344 197.571C123.516 197.72 123.735 197.806 123.962 197.815H124.058C124.058 197.815 127.017 197.661 131.339 197.161C132.415 197.046 133.606 197.046 134.855 196.969L138.793 196.72C140.138 196.604 141.56 196.623 143.001 196.566C144.442 196.508 145.882 196.451 147.342 196.374C150.262 196.374 153.106 196.258 155.93 196.22C157.294 196.22 158.619 196.22 159.887 196.105L163.422 196.009C165.632 195.913 167.476 195.836 168.763 195.74L170.799 195.605C170.931 195.596 171.059 195.56 171.176 195.501C171.294 195.441 171.398 195.359 171.484 195.259C171.57 195.159 171.635 195.043 171.676 194.918C171.716 194.793 171.732 194.661 171.721 194.529C171.71 194.316 171.628 194.112 171.489 193.949C171.351 193.785 171.162 193.672 170.953 193.627L171.011 193.761Z" fill="#9CA3AF"/>
</g>
<g filter="url(#filter1_f_3834_19353)">
<path d="M64.0106 193.761C61.5801 193.208 59.1157 192.817 56.6335 192.589C54.4242 192.301 51.8115 192.166 48.949 192.051C47.5466 191.936 46.1058 192.051 44.6457 192.051C43.1857 192.051 41.6872 192.051 40.1887 192.051C38.6902 192.051 37.211 192.224 35.7509 192.359C34.2909 192.493 32.8308 192.551 31.4476 192.743C28.662 193.165 26.0685 193.53 23.8592 193.972C19.4598 195.067 16.6165 195.893 16.6165 195.893C16.406 195.981 16.2316 196.137 16.1224 196.337C16.0131 196.538 15.9756 196.769 16.016 196.993C16.0563 197.218 16.1722 197.421 16.3443 197.571C16.5165 197.72 16.7346 197.806 16.9623 197.815H17.0584C17.0584 197.815 20.0169 197.661 24.3394 197.161C25.4153 197.046 26.6063 197.046 27.8551 196.969L31.7934 196.72C33.1382 196.604 34.5598 196.623 36.0007 196.566C37.4415 196.508 38.8823 196.451 40.3424 196.374C43.2625 196.374 46.1057 196.258 48.9298 196.22C50.2938 196.22 51.6194 196.22 52.8873 196.105L56.4222 196.009C58.6315 195.913 60.4758 195.836 61.7629 195.74L63.7993 195.605C63.9307 195.596 64.0587 195.56 64.1763 195.501C64.2938 195.441 64.3984 195.359 64.4841 195.259C64.5698 195.159 64.6349 195.043 64.6756 194.918C64.7164 194.793 64.7319 194.661 64.7214 194.529C64.7096 194.316 64.6281 194.112 64.4893 193.949C64.3505 193.785 64.1622 193.672 63.953 193.627L64.0106 193.761Z" fill="#9CA3AF"/>
</g>
<path d="M85.769 160.505C86.0398 160.711 105.371 161.908 105.371 161.908L105.089 166.358L85.8033 165.224L85.769 160.505Z" fill="url(#paint0_linear_3834_19353)"/>
<path d="M55.9366 186.382C61.2662 182.311 65.2747 176.757 67.4588 170.416C69.643 164.075 69.9055 157.23 68.2136 150.741C66.5216 144.251 62.9505 138.406 57.9484 133.939C52.9464 129.472 46.7362 126.581 40.0974 125.631C33.4586 124.68 26.687 125.712 20.6323 128.596C14.5777 131.48 9.50983 136.088 6.06481 141.842C2.61979 147.596 0.951089 154.24 1.26817 160.939C1.58525 167.638 3.87398 174.094 7.84709 179.497C13.3171 186.779 21.4524 191.593 30.468 192.884C39.4836 194.175 48.643 191.837 55.9366 186.382ZM17.6478 134.272C22.5869 130.811 28.4373 128.886 34.4661 128.735C40.4948 128.585 46.4338 130.217 51.5392 133.427C56.6445 136.637 60.6892 141.282 63.1665 146.781C65.6438 152.279 66.4435 158.386 65.4656 164.337C64.4877 170.288 61.7755 175.818 57.6689 180.234C53.5623 184.65 48.2437 187.757 42.3796 189.164C36.5155 190.571 30.3665 190.217 24.7029 188.145C19.0392 186.073 14.1129 182.377 10.5409 177.518C5.75306 170.839 3.81227 162.533 5.14484 154.424C6.47742 146.315 10.9744 139.067 17.6478 134.272V134.272Z" fill="url(#paint1_linear_3834_19353)"/>
<path d="M82.4701 160.783C89.8702 155.346 109.787 139.949 141.834 114.781C141.924 114.712 141.998 114.626 142.054 114.528C142.11 114.43 142.145 114.322 142.159 114.21C142.172 114.098 142.163 113.985 142.131 113.877C142.1 113.768 142.048 113.667 141.977 113.58C141.911 113.49 141.828 113.415 141.732 113.359C141.636 113.303 141.53 113.267 141.42 113.254C141.309 113.241 141.198 113.251 141.092 113.284C140.985 113.316 140.887 113.369 140.802 113.441C118.293 131.053 84.8968 157.045 79.441 160.911C77.7131 155.315 71.0494 121.782 66.763 99.3038C66.7419 99.1941 66.6994 99.0896 66.6379 98.9964C66.5764 98.9031 66.4971 98.8229 66.4046 98.7602C66.3121 98.6976 66.2082 98.6538 66.0988 98.6313C65.9893 98.6088 65.8765 98.6081 65.7668 98.6293C65.6571 98.6504 65.5526 98.6929 65.4594 98.7544C65.3661 98.8159 65.2858 98.8952 65.2232 98.9877C65.1606 99.0802 65.1168 99.1841 65.0943 99.2936C65.0719 99.403 65.0712 99.5158 65.0923 99.6255C65.1833 99.7494 68.1445 115.525 71.2696 131.037C77.7204 163.177 78.1324 163.088 79.1785 162.987C80.3342 162.344 81.4351 161.607 82.4701 160.783Z" fill="url(#paint2_linear_3834_19353)"/>
<path d="M73.2764 96.8775C74.2649 94.8162 68.7382 94.5621 61.1956 94.5494C53.653 94.5368 49.3715 96.2046 51.4045 97.7385C53.4374 99.2724 61.3087 101.809 64.903 100.861C68.4973 99.9122 72.6527 98.1701 73.2764 96.8775Z" fill="url(#paint3_linear_3834_19353)"/>
<path d="M149.698 90.6705C149.365 90.2233 148.906 89.8848 148.381 89.6977C147.856 89.5106 147.286 89.4833 146.746 89.6191C146.205 89.755 145.716 90.048 145.341 90.4611C144.967 90.8743 144.723 91.3892 144.64 91.9407C144.558 92.4923 144.641 93.056 144.878 93.5606C145.116 94.0652 145.497 94.4883 145.975 94.7764C146.452 95.0644 147.005 95.2046 147.562 95.1792C148.119 95.1539 148.656 94.9642 149.106 94.6339C149.406 94.4134 149.659 94.1356 149.852 93.8167C150.044 93.4977 150.171 93.1439 150.227 92.7755C150.282 92.4071 150.263 92.0314 150.172 91.6702C150.082 91.3089 149.92 90.9692 149.698 90.6705V90.6705Z" fill="url(#paint4_linear_3834_19353)"/>
<path d="M148.453 69.9625C148.816 71.722 149.837 76.0971 150.866 79.3463C151.894 82.5956 154.599 89.2619 154.684 89.6047C154.684 89.6047 153.453 87.4101 152.312 85.7928C150.407 83.0103 148.831 80.0163 147.616 76.8706C146.892 74.3275 146.022 70.2229 146.022 70.2229C146.022 70.2229 148.059 68.2257 148.453 69.9625Z" fill="url(#paint5_linear_3834_19353)"/>
<path d="M78.6241 24.3387L78.8873 24.1453C80.437 23.6265 81.9476 23.184 83.4345 22.8067C83.753 23.2402 84.3537 23.8955 84.8096 24.4187C87.4368 24.1333 90.4719 23.7865 93.9345 23.3403L91.9672 21.3767C91.9306 21.3087 91.8847 21.2461 91.8307 21.1909C97.0472 20.594 102.306 20.4554 107.547 20.7766C116.329 21.2172 124.883 23.7306 132.508 28.1112C133.375 28.6423 134.07 29.0372 134.735 29.4549C134.926 29.5528 135.113 29.6776 135.316 29.791C136.694 25.1783 132.387 14.9689 125.791 9.39785C119.75 4.09983 112.173 0.871033 104.168 0.182581C103.838 0.136992 103.506 0.118293 103.173 0.126689C102.094 0.0853441 101.006 0.0977177 99.8991 0.148318C94.8522 0.223881 89.919 1.65803 85.6183 4.29998C84.5473 5.00717 83.5347 5.799 82.5902 6.6679C81.8291 7.37806 81.1084 8.13042 80.4317 8.92141C76.2821 13.5915 77.1981 22.4304 78.6241 24.3387Z" fill="url(#paint6_linear_3834_19353)"/>
<path d="M141.832 38.6626C144.204 42.1569 145.773 46.1323 146.428 50.3042C146.985 56.1886 147.323 62.8778 147.734 65.2218C148.145 67.5659 148.517 70.0825 148.517 70.0825L146.056 70.2697C145.876 69.7338 144.468 65.2858 143.122 60.2429C141.611 54.9408 141.768 46.0048 141.877 39.5353C141.884 39.2202 141.841 38.9662 141.832 38.6626Z" fill="url(#paint7_linear_3834_19353)"/>
<path d="M145.898 49.2886C146.395 49.4173 146.913 49.4497 147.422 49.3843L148.324 49.1511L148.525 49.0032C149.222 48.7216 149.852 48.2987 150.378 47.7611C150.95 47.3402 153.311 48.8004 153.311 48.8004C153.179 47.5922 153.204 46.3719 153.385 45.1701C153.722 43.5361 154.59 42.0597 155.854 40.9715C153.792 40.6057 151.867 39.6893 150.282 38.3193C149.646 37.7136 149.11 37.1781 148.677 36.6858C148.049 36.0417 147.475 35.3472 146.96 34.6094L146.744 34.7687C146.376 34.9669 146.021 35.188 145.68 35.4306C144.736 36.1198 143.911 36.9594 143.239 37.9158C142.455 39.1833 141.99 40.6215 141.882 42.1077C141.775 43.594 142.028 45.0843 142.621 46.4514C142.919 47.1401 143.368 47.7527 143.936 48.2439C144.503 48.7351 145.173 49.0922 145.898 49.2886V49.2886Z" fill="url(#paint8_linear_3834_19353)"/>
<path d="M140.354 21.3688L140.434 21.4772C140.634 23.3936 141.193 25.2552 142.082 26.965C143.213 28.9953 144.524 30.9204 145.998 32.7172C145.875 33.1655 143.413 37.3104 142.359 37.1079C140.294 35.7677 138.789 33.7198 138.127 31.3488C137.508 29.1102 138.465 22.3992 140.354 21.3688Z" fill="#111827"/>
<path opacity="0.71" d="M83.3828 58.8184C83.0326 59.1837 82.7185 59.5821 82.4451 60.008C82.711 59.5768 83.0257 59.1776 83.3828 58.8184V58.8184ZM82.0657 60.6921L81.9399 60.9752L82.0657 60.6921Z" fill="#EB9C39"/>
<path d="M58.4301 77.2239C55.9059 70.544 51.4234 57.0783 56.448 45.8771C58.1527 41.7731 60.6418 38.0411 63.7759 34.8905L63.8836 35.2643C64.752 37.4223 65.8901 39.4618 67.2707 41.3341L67.6574 41.8604C69.4168 44.3862 71.4666 46.6967 73.7646 48.7446C74.7543 49.5905 75.8021 50.366 76.9002 51.0655C77.1369 51.2253 77.3622 51.3697 77.6143 51.5182C78.4317 52.0142 79.2801 52.4875 80.0829 52.8989C82.2205 54.0085 84.4353 54.9625 86.71 55.7536L87.0623 55.8762L86.274 56.7176L86.5015 57.0272C89.876 62.0738 92.9862 67.2923 95.8195 72.6614C100.655 81.8385 100.913 86.0831 100.913 86.0831C100.913 86.0831 98.2305 86.5524 94.6422 87.2818L93.7914 87.4541C93.7495 87.4717 93.7123 87.499 93.683 87.5337C90.203 88.1835 86.149 88.9928 83.1102 89.7237L81.8236 90.0493C80.2252 90.437 78.7765 90.8339 77.4394 91.2204C75.459 91.7696 73.7554 92.3061 72.314 92.7454C70.8726 93.1846 69.3383 93.6922 68.8457 93.768C67.7231 93.83 60.9542 83.9038 58.4301 77.2239Z" fill="url(#paint9_linear_3834_19353)"/>
<path d="M88.0604 143.182L88.2825 143.257C88.8373 143.493 89.8632 143.884 91.0307 144.337C93.9628 145.472 97.8413 146.89 97.8413 146.89C100.046 136.639 101.387 126.22 101.848 115.744C102.524 99.2745 100.604 91.3402 99.1279 86.3459C98.0212 86.4899 96.9262 86.7129 95.8514 87.013C95.3206 87.1347 94.7835 87.2269 94.2426 87.2892C95.811 90.1825 96.6859 93.4005 96.7982 96.6897C96.9106 99.9788 96.2574 103.249 94.8901 106.243C92.9286 110.708 90.4028 114.903 87.3746 118.726C86.2625 122.778 85.679 126.957 85.6387 131.158C85.7763 135.272 86.5946 139.335 88.0604 143.182V143.182Z" fill="url(#paint10_linear_3834_19353)"/>
<path d="M92.2301 153.302C92.691 153.367 93.1434 153.482 93.5793 153.646V153.646C94.7281 154.041 96.0362 154.653 96.0362 154.653C96.4554 153.439 97.7674 147.016 97.787 146.978C97.8065 146.94 94.1306 145.636 91.2781 144.609L88.2581 143.419L87.9936 143.351C87.9936 143.351 88.7767 145.779 90.0416 148.831C91.3627 151.245 92.2074 153.271 92.2301 153.302Z" fill="url(#paint11_linear_3834_19353)"/>
<path d="M52.7357 149.256C52.9834 149.074 53.7303 149.312 54.6757 149.69C56.0303 150.272 57.3356 150.963 58.5785 151.757C58.6581 151.865 58.7605 152.005 58.9485 152.033C60.0647 150.665 63.541 146.084 63.541 146.084C63.541 146.084 60.8767 143.107 58.7632 140.393C57.9148 139.363 57.1495 138.267 56.4745 137.116V137.116C56.4745 137.116 55.0636 140.322 54.0511 143.259C53.1116 146.977 52.7357 149.256 52.7357 149.256Z" fill="url(#paint12_linear_3834_19353)"/>
<path d="M149.197 96.283C151.209 96.8792 154.499 93.9605 155.135 92.23C155.771 90.4995 153.071 86.8572 150.415 82.5622C148.452 78.7993 147.017 74.7833 146.152 70.6279C146.152 70.6279 146.152 70.6279 146.152 70.6279C143.961 72.5912 141.56 74.3072 138.994 75.7449C138.401 76.0521 137.775 76.2884 137.127 76.4489C139.548 80.1335 142.16 83.6888 144.953 87.1002C145.982 88.5859 147.478 89.6852 149.203 90.2236C150.513 90.2864 149.554 91.6103 149.276 92.9831C148.997 94.356 146.955 93.7826 146.41 94.1115C146.361 94.1316 146.322 94.1689 146.299 94.2162C146.277 94.2636 146.273 94.3176 146.288 94.3678C146.979 95.3533 148.019 96.0383 149.197 96.283V96.283Z" fill="url(#paint13_linear_3834_19353)"/>
<path opacity="0.71" d="M142.297 72.3875C143.005 71.8553 143.745 71.3672 144.513 70.926C143.595 71.465 142.71 72.0594 141.863 72.706L142.297 72.3875Z" fill="#E78103"/>
<path d="M107.546 20.7769C116.329 21.2175 124.882 23.7309 132.507 28.1115C133.626 28.7911 134.421 29.2561 135.315 29.7913C139.849 32.491 141.764 33.8969 141.821 38.6467C141.83 38.9504 141.874 39.2044 141.867 39.5194C141.819 45.9435 141.662 54.8794 143.112 60.227C144.442 65.2813 145.866 69.718 146.045 70.2538C146.072 70.3661 146.106 70.4767 146.145 70.5852V70.5852C143.903 72.5984 141.436 74.3469 138.794 75.7964C138.272 76.0582 137.72 76.2554 137.151 76.3835C135.366 72.8602 133.81 69.2255 132.493 65.5021C131.437 61.9874 129.177 53.0392 128.896 51.0999C128.668 49.7182 128.502 49.0057 127.479 49.4952C126.687 48.8337 125.859 48.2163 124.999 47.6456V47.6456C120.232 44.4019 110.709 38.2872 107.104 35.6197C102.487 31.8165 98.1095 27.7325 93.9948 23.3911L92.0276 21.4275C91.991 21.3595 91.945 21.2969 91.8911 21.2417C97.0858 20.6315 102.324 20.476 107.546 20.7769V20.7769ZM63.9656 35.1805C63.9234 35.0578 63.8874 34.933 63.8579 34.8067C65.399 32.6007 67.3016 30.6707 69.4855 29.0984C72.2762 27.0191 75.377 25.3924 78.674 24.278L78.9372 24.0846C80.4869 23.5658 81.9975 23.1234 83.4844 22.7461C83.8029 23.1795 84.4036 23.8348 84.8595 24.358C90.2115 30.4293 96.3396 35.7695 103.086 40.2411C108.853 43.8254 114.938 46.8718 121.263 49.3419C122.859 49.957 124.215 50.4391 125.238 50.7604C122.559 52.7283 118.754 55.2384 115.844 53.4192C112.934 51.6 108.455 47.5484 100.073 50.417C95.6431 51.8873 91.3154 53.6496 87.1184 55.6922V55.6922C84.7207 54.8685 82.389 53.8642 80.1432 52.688C77.8968 51.5453 75.7863 50.1531 73.8516 48.5379C69.6401 44.8548 66.2541 40.3238 63.915 35.2415L63.9656 35.1805Z" fill="url(#paint14_linear_3834_19353)"/>
<path d="M150.282 38.3187C151.867 39.6887 153.792 40.6051 155.854 40.9709C156.482 40.9064 157.095 40.7452 157.673 40.4931C159.142 39.973 160.386 38.9584 161.19 37.6228C162.201 35.4066 162.498 32.9305 162.039 30.538C161.897 29.6259 161.656 28.732 161.32 27.872C160.826 26.1191 159.907 24.5147 158.646 23.2004C157.386 21.886 155.821 20.902 154.09 20.3351C150.284 18.9836 145.009 17.7098 143.892 16.8381C143.537 16.5503 143.168 16.1778 142.818 15.8631C142.223 15.3463 141.701 14.9915 141.321 15.3182C141.219 15.422 141.139 15.5454 141.087 15.6809C140.516 17.5606 140.29 19.5278 140.419 21.4879C140.443 22.8018 140.676 24.1035 141.107 25.3448C142.76 28.5154 144.668 31.5463 146.812 34.4076L147.017 34.6862C147.976 36.0072 149.07 37.2246 150.282 38.3187V38.3187Z" fill="url(#paint15_linear_3834_19353)"/>
<path d="M63.2259 52.5065C68.7777 56.4612 72.7562 55.5166 75.481 53.5146C76.2709 52.919 76.9961 52.2423 77.6449 51.4955C77.3928 51.347 77.1675 51.2026 76.9308 51.0428C74.4434 53.9194 70.421 56.5888 63.7168 51.8121C63.6713 51.7795 63.6199 51.7563 63.5653 51.7437C63.5108 51.7312 63.4543 51.7296 63.3992 51.7391C63.344 51.7486 63.2913 51.7689 63.2441 51.7989C63.1969 51.8289 63.1561 51.8679 63.1241 51.9138C63.0631 52.0072 63.0397 52.1202 63.0586 52.2302C63.0775 52.3401 63.1372 52.4388 63.2259 52.5065Z" fill="url(#paint16_linear_3834_19353)"/>
<path d="M93.9773 87.3171L94.8281 87.1449C91.8905 78.8896 87.9354 71.0326 83.0542 63.7556C82.2371 61.2807 84.7267 58.5694 86.5636 56.9813L86.3361 56.6717L87.1244 55.8302L86.7721 55.7077C84.646 57.389 81.1624 60.7591 82.2944 64.0517C82.2944 64.0517 82.2944 64.0517 82.3626 64.1446C87.1763 71.3594 91.0775 79.1429 93.9773 87.3171V87.3171Z" fill="url(#paint17_linear_3834_19353)"/>
<path d="M138.044 30.4555C137.082 30.5421 132.581 29.5104 131.692 26.516C130.803 23.5217 131.99 18.5498 129.363 16.8563C126.736 15.1629 123.647 13.5226 123.614 11.8546C123.58 10.1867 126.8 7.82063 129.532 8.19714C131.295 8.58371 132.897 9.50313 134.12 10.8307C135.342 12.1583 136.127 13.8299 136.368 15.6187C136.549 19.4668 135.022 23.1636 136.046 24.9143C136.623 25.9315 137.318 26.8773 138.116 27.7319C138.116 27.7319 138.994 30.3534 138.044 30.4555Z" fill="#111827"/>
<path style="mix-blend-mode:multiply" opacity="0.6" d="M132.489 65.5284C133.806 69.2518 135.362 72.8865 137.147 76.4098C137.716 76.2817 138.268 76.0845 138.79 75.8227C136.825 72.3309 135.386 68.5685 134.519 64.6569C133.504 59.2521 131.805 49.9636 131.589 46.8799C131.373 43.7961 128.289 45.6332 124.931 47.5522C125.791 48.1228 126.619 48.7403 127.411 49.4017C128.479 48.9742 128.6 49.6247 128.828 51.0064C129.173 53.0655 131.433 62.0137 132.489 65.5284Z" fill="url(#paint18_linear_3834_19353)"/>
<path style="mix-blend-mode:multiply" opacity="0.6" d="M80.0866 52.8717C82.3324 54.0479 84.6642 55.0522 87.0618 55.8759V55.8759C91.2588 53.8333 95.5865 52.071 100.017 50.6007C108.398 47.7321 112.728 51.6785 115.787 53.6029C118.846 55.5273 122.422 52.8996 125.181 50.944C124.158 50.6227 122.803 50.1406 121.207 49.5255C119.685 50.1495 118.032 50.3867 116.396 50.2157C114.761 50.0447 113.193 49.471 111.833 48.5458C106.609 45.2323 101.369 45.5304 92.4495 47.6023C88.044 48.5971 83.8552 50.3825 80.0866 52.8717Z" fill="url(#paint19_linear_3834_19353)"/>
<path style="mix-blend-mode:multiply" opacity="0.6" d="M150.282 38.3186C151.867 39.6887 153.792 40.6051 155.855 40.9709C156.482 40.9064 157.095 40.7452 157.673 40.4931C151.621 40.1723 147.025 33.5604 143.847 27.6464C140.67 21.7325 141.761 17.4742 142.818 15.8631C142.224 15.3462 141.701 14.9914 141.321 15.3181C141.219 15.422 141.14 15.5454 141.087 15.6809C140.516 17.5605 140.29 19.5278 140.419 21.4879C140.444 22.8018 140.676 24.1035 141.107 25.3448C142.812 28.5815 144.77 31.679 146.961 34.6088C147.933 35.9596 149.047 37.2032 150.282 38.3186V38.3186Z" fill="url(#paint20_linear_3834_19353)"/>
<path style="mix-blend-mode:multiply" opacity="0.6" d="M150.282 38.3186C151.866 39.6887 153.791 40.6051 155.854 40.9709C156.481 40.9064 157.094 40.7452 157.672 40.4931C159.142 39.973 160.385 38.9583 161.189 37.6228C162.201 35.4066 162.498 32.9305 162.039 30.538C159.572 34.4484 154.343 39.5305 146.812 34.4075L147.017 34.6862C147.976 36.0071 149.07 37.2245 150.282 38.3186V38.3186Z" fill="url(#paint21_linear_3834_19353)"/>
<path style="mix-blend-mode:multiply" opacity="0.5" d="M146.283 94.3946C147.118 94.6598 148.011 94.6819 148.857 94.4583C150.254 94.2185 150.49 92.1382 150.16 90.5211C149.83 88.904 149.443 89.5458 145.781 85.7288C143.031 82.7667 140.751 79.4011 139.02 75.7489C138.428 76.0561 137.801 76.2924 137.153 76.4529C139.574 80.1375 142.187 83.6928 144.98 87.1042C146.008 88.5899 147.504 89.6893 149.229 90.2276C150.539 90.2904 149.581 91.6143 149.302 92.9872C149.023 94.36 146.981 93.7867 146.436 94.1156C146.407 94.1221 146.379 94.1348 146.355 94.1529C146.331 94.171 146.311 94.1941 146.296 94.2205C146.282 94.2469 146.273 94.2761 146.271 94.3061C146.269 94.3361 146.273 94.3663 146.283 94.3946Z" fill="url(#paint22_linear_3834_19353)"/>
<path style="mix-blend-mode:multiply" opacity="0.6" d="M92.2296 153.302C92.6905 153.367 93.1428 153.482 93.5788 153.646C92.4596 150.674 91.6917 147.582 91.2908 144.432L88.2708 143.242L88.0064 143.174C88.0064 143.174 88.7894 145.602 90.0543 148.654C91.3622 151.245 92.2069 153.271 92.2296 153.302Z" fill="url(#paint23_linear_3834_19353)"/>
<path style="mix-blend-mode:multiply" opacity="0.6" d="M52.737 149.255C52.9847 149.073 53.7317 149.311 54.677 149.689C55.0816 146.247 56.4959 143.001 58.7418 140.361C57.8934 139.331 57.1281 138.236 56.4531 137.084V137.084C56.4531 137.084 55.0422 140.291 54.0297 143.228C53.1129 146.977 52.737 149.255 52.737 149.255Z" fill="url(#paint24_linear_3834_19353)"/>
<path style="mix-blend-mode:multiply" opacity="0.5" d="M88.0608 143.182L88.283 143.257C88.8378 143.493 89.8637 143.884 91.0312 144.337C89.8012 137.497 89.5451 130.518 90.2704 123.607C91.3128 117.239 94.9998 110.382 97.5437 104.889C100.088 99.3964 98.6402 93.4034 95.8746 87.0438C95.3438 87.1655 94.8068 87.2577 94.2658 87.3201C95.8342 90.2133 96.7091 93.4314 96.8215 96.7205C96.9339 100.01 96.2807 103.28 94.9134 106.273C92.9518 110.739 90.4261 114.934 87.3979 118.757C86.2857 122.809 85.7022 126.987 85.6619 131.189C85.7957 135.292 86.6063 139.344 88.0608 143.182V143.182Z" fill="url(#paint25_linear_3834_19353)"/>
<path d="M52.7234 154.366L55.8395 155.557C59.595 156.97 65.4075 159.04 65.034 158.337C63.4244 155.902 61.3824 153.783 59.0091 152.084C58.9294 151.976 58.8271 151.836 58.6391 151.807C57.3908 151.001 56.0778 150.299 54.7135 149.709C53.7909 149.362 53.1049 149.175 52.8117 149.295C52.5405 150.972 52.5108 152.68 52.7234 154.366V154.366Z" fill="url(#paint26_linear_3834_19353)"/>
<path style="mix-blend-mode:multiply" opacity="0.6" d="M52.7241 154.367L55.8402 155.558C55.0985 153.71 54.7099 151.739 54.6946 149.748C53.772 149.401 53.086 149.214 52.7928 149.334C52.5318 151 52.5086 152.694 52.7241 154.367V154.367Z" fill="url(#paint27_linear_3834_19353)"/>
<path d="M93.8618 160.422C93.8618 160.422 95.1882 160.735 96.933 161.098C100.38 161.831 105.474 162.761 105.371 161.907C105.206 160.645 102.105 157.917 99.4238 156.312C98.3884 155.714 97.23 155.111 96.0903 154.565C96.0903 154.565 94.6025 153.871 93.3999 153.467C93.0347 153.338 92.6569 153.248 92.2729 153.198V153.198C91.9569 153.287 91.5175 156.161 93.8618 160.422Z" fill="url(#paint28_linear_3834_19353)"/>
<path style="mix-blend-mode:multiply" opacity="0.6" d="M93.8632 160.423C93.8632 160.423 95.1896 160.736 96.9343 161.099C95.3411 158.808 94.1366 156.269 93.3694 153.586C93.0042 153.457 92.6264 153.367 92.2424 153.318C91.9583 153.288 91.5189 156.162 93.8632 160.423Z" fill="url(#paint29_linear_3834_19353)"/>
<path style="mix-blend-mode:multiply" opacity="0.5" d="M145.898 49.2876C144.951 48.4754 144.24 47.4242 143.838 46.2437C143.436 45.0632 143.358 43.7964 143.612 42.5754C143.989 41.2897 144.635 40.0992 145.508 39.0833C146.382 38.0675 147.462 37.2498 148.677 36.6848C148.049 36.0407 147.475 35.3462 146.96 34.6084L146.744 34.7677C146.376 34.9659 146.021 35.187 145.68 35.4296C144.736 36.1188 143.911 36.9584 143.239 37.9148C142.456 39.1823 141.99 40.6205 141.883 42.1067C141.775 43.593 142.028 45.0833 142.621 46.4504C142.919 47.1391 143.369 47.7517 143.936 48.2429C144.503 48.7341 145.174 49.0912 145.898 49.2876V49.2876Z" fill="url(#paint30_linear_3834_19353)"/>
<path d="M144.795 38.7025C146.29 38.6288 148.435 36.1946 148.435 36.1946L147.127 34.4142L145.707 32.6443C144.437 33.3487 143.32 34.2991 142.422 35.44C142.329 35.6655 142.287 35.9084 142.297 36.1519C142.307 36.3954 142.37 36.6338 142.481 36.8508C142.647 37.3496 142.954 37.7898 143.364 38.1183C143.775 38.4469 144.272 38.6497 144.795 38.7025V38.7025Z" fill="url(#paint31_linear_3834_19353)"/>
<path style="mix-blend-mode:multiply" opacity="0.6" d="M142.452 36.9441C143.731 35.6973 145.346 34.8506 147.099 34.5075L145.679 32.7376C144.409 33.442 143.292 34.3923 142.393 35.5333C142.301 35.7588 142.258 36.0017 142.268 36.2452C142.279 36.4887 142.341 36.7271 142.452 36.9441V36.9441Z" fill="url(#paint32_linear_3834_19353)"/>
<path style="mix-blend-mode:multiply" opacity="0.5" d="M78.6223 24.3398L78.8856 24.1464C80.4353 23.6276 81.9459 23.1851 83.4328 22.8078C88.7424 21.6957 91.8435 21.2766 91.798 21.2147C97.024 20.6084 102.293 20.4622 107.545 20.7777C116.327 21.2183 124.881 23.7317 132.506 28.1123C133.373 28.6434 134.069 29.0383 134.733 29.456C134.434 28.589 133.985 27.781 133.408 27.0683C129.429 21.815 123.594 19.2601 108.416 18.135C93.238 17.0099 88.0601 18.788 84.5444 16.4365C81.4709 14.4274 81.5808 11.4621 82.5265 6.7145C81.7654 7.42466 81.0447 8.17702 80.368 8.96802C76.2803 13.5926 77.1963 22.4315 78.6223 24.3398Z" fill="url(#paint33_linear_3834_19353)"/>
<path d="M83.4907 22.8845C89.1104 29.6659 95.718 35.5636 103.092 40.3796C108.942 44.0058 115.114 47.084 121.53 49.5751C123.007 50.1583 124.286 50.6012 125.244 50.8988L125.708 50.5575C126.253 50.1441 126.842 49.7917 127.463 49.5066C126.671 48.8451 125.843 48.2277 124.984 47.6571C120.216 44.4133 110.694 38.2987 107.089 35.6312C101.788 31.1938 96.7295 26.4753 91.9347 21.4958C91.8981 21.4278 91.8521 21.3653 91.7981 21.31C90.8171 21.4349 88.7889 21.757 88.7889 21.757L85.8708 22.3277L83.4907 22.8845Z" fill="url(#paint34_linear_3834_19353)"/>
<path style="mix-blend-mode:multiply" opacity="0.6" d="M121.545 49.5641C123.022 50.1473 124.301 50.5903 125.259 50.8879L125.723 50.5466C126.268 50.1332 126.857 49.7808 127.478 49.4957C126.686 48.8342 125.859 48.2167 124.999 47.6461C123.916 48.4019 122.759 49.0446 121.545 49.5641Z" fill="url(#paint35_linear_3834_19353)"/>
<path style="mix-blend-mode:multiply" opacity="0.5" d="M93.835 87.3509C93.8643 87.3162 93.9014 87.2889 93.9433 87.2713L94.7942 87.0991C98.3206 86.4152 101.065 85.9004 101.065 85.9004C101.065 85.9004 100.745 81.7013 95.9714 72.4787C93.1381 67.1095 90.028 61.8911 86.6535 56.8445L86.426 56.5348L87.2143 55.6934L86.862 55.5708C84.5872 54.7798 82.3725 53.8257 80.2349 52.7161C76.7671 55.2641 73.5309 60.4312 78.734 65.8578C84.5773 72.4178 89.6444 79.6298 93.835 87.3509V87.3509Z" fill="url(#paint36_linear_3834_19353)"/>
<path d="M77.5921 91.0377C78.9293 90.6512 80.3779 90.2543 81.9764 89.8665L83.2629 89.541C79.3337 84.6802 69.3751 72.0675 65.6948 63.7816C64.1445 60.2537 63.5143 56.3903 63.8631 52.5526C64.212 48.7149 65.5285 45.0284 67.6895 41.8379L67.3027 41.3115C60.7211 51.8212 61.9977 60.729 66.5157 71.3555C69.5923 78.2441 73.3003 84.833 77.5921 91.0377Z" fill="url(#paint37_linear_3834_19353)"/>
<path d="M169.198 186.837C174.572 182.733 178.614 177.132 180.816 170.738C183.017 164.345 183.281 157.443 181.573 150.9C179.865 144.357 176.261 138.465 171.215 133.963C166.169 129.462 159.906 126.551 153.211 125.598C146.517 124.645 139.69 125.691 133.588 128.605C127.486 131.519 122.381 136.171 118.914 141.978C115.448 147.784 113.774 154.484 114.104 161.239C114.433 167.993 116.751 174.499 120.766 179.94C126.291 187.254 134.485 192.084 143.56 193.376C152.634 194.668 161.851 192.317 169.198 186.837ZM130.579 134.277C135.554 130.776 141.451 128.821 147.532 128.657C153.613 128.493 159.607 130.126 164.763 133.353C169.92 136.58 174.01 141.256 176.521 146.797C179.032 152.338 179.853 158.496 178.88 164.501C177.907 170.505 175.184 176.09 171.052 180.554C166.92 185.018 161.562 188.164 155.65 189.597C149.739 191.031 143.535 190.688 137.818 188.612C132.1 186.536 127.122 182.819 123.506 177.926C118.658 171.2 116.68 162.823 118.006 154.637C119.332 146.452 123.855 139.129 130.579 134.277V134.277Z" fill="url(#paint38_linear_3834_19353)"/>
<path d="M150.396 161.247C150.538 161.15 150.645 161.011 150.701 160.849C150.758 160.687 150.762 160.511 150.712 160.347C148.923 153.532 139.746 99.771 138.511 92.4774L146.808 90.7914C146.917 90.7693 147.02 90.7259 147.113 90.6638C147.205 90.6016 147.284 90.5219 147.345 90.4292C147.407 90.3365 147.449 90.2326 147.47 90.1235C147.492 90.0144 147.491 89.9021 147.469 89.7932C147.447 89.6842 147.403 89.5807 147.341 89.4885C147.279 89.3963 147.199 89.3173 147.107 89.2559C147.014 89.1945 146.91 89.1519 146.801 89.1307C146.692 89.1095 146.58 89.1099 146.471 89.132L137.461 90.984C137.245 91.0265 137.054 91.1515 136.929 91.3325C136.804 91.5135 136.754 91.7363 136.791 91.9534C137.215 94.4782 147.222 153.423 149.217 160.778C149.246 160.885 149.295 160.986 149.363 161.074C149.431 161.162 149.515 161.236 149.611 161.292C149.707 161.347 149.813 161.383 149.923 161.398C150.033 161.412 150.145 161.405 150.253 161.376C150.305 161.339 150.353 161.295 150.396 161.247Z" fill="url(#paint39_linear_3834_19353)"/>
<path d="M135.208 102.389C139.651 99.1242 139.6 98.9239 139.477 98.4655C139.441 98.2454 139.319 98.0486 139.138 97.918C138.957 97.7874 138.732 97.7335 138.512 97.7682C138.317 97.8294 138.149 97.9534 138.032 98.1208C135.375 100.669 96.2589 130.006 83.9298 120.494C83.8419 120.426 83.7414 120.375 83.634 120.345C83.5266 120.316 83.4144 120.308 83.3039 120.321C83.1933 120.335 83.0865 120.37 82.9896 120.425C82.8927 120.48 82.8076 120.554 82.7391 120.642C82.6707 120.73 82.6202 120.83 82.5905 120.938C82.5609 121.045 82.5527 121.157 82.5664 121.268C82.5801 121.378 82.6155 121.485 82.6705 121.582C82.7255 121.679 82.799 121.764 82.8869 121.832C90.8038 127.935 107.239 120.389 119.62 112.937C125.309 109.519 130.308 106.037 133.477 103.732L135.208 102.389Z" fill="url(#paint40_linear_3834_19353)"/>
<path d="M85.5922 158.155C84.5891 156.784 83.2016 155.741 81.6054 155.158C80.0092 154.575 78.276 154.479 76.6252 154.882C74.9744 155.285 73.4801 156.168 72.3316 157.421C71.1831 158.673 70.432 160.238 70.1733 161.917C69.9145 163.597 70.1599 165.315 70.8783 166.855C71.5967 168.395 72.7557 169.687 74.2088 170.568C75.6619 171.449 77.3437 171.879 79.0413 171.804C80.7389 171.728 82.3759 171.151 83.7453 170.145C85.578 168.798 86.8016 166.78 87.1479 164.532C87.4941 162.284 86.9346 159.991 85.5922 158.155V158.155Z" fill="url(#paint41_linear_3834_19353)"/>
<path d="M52.724 154.366L73.8199 160.918L71.8282 163.788L52.3416 159.654L52.724 154.366Z" fill="url(#paint42_linear_3834_19353)"/>
<path d="M79.9305 163.363C80.028 163.293 80.109 163.202 80.1678 163.097C80.2266 162.992 80.2617 162.876 80.2707 162.756C80.3037 162.535 80.248 162.31 80.1159 162.131C79.9838 161.951 79.7859 161.831 79.5655 161.796L40.8477 158.418L69.1999 112.388C69.3139 112.194 69.3475 111.963 69.2937 111.744C69.2399 111.525 69.1029 111.336 68.9118 111.217C68.8162 111.158 68.7099 111.119 68.599 111.101C68.4881 111.084 68.3749 111.089 68.2659 111.116C68.1569 111.143 68.0543 111.191 67.9641 111.258C67.874 111.325 67.7981 111.409 67.7408 111.505L38.674 158.705C38.6021 158.831 38.5618 158.972 38.5563 159.117C38.5509 159.263 38.5805 159.407 38.6427 159.538C38.7097 159.665 38.808 159.773 38.9282 159.851C39.0485 159.93 39.1867 159.976 39.33 159.987L79.4183 163.478C79.5971 163.499 79.7778 163.459 79.9305 163.363V163.363Z" fill="url(#paint43_linear_3834_19353)"/>
<path d="M58.4623 140.018C60.5553 142.866 63.5741 146.131 63.5741 146.131C63.5741 146.131 74.8732 132.99 81.3061 125.879C83.936 122.969 85.7931 120.89 87.4973 118.732C90.5255 114.909 93.0513 110.713 95.0128 106.248C96.3889 103.257 97.047 99.9856 96.9346 96.6949C96.8221 93.4042 95.9423 90.1853 94.3653 87.2949C93.915 87.3635 88.2727 88.3148 82.1093 89.8873L80.2951 90.3382C77.1706 91.1797 74.6461 91.9619 72.5997 92.5835C72.7248 92.7537 76.8 98.008 76.7391 101.462C76.6783 104.915 71.3715 112.391 66.3082 119.711C62.6593 125.258 59.3954 131.05 56.5395 137.044C56.5395 137.044 56.5964 137.121 56.6078 137.137C57.1527 138.142 57.7726 139.105 58.4623 140.018V140.018Z" fill="url(#paint44_linear_3834_19353)"/>
<path style="mix-blend-mode:multiply" opacity="0.5" d="M58.4627 140.017C59.9196 135.83 61.7215 131.771 63.8499 127.882C67.5628 121.125 74.9328 113.278 79.737 106.125C84.077 99.6698 81.9358 93.9005 80.2077 90.2832C77.0832 91.1247 74.5588 91.9068 72.5123 92.5284C72.6375 92.6987 76.7126 97.9529 76.6518 101.407C76.5909 104.86 71.2841 112.336 66.2209 119.656C62.572 125.203 59.308 130.994 56.4521 136.989C56.4521 136.989 56.509 137.066 56.5204 137.082C57.0911 138.109 57.7405 139.09 58.4627 140.017V140.017Z" fill="url(#paint45_linear_3834_19353)"/>
<path d="M146.232 159.635C146.246 160.297 146.448 160.941 146.816 161.492C147.184 162.043 147.701 162.477 148.307 162.744C148.913 163.01 149.583 163.099 150.238 162.998C150.892 162.897 151.504 162.611 152.002 162.174C152.5 161.737 152.862 161.167 153.047 160.532C153.232 159.896 153.231 159.22 153.045 158.585C152.859 157.949 152.496 157.38 151.997 156.944C151.499 156.508 150.886 156.223 150.232 156.123C149.241 156.079 148.271 156.42 147.525 157.074C146.78 157.729 146.316 158.646 146.232 159.635Z" fill="url(#paint46_linear_3834_19353)"/>
<path d="M35.4484 157.978C35.4624 158.64 35.6652 159.284 36.0329 159.835C36.4006 160.386 36.918 160.82 37.5241 161.087C38.1302 161.354 38.8 161.442 39.4545 161.341C40.109 161.24 40.7211 160.954 41.2188 160.518C41.7165 160.081 42.0791 159.511 42.2639 158.875C42.4488 158.239 42.4482 157.563 42.2622 156.928C42.0762 156.292 41.7126 155.723 41.2141 155.287C40.7157 154.851 40.103 154.566 39.4483 154.467C38.4573 154.422 37.4876 154.763 36.742 155.418C35.9965 156.072 35.5329 156.989 35.4484 157.978Z" fill="url(#paint47_linear_3834_19353)"/>
<path d="M148.323 49.1507L148.524 49.0028C147.847 48.4879 147.259 47.8641 146.786 47.1567L146.641 47.1207C146.641 47.1207 146.563 47.1776 146.605 47.2664C147.072 47.9832 147.652 48.6196 148.323 49.1507Z" fill="#F2A17E"/>
<path d="M149.238 40.4681C149.66 40.2545 150.122 40.1302 150.594 40.1031C151.066 40.076 151.539 40.1467 151.983 40.3107C152.339 40.4769 152.647 40.7299 152.88 41.0464C153.112 41.3629 153.262 41.7328 153.314 42.122V42.122C153.332 42.1676 153.336 42.2178 153.323 42.2654C153.311 42.3129 153.284 42.3554 153.246 42.3865C153.201 42.4197 153.144 42.4335 153.089 42.4251C153.034 42.4166 152.984 42.3865 152.951 42.3413C152.901 42.2991 152.862 42.2461 152.837 42.1865C152.783 41.8838 152.668 41.5951 152.499 41.3378C152.379 41.8554 151.89 42.7151 151.439 42.5224C150.987 42.3297 151.063 40.8434 151.442 40.6128C150.704 40.4581 149.935 40.5533 149.257 40.8833C149.214 40.8979 149.168 40.8986 149.125 40.8851C149.082 40.8717 149.045 40.8449 149.018 40.8086C148.991 40.7723 148.977 40.7284 148.977 40.6834C148.977 40.6383 148.991 40.5945 149.018 40.5582L149.238 40.4681Z" fill="#562E1E"/>
<path d="M95.7943 17.7098H95.002L101.295 9.32568H102.087L95.7943 17.7098Z" fill="#2D2E34"/>
<path d="M115.497 17.7098H114.704L120.997 9.32568H121.79L115.497 17.7098Z" fill="#2D2E34"/>
<path d="M114.777 12.2674H115.721V15.5174L116.962 13.864V12.2674H118.16L119.091 11.0264H114.777C114.698 11.0264 114.624 11.0573 114.569 11.1128C114.513 11.1682 114.482 11.2424 114.482 11.3214V11.9724C114.482 12.0514 114.513 12.1256 114.569 12.181C114.625 12.2365 114.698 12.2674 114.777 12.2674Z" fill="#2D2E34"/>
<path d="M103.943 11.0391H103.292C103.214 11.0391 103.14 11.069 103.083 11.1255C103.028 11.1814 102.997 11.2551 102.997 11.3341V15.6047C102.997 15.6848 103.028 15.7594 103.083 15.8134C103.139 15.8689 103.214 15.8998 103.292 15.8998H103.943C104.118 15.8998 104.245 15.7756 104.245 15.6042V11.3336C104.245 11.1628 104.118 11.0391 103.943 11.0391Z" fill="#2D2E34"/>
<path d="M111.904 11.0391H111.303C111.153 11.0391 111.022 11.1019 110.921 11.2261L109.04 13.6714V11.3346C109.04 11.1633 108.915 11.0396 108.745 11.0396H108.145C107.994 11.0396 107.863 11.1024 107.762 11.2266L104.516 15.458C104.441 15.5542 104.435 15.6789 104.5 15.7731C104.553 15.8541 104.638 15.9008 104.734 15.9008H105.536C105.687 15.9008 105.818 15.8379 105.918 15.7137L107.8 13.2684V15.6052C107.8 15.7766 107.924 15.9008 108.095 15.9008H108.695C108.845 15.9008 108.976 15.8379 109.077 15.7137L110.952 13.2704V15.6057C110.952 15.7771 111.079 15.9013 111.253 15.9013H111.904C112.075 15.9013 112.199 15.7771 112.199 15.6057V11.3351C112.199 11.1628 112.075 11.0391 111.904 11.0391Z" fill="#2D2E34"/>
<path d="M113.774 11.0391H113.123C113.045 11.0391 112.971 11.069 112.915 11.1255C112.859 11.1814 112.828 11.2551 112.828 11.3341V15.6047C112.828 15.6848 112.859 15.7594 112.915 15.8134C112.97 15.8689 113.045 15.8998 113.123 15.8998H113.774C113.949 15.8998 114.076 15.7756 114.076 15.6042V11.3336C114.076 11.1628 113.949 11.0391 113.774 11.0391Z" fill="#2D2E34"/>
<path d="M93.181 11.1177C93.1702 11.1172 93.1589 11.1167 93.1481 11.1167C93.1447 11.1167 93.1408 11.1167 93.1369 11.1167C93.1 11.1167 93.0632 11.1187 93.0269 11.1206L92.9552 11.1241C92.9331 11.1246 92.911 11.1255 92.8894 11.1275C92.8516 11.1309 92.8148 11.1363 92.778 11.1422L92.7107 11.1516C92.6921 11.154 92.6734 11.1565 92.6552 11.1599C92.6096 11.1687 92.5654 11.1805 92.5212 11.1918L92.505 11.1962C92.4932 11.1992 92.4815 11.2021 92.4697 11.2046C92.4559 11.2075 92.4427 11.2105 92.4294 11.2144C92.3548 11.2365 92.2816 11.263 92.2119 11.2915C91.9233 11.4117 91.6695 11.5816 91.4579 11.7952C91.2453 12.0097 91.0744 12.2655 90.9497 12.5542C90.825 12.8428 90.7617 13.1605 90.7617 13.4972C90.7617 13.835 90.8216 14.1556 90.9404 14.4492C91.0582 14.7422 91.2247 15.0005 91.4348 15.2175C91.6444 15.434 91.8963 15.6068 92.183 15.7315C92.4726 15.8576 92.7853 15.9185 93.1211 15.919C93.1614 15.919 93.2002 15.9166 93.2385 15.9146L93.32 15.9107C93.3435 15.9097 93.3671 15.9092 93.3907 15.9067C93.4319 15.9028 93.4717 15.8959 93.5119 15.8891L93.5429 15.8842C93.5566 15.8822 93.5703 15.8802 93.5846 15.8783C93.6047 15.8753 93.6248 15.8729 93.6445 15.8684C93.6926 15.8586 93.7397 15.8449 93.7864 15.8311L93.807 15.8252C93.8192 15.8218 93.832 15.8184 93.8453 15.8149C93.8595 15.8115 93.8733 15.8081 93.887 15.8036C93.967 15.7771 94.0451 15.7462 94.1187 15.7118C94.4226 15.5709 94.6892 15.3746 94.9111 15.1281L94.3765 14.6789C94.2218 14.8596 94.0402 15.0015 93.834 15.1045C93.6214 15.2106 93.3921 15.2666 93.1516 15.2715C92.9194 15.2715 92.6999 15.2263 92.4977 15.137C92.2969 15.0486 92.1167 14.9234 91.9625 14.7648C91.8094 14.6072 91.6861 14.4207 91.5953 14.2106C91.504 13.9999 91.4579 13.7712 91.4579 13.5316C91.4579 13.293 91.5016 13.0647 91.588 12.8541C91.6739 12.6445 91.7927 12.4565 91.9409 12.2964C92.0892 12.1359 92.2669 12.0068 92.4687 11.913C92.671 11.8192 92.8879 11.7691 93.1143 11.7642L93.1452 11.7637C93.1658 11.7637 93.1864 11.7652 93.2071 11.7667L93.2576 11.7696C93.2753 11.7701 93.2935 11.7711 93.3106 11.7731C93.3406 11.776 93.37 11.7814 93.399 11.7868L93.4383 11.7932C93.4545 11.7957 93.4707 11.7981 93.4869 11.802C93.5217 11.8099 93.5556 11.8207 93.59 11.831L93.6185 11.8394C93.6312 11.8428 93.6445 11.8467 93.6568 11.8511L93.181 11.1177Z" fill="#2D2E34"/>
<path d="M102.76 14.8121C102.712 14.7159 102.618 14.6589 102.51 14.6589H100.96V11.6299L99.7129 13.2922V15.605C99.7129 15.685 99.7443 15.7596 99.7983 15.8131C99.8543 15.8696 99.9284 15.9005 100.008 15.9005H101.884C102.031 15.9005 102.16 15.8377 102.26 15.7144L102.737 15.0983C102.798 15.0144 102.807 14.9078 102.76 14.8121Z" fill="#2D2E34"/>
<path d="M98.0972 11.1162C98.0289 11.1162 97.9759 11.1412 97.9307 11.1953L96.3971 13.1408L94.8619 11.1933C94.8182 11.1412 94.7657 11.1162 94.697 11.1162H93.8486L96.0298 13.8895V15.5233L96.7638 14.5709V13.8895L98.945 11.1162H98.0972Z" fill="#2D2E34"/>
<path d="M98.0653 17.6224C98.1773 17.6224 98.275 17.5949 98.3589 17.5404C98.4429 17.4855 98.5028 17.4113 98.5386 17.3171L98.626 17.3387C98.5857 17.4516 98.515 17.5414 98.4154 17.6077C98.3152 17.674 98.1989 17.7069 98.0653 17.7069C97.8925 17.7069 97.7467 17.647 97.6279 17.5272C97.5091 17.4074 97.4492 17.2616 97.4492 17.0888C97.4492 16.916 97.5086 16.7702 97.6279 16.6504C97.7467 16.5306 97.893 16.4707 98.0653 16.4707C98.1984 16.4707 98.3152 16.5036 98.4154 16.5689C98.5155 16.6342 98.5857 16.7226 98.626 16.833L98.5401 16.86C98.5057 16.7662 98.4458 16.6916 98.3614 16.6366C98.2769 16.5821 98.1778 16.5547 98.0648 16.5547C97.9171 16.5547 97.7924 16.6062 97.6908 16.7093C97.5891 16.8124 97.5381 16.9386 97.5381 17.0888C97.5381 17.2385 97.5891 17.3652 97.6908 17.4683C97.7929 17.5709 97.9176 17.6224 98.0653 17.6224Z" fill="#2D2E34"/>
<path d="M99.7226 17.6047V17.6866H98.9102V16.4902H99.0015V17.6047H99.7226Z" fill="#2D2E34"/>
<path d="M100.042 16.4902H99.9512V17.6866H100.042V16.4902Z" fill="#2D2E34"/>
<path d="M101.654 16.4902V17.6866H101.567V16.6954L101.052 17.6866H100.988L100.472 16.6954V17.6866H100.385V16.4902H100.465L101.021 17.5546L101.576 16.4902H101.654Z" fill="#2D2E34"/>
<path d="M102.671 17.0759V17.0794C102.749 17.0877 102.811 17.1176 102.858 17.1687C102.905 17.2198 102.928 17.2855 102.928 17.3651C102.928 17.4603 102.895 17.5379 102.83 17.5973C102.765 17.6567 102.676 17.6866 102.564 17.6866H101.998V16.4902H102.53C102.642 16.4902 102.73 16.5182 102.793 16.5742C102.856 16.6302 102.888 16.7043 102.888 16.7976C102.888 16.8712 102.867 16.934 102.825 16.9851C102.783 17.0362 102.732 17.0661 102.671 17.0759ZM102.089 16.5688V17.0455H102.55C102.625 17.0455 102.685 17.0229 102.732 16.9777C102.779 16.9326 102.802 16.8737 102.802 16.801C102.802 16.7308 102.777 16.6743 102.728 16.6321C102.678 16.5899 102.61 16.5688 102.523 16.5688H102.089V16.5688ZM102.089 17.6081H102.557C102.642 17.6081 102.709 17.585 102.761 17.5394C102.812 17.4937 102.838 17.4338 102.838 17.3597C102.838 17.286 102.812 17.2276 102.76 17.1844C102.708 17.1417 102.64 17.1201 102.556 17.1201H102.09V17.6081H102.089Z" fill="#2D2E34"/>
<path d="M104.56 16.5722H104.094V17.6866H104.002V16.5722H103.535V16.4902H104.56V16.5722Z" fill="#2D2E34"/>
<path d="M104.845 16.6499C104.963 16.5301 105.108 16.4702 105.28 16.4702C105.451 16.4702 105.596 16.5301 105.714 16.6499C105.831 16.7697 105.89 16.9155 105.89 17.0883C105.89 17.2621 105.831 17.4084 105.714 17.5277C105.596 17.6465 105.451 17.7064 105.28 17.7064C105.107 17.7064 104.962 17.647 104.844 17.5277C104.726 17.4084 104.667 17.2621 104.667 17.0883C104.667 16.916 104.726 16.7697 104.845 16.6499ZM105.28 17.6224C105.426 17.6224 105.55 17.5714 105.65 17.4688C105.751 17.3662 105.801 17.2395 105.801 17.0883C105.801 16.9381 105.751 16.8119 105.65 16.7088C105.55 16.6057 105.426 16.5542 105.28 16.5542C105.132 16.5542 105.008 16.6057 104.907 16.7088C104.806 16.8119 104.756 16.9381 104.756 17.0883C104.756 17.2395 104.806 17.3662 104.907 17.4688C105.008 17.5714 105.132 17.6224 105.28 17.6224Z" fill="#2D2E34"/>
<path d="M107.536 16.5722H107.069V17.6866H106.977V16.5722H106.511V16.4902H107.536V16.5722Z" fill="#2D2E34"/>
<path d="M108.731 16.4902V17.6866H108.641V17.124H107.849V17.6866H107.758V16.4902H107.849V17.042H108.641V16.4902H108.731Z" fill="#2D2E34"/>
<path d="M109.165 16.5722V17.0455H109.877V17.126H109.165V17.6047H109.93V17.6866H109.073V16.4902H109.93V16.5722H109.165Z" fill="#2D2E34"/>
<path d="M111.576 16.5722H111.11V17.6866H111.017V16.5722H110.551V16.4902H111.576V16.5722Z" fill="#2D2E34"/>
<path d="M111.86 16.6499C111.979 16.5301 112.124 16.4702 112.295 16.4702C112.467 16.4702 112.611 16.5301 112.729 16.6499C112.847 16.7697 112.906 16.9155 112.906 17.0883C112.906 17.2621 112.847 17.4084 112.729 17.5277C112.611 17.6465 112.467 17.7064 112.295 17.7064C112.122 17.7064 111.977 17.647 111.859 17.5277C111.742 17.4084 111.683 17.2621 111.683 17.0883C111.683 16.916 111.742 16.7697 111.86 16.6499ZM112.295 17.6224C112.441 17.6224 112.565 17.5714 112.665 17.4688C112.766 17.3662 112.816 17.2395 112.816 17.0883C112.816 16.9381 112.766 16.8119 112.665 16.7088C112.565 16.6057 112.441 16.5542 112.295 16.5542C112.147 16.5542 112.023 16.6057 111.922 16.7088C111.822 16.8119 111.771 16.9381 111.771 17.0883C111.771 17.2395 111.822 17.3662 111.922 17.4688C112.023 17.5714 112.148 17.6224 112.295 17.6224Z" fill="#2D2E34"/>
<path d="M113.19 16.4902H113.695C113.816 16.4902 113.914 16.5231 113.988 16.5894C114.062 16.6557 114.099 16.7406 114.099 16.8457C114.099 16.9517 114.062 17.0376 113.988 17.1039C113.915 17.1702 113.817 17.2031 113.695 17.2031H113.281V17.6871H113.189V16.4902H113.19ZM113.281 17.1206H113.696C113.79 17.1206 113.865 17.0951 113.922 17.044C113.979 16.993 114.008 16.9267 114.008 16.8457C114.008 16.7647 113.98 16.6989 113.922 16.6483C113.865 16.5977 113.789 16.5722 113.696 16.5722H113.281V17.1206Z" fill="#2D2E34"/>
<path d="M114.482 10.4712C117.816 9.86737 118.06 9.03524 120.311 9.32587L119.413 10.4712H114.482Z" fill="#2D2E34"/>
<path d="M89.4161 15.067C89.4304 15.0463 89.4397 15.0149 89.4589 15.0066C89.5413 14.9722 89.5477 14.9094 89.5384 14.8352C89.3852 14.8058 89.2301 14.7965 89.1044 14.6909C89.6886 14.3281 89.7907 13.9948 89.4996 13.4012C90.2011 12.519 90.9042 11.6344 91.6145 10.7414C91.6646 10.8435 91.7132 10.9417 91.7604 11.0379C91.8497 10.9741 91.9823 10.9043 92.1678 10.8562C92.0652 10.573 91.9626 10.2912 91.8605 10.0094C92.2091 9.96715 92.5458 9.9264 92.8831 9.88467C92.9931 9.87093 93.104 9.84687 93.1791 9.96371C93.2528 9.90725 93.3171 9.85767 93.3839 9.80612C93.4546 9.9048 93.5194 9.99464 93.5891 10.0923C93.6367 10.0064 93.6794 9.9318 93.7192 9.8562C93.7285 9.83852 93.7359 9.81398 93.7319 9.79532C93.7079 9.67897 93.6917 9.55869 93.6514 9.44774C93.5935 9.28819 93.4933 9.25971 93.3299 9.29653C93.1158 9.34465 92.8983 9.38981 92.6804 9.40356C92.3259 9.42565 91.97 9.42074 91.6145 9.4286C91.5424 9.43007 91.4702 9.43841 91.3917 9.4443C91.3863 9.38687 91.3809 9.33875 91.3774 9.29064C91.3642 9.11685 91.3494 8.94257 91.3391 8.76829C91.3347 8.69563 91.3367 8.62199 91.3401 8.54933C91.3539 8.27441 91.3755 7.99998 91.3828 7.72506C91.3882 7.52623 91.5257 7.43344 91.7049 7.52279C91.7373 7.53899 91.7697 7.55912 91.7962 7.58367C91.8409 7.62491 91.89 7.66614 91.9219 7.71671C91.9877 7.8203 92.0868 7.85614 92.1978 7.87921C92.2763 7.8959 92.3333 7.87823 92.3701 7.80017C92.4177 7.69855 92.4732 7.60085 92.5247 7.50217C92.6548 7.54636 92.6593 7.54292 92.6867 7.41528C92.7196 7.26358 92.755 7.11286 92.7918 6.95233C92.6818 6.90569 92.5606 6.85611 92.4408 6.80358C92.3009 6.74172 92.1629 6.67495 92.0024 6.71864C91.9773 6.72552 91.9474 6.71766 91.9199 6.7157C91.6887 6.69606 91.483 6.60229 91.2841 6.49036C91.0244 6.34357 90.7426 6.24146 90.4559 6.17813C90.1899 6.11921 89.9095 6.10694 89.6356 6.10645C89.3032 6.10596 88.9704 6.13983 88.638 6.15898C88.7809 6.19236 88.9237 6.20807 89.0656 6.22967C89.5207 6.29841 89.9675 6.39708 90.3946 6.57873C90.7348 6.72355 90.9366 6.97147 91.0249 7.32642C91.1246 7.72604 91.1388 8.13155 91.1305 8.54001C91.129 8.60383 91.131 8.66912 91.1413 8.73245C91.1835 8.98626 91.2351 9.2386 91.2719 9.49291C91.2851 9.58422 91.3254 9.60729 91.4069 9.61171C91.5262 9.6181 91.645 9.6343 91.7643 9.64657C91.5895 9.6829 91.4162 9.70499 91.2424 9.7207C91.0755 9.73543 91.0028 9.68192 90.9621 9.52138C90.8389 9.03781 90.7176 8.55375 90.5914 8.07116C90.5826 8.03778 90.5468 7.99654 90.5149 7.98672C90.2193 7.8959 89.9238 7.80508 89.6248 7.72702C89.3479 7.65485 89.072 7.56599 88.777 7.61312C88.6896 7.62687 88.5997 7.62343 88.5109 7.62883C88.2286 7.647 87.9458 7.66565 87.6512 7.68529C87.7666 7.77857 87.9399 7.74666 88.0239 7.91358C87.9026 7.93027 87.798 7.95629 87.693 7.95727C87.3827 7.95923 87.1078 7.83944 86.8461 7.68676C86.8235 7.67351 86.8093 7.62638 86.8113 7.59594C86.823 7.37011 86.8815 7.15508 86.9752 6.94987C87.0052 6.88458 87.0386 6.82027 87.0813 6.73288C87.0233 6.7643 86.986 6.78247 86.9512 6.80407C86.5236 7.06672 86.3709 7.51837 86.4357 8.05251C86.4809 8.42415 86.6866 8.70938 86.961 8.95239C87.0395 9.02161 87.1034 9.10703 87.1888 9.20129C87.1471 9.19884 87.1323 9.19786 87.1171 9.19687C86.8486 9.17626 86.5795 9.15662 86.311 9.13354C86.2408 9.12765 86.2192 9.15416 86.2197 9.22142C86.2207 9.57784 86.419 9.73788 86.7631 9.6559C86.8348 9.63871 86.905 9.6176 86.9757 9.59895C87.016 9.58815 87.0572 9.57882 87.1034 9.56802C87.2364 9.96322 87.3675 10.3515 87.4966 10.7409C87.503 10.7605 87.4986 10.79 87.4878 10.8081C87.3812 10.9799 87.2747 11.1518 87.1637 11.3207C87.1215 11.3845 87.07 11.4075 86.987 11.3663C86.2923 11.0231 85.5869 11.0065 84.8731 11.3069C84.824 11.3275 84.7763 11.3526 84.7282 11.3756C84.8421 11.3963 84.9506 11.3943 85.0591 11.3967C85.4887 11.4056 85.9173 11.4223 86.3326 11.547C86.5177 11.6024 86.6959 11.6746 86.8564 11.8057C86.8343 11.8415 86.8176 11.8705 86.799 11.8985C86.5314 12.305 86.2648 12.7124 85.9939 13.117C85.96 13.1675 85.904 13.2039 85.8618 13.2431C85.9885 13.2863 86.0881 13.3796 86.0763 13.5495C86.0675 13.6712 85.9978 13.7557 85.8834 13.794C85.7297 13.8455 85.6085 13.7896 85.5147 13.657C85.5216 13.8809 85.8348 14.0988 86.1166 13.9133C86.1652 13.8814 86.2054 13.873 86.2599 13.8863C86.5869 13.9663 86.9148 14.0439 87.2423 14.1229C87.2791 14.1317 87.315 14.1435 87.3591 14.1558C87.1353 14.6344 86.7965 14.9737 86.3115 15.1499C85.6811 15.3787 85.0984 15.2727 84.5535 14.8514C84.8465 15.253 85.4278 15.5083 85.9924 15.4607C86.7911 15.3934 87.3086 14.9428 87.6075 14.2103C87.6611 14.2245 87.7126 14.2388 87.7642 14.2525C87.5045 15.1342 86.5147 15.7435 85.5908 15.6006C85.1804 15.5373 84.8107 15.3645 84.4631 15.1534C83.9987 14.8721 83.6801 14.4562 83.47 13.9565C83.4616 13.9373 83.4518 13.9187 83.443 13.8995C83.5642 14.7164 83.9933 15.3227 84.7268 15.7454C84.2142 15.7734 83.7297 15.7999 83.2451 15.8264C83.6762 15.8677 84.1067 15.8942 84.5373 15.9222C84.8397 15.9418 85.145 15.9457 85.4445 15.9875C86.2874 16.1048 87.0194 15.8878 87.6208 15.2825C87.798 15.1043 87.9355 14.8868 88.0872 14.6924C88.2124 14.7326 88.3636 14.7641 88.4986 14.8289C88.6361 14.8951 88.7573 14.9938 88.9061 15.092C88.8506 15.0954 88.8246 15.0969 88.7917 15.0984C88.7946 15.1519 88.7868 15.2039 88.8025 15.2476C88.8143 15.2805 88.8609 15.3291 88.8835 15.3252C89.0263 15.2987 89.1712 15.2692 89.3067 15.2187C89.3543 15.1975 89.3803 15.1185 89.4161 15.067ZM91.237 10.2259C91.2949 10.2185 91.3563 10.2401 91.4162 10.2485C91.3936 10.302 91.3809 10.3628 91.3465 10.4075C90.645 11.3157 89.941 12.2225 89.237 13.1292C89.2276 13.141 89.2168 13.1513 89.2129 13.1558C89.0931 13.1278 88.9807 13.1018 88.854 13.0723C88.8673 12.9658 88.8845 12.8494 88.8967 12.7326C88.9586 12.1248 89.1127 11.5352 89.2419 10.9402C89.2703 10.8081 89.262 10.6677 89.2713 10.5175C89.6336 10.461 89.9989 10.4031 90.3646 10.3481C90.6548 10.3049 90.9454 10.2627 91.237 10.2259ZM88.7706 11.8808C88.7239 12.2809 88.7274 12.6864 88.7082 13.0939C88.613 13.1351 88.5079 13.1803 88.4151 13.2206C88.4151 13.0463 88.4073 12.8641 88.4166 12.6835C88.4431 12.17 88.4775 11.6569 88.5055 11.1439C88.5099 11.058 88.5344 10.9971 88.6091 10.9466C88.7347 10.8616 88.8526 10.7639 88.993 10.6574C88.9139 11.0816 88.8177 11.4782 88.7706 11.8808ZM87.3356 9.53562C87.4156 9.48505 87.4696 9.50714 87.5369 9.55869C87.7912 9.75457 88.0523 9.94064 88.2885 10.1139C88.4343 9.99415 88.5565 9.894 88.6842 9.78943C88.614 9.80318 88.5403 9.8071 88.4745 9.83263C88.3955 9.86307 88.3219 9.85963 88.2541 9.82085C88.0155 9.68437 87.7789 9.54495 87.5447 9.4011C87.4617 9.35005 87.3896 9.2823 87.2904 9.20473C87.3282 9.21455 87.341 9.21553 87.3513 9.22093C87.854 9.5042 88.3999 9.65933 88.9615 9.76685C88.9856 9.77127 89.02 9.76979 89.0376 9.75605C89.1761 9.6505 89.3121 9.54102 89.4564 9.42712C89.1938 8.97203 88.8251 8.62837 88.4446 8.29307C88.91 8.53853 89.3077 8.87237 89.6729 9.25235C89.7372 9.20718 89.7971 9.16545 89.8644 9.11833C89.4775 8.70987 89.0749 8.32547 88.5884 8.03778C89.179 8.19341 89.7505 8.43446 90.3936 8.39125C90.4118 8.513 90.428 8.64212 90.451 8.77025C90.509 9.08936 90.5689 9.40798 90.6317 9.7261C90.6631 9.88516 90.7358 10.0054 90.9366 9.97697C90.9346 9.9863 90.9326 9.99562 90.9312 10.005C90.4643 10.0968 89.9969 10.1881 89.53 10.2799C89.5276 10.2735 89.5246 10.2676 89.5222 10.2612C89.6032 10.1979 89.6867 10.137 89.7647 10.0698C89.8388 10.0059 89.9149 9.94211 89.9763 9.867C90.103 9.71186 90.1167 9.53513 90.0475 9.32157C90.0318 9.37312 90.022 9.40159 90.0141 9.43105C89.9493 9.67308 89.8261 9.86307 89.6086 10.0079C89.1933 10.2843 88.7941 10.5847 88.3876 10.8744C88.2713 10.9574 88.153 11.0364 88.0352 11.1174C88.0253 11.113 88.0155 11.1086 88.0057 11.1037C88.0838 10.8101 88.1613 10.516 88.2364 10.2337C88.1436 10.2897 88.0759 10.3918 88.0194 10.5032C87.987 10.5666 87.7936 10.6466 87.7273 10.6225C87.7151 10.6181 87.7023 10.6034 87.6979 10.5906C87.5766 10.2391 87.4559 9.88664 87.3356 9.53562ZM87.8265 11.7124C87.9075 11.9525 87.9816 12.1724 88.0563 12.3928C87.9473 12.1847 87.7102 12.0212 87.8265 11.7124ZM87.7794 10.8233C87.8231 10.815 87.8589 10.8081 87.9173 10.7973C87.883 10.8562 87.8599 10.8955 87.8245 10.9564C87.8049 10.8975 87.7936 10.8651 87.7794 10.8233ZM88.0563 11.6314C87.9929 11.4468 87.9924 11.4468 88.1446 11.3192C88.1746 11.2941 88.205 11.2701 88.2212 11.2573C88.2085 11.5043 88.1957 11.7576 88.1834 11.9991C88.1446 11.8882 88.1004 11.7595 88.0563 11.6314ZM87.5894 11.0163C87.6036 11.056 87.6125 11.0801 87.6233 11.1105C87.5825 11.1375 87.5432 11.164 87.504 11.1906C87.4986 11.1856 87.4937 11.1807 87.4883 11.1753C87.5197 11.1267 87.5506 11.0771 87.5894 11.0163ZM87.852 13.9452C87.7804 13.9329 87.7303 13.9241 87.689 13.9172V13.4739C87.7558 13.4798 87.8093 13.4847 87.8781 13.4911C87.8692 13.6423 87.8614 13.7871 87.852 13.9452ZM88.6375 14.0463C88.611 13.9913 88.5771 13.955 88.5816 13.9251C88.5987 13.8141 88.5207 13.7591 88.4628 13.6914C88.4254 13.6472 88.3862 13.6045 88.3479 13.5613C88.0882 13.8028 88.1407 14.2554 88.4574 14.5461C88.0533 14.4656 87.9217 13.8661 88.2158 13.4106C88.0651 13.2402 87.9129 13.0674 87.7499 12.8833C87.7887 13.0384 87.8231 13.1764 87.8589 13.3212C87.8191 13.3246 87.7946 13.3246 87.7715 13.3295C87.6954 13.3453 87.6679 13.3158 87.6522 13.2382C87.5864 12.9162 87.4392 12.6344 87.2065 12.3992C87.3861 12.6854 87.4922 12.9923 87.5074 13.3384C87.1775 13.3512 86.8554 13.3634 86.5329 13.3757C86.5329 13.3806 86.5334 13.386 86.5334 13.3909C86.8564 13.4145 87.1795 13.4376 87.5172 13.4621C87.4976 13.604 87.4789 13.7356 87.4593 13.8784C87.0616 13.8121 86.6767 13.7483 86.2968 13.6855C86.2845 13.6064 86.2845 13.5279 86.258 13.4596C86.2324 13.3934 86.1799 13.3379 86.1289 13.2628C86.4131 12.8381 86.7052 12.4012 87.012 11.9422C87.1652 12.0865 87.3145 12.2269 87.4657 12.3698C87.4259 12.4302 87.396 12.4753 87.3631 12.5259C87.4613 12.631 87.558 12.735 87.6552 12.8391C87.6635 12.8322 87.6719 12.8249 87.6807 12.818C87.662 12.7895 87.6434 12.761 87.6203 12.7257C87.7406 12.736 87.8388 12.7625 87.9173 12.8617C88.0239 12.9957 88.149 13.115 88.261 13.2446C88.3086 13.2996 88.3449 13.3021 88.4078 13.2662C88.7617 13.0644 89.1977 13.1818 89.3945 13.5313C89.2669 13.4081 89.1211 13.3222 88.9419 13.3065C88.7642 13.2913 88.6022 13.332 88.4515 13.4469C88.5192 13.5225 88.5816 13.5971 88.6503 13.6653C88.665 13.6796 88.7038 13.6776 88.7293 13.6717C88.8393 13.6467 88.9178 13.6791 88.9738 13.7778C88.7544 13.7277 88.6518 13.8013 88.6375 14.0463Z" fill="#2D2E34"/>
<path d="M91.3879 5.63878C91.7276 5.65695 92.0551 5.72568 92.3481 5.91125C92.4925 6.00256 92.6147 6.11695 92.6938 6.2711C92.7522 6.38549 92.7335 6.46699 92.627 6.53915C92.5705 6.57745 92.5062 6.60494 92.4404 6.64028C92.5921 6.71245 92.7433 6.75467 92.9068 6.74044C93.1135 6.72227 93.2554 6.57401 93.2647 6.36634C93.2721 6.19206 93.2063 6.04331 93.0983 5.91174C92.9363 5.71438 92.7212 5.60147 92.4773 5.54501C91.9446 5.42179 91.4213 5.49936 90.9023 5.63731C91.0644 5.63731 91.2264 5.62994 91.3879 5.63878Z" fill="#2D2E34"/>
<path d="M93.2954 10.1407C93.2551 10.1809 93.2325 10.2374 93.1972 10.283C93.0612 10.4578 92.8678 10.4902 92.6635 10.4917C92.6267 10.4917 92.5899 10.4892 92.5536 10.4927C92.5344 10.4946 92.5035 10.5049 92.501 10.5162C92.4971 10.5359 92.5045 10.5668 92.5187 10.5796C92.5452 10.6031 92.5791 10.6282 92.6125 10.6326C92.7205 10.6463 92.8319 10.6684 92.938 10.6557C93.1898 10.6252 93.3582 10.4779 93.4564 10.2443C93.4864 10.1731 93.4402 10.1309 93.4029 10.0935C93.3926 10.0827 93.3224 10.1132 93.2954 10.1407Z" fill="#2D2E34"/>
<path d="M85.5517 13.3091C85.1084 13.3415 84.6587 13.3739 84.209 13.4068C84.2085 13.4132 84.2085 13.4195 84.208 13.4259C84.6327 13.475 85.0573 13.5246 85.4648 13.5717C85.4967 13.4755 85.5227 13.3965 85.5517 13.3091Z" fill="#2D2E34"/>
<path d="M91.5869 6.00157C91.5899 6.00059 91.5918 5.99813 91.6007 5.99273C91.2796 5.8047 90.5447 5.73646 90.3174 5.85723C90.5412 5.90436 90.7956 5.924 91.0204 6.01531C91.2271 6.09926 91.4004 6.0757 91.5869 6.00157Z" fill="#2D2E34"/>
</g>
<defs>
<filter id="filter0_f_3834_19353" x="115" y="184" width="64.7246" height="21.8145" filterUnits="userSpaceOnUse" color-interpolation-filters="sRGB">
<feFlood flood-opacity="0" result="BackgroundImageFix"/>
<feBlend mode="normal" in="SourceGraphic" in2="BackgroundImageFix" result="shape"/>
<feGaussianBlur stdDeviation="4" result="effect1_foregroundBlur_3834_19353"/>
</filter>
<filter id="filter1_f_3834_19353" x="8" y="184" width="64.7246" height="21.8145" filterUnits="userSpaceOnUse" color-interpolation-filters="sRGB">
<feFlood flood-opacity="0" result="BackgroundImageFix"/>
<feBlend mode="normal" in="SourceGraphic" in2="BackgroundImageFix" result="shape"/>
<feGaussianBlur stdDeviation="4" result="effect1_foregroundBlur_3834_19353"/>
</filter>
<linearGradient id="paint0_linear_3834_19353" x1="102.607" y1="158.146" x2="88.3172" y2="168.645" gradientUnits="userSpaceOnUse">
<stop stop-color="#4B5563"/>
<stop offset="0.98" stop-color="#111827"/>
</linearGradient>
<linearGradient id="paint1_linear_3834_19353" x1="63.7198" y1="138.444" x2="7.84708" y2="179.497" gradientUnits="userSpaceOnUse">
<stop stop-color="#374151"/>
<stop offset="0.98" stop-color="#111827"/>
</linearGradient>
<linearGradient id="paint2_linear_3834_19353" x1="125.904" y1="91.7044" x2="61.2219" y2="139.23" gradientUnits="userSpaceOnUse">
<stop stop-color="#4B5563"/>
<stop offset="0.98" stop-color="#111827"/>
</linearGradient>
<linearGradient id="paint3_linear_3834_19353" x1="69.7431" y1="91.2252" x2="54.6641" y2="102.305" gradientUnits="userSpaceOnUse">
<stop stop-color="#4B5563"/>
<stop offset="0.98" stop-color="#111827"/>
</linearGradient>
<linearGradient id="paint4_linear_3834_19353" x1="149.698" y1="90.6705" x2="145.146" y2="94.0148" gradientUnits="userSpaceOnUse">
<stop stop-color="#4B5563"/>
<stop offset="0.98" stop-color="#111827"/>
</linearGradient>
<linearGradient id="paint5_linear_3834_19353" x1="153.196" y1="85.4057" x2="147.537" y2="72.4472" gradientUnits="userSpaceOnUse">
<stop stop-color="#FCAA86"/>
<stop offset="0.38" stop-color="#FBBA97"/>
<stop offset="0.99" stop-color="#FFC8B0"/>
</linearGradient>
<linearGradient id="paint6_linear_3834_19353" x1="76.3113" y1="9.44578" x2="134.064" y2="19.9114" gradientUnits="userSpaceOnUse">
<stop stop-color="#F7D058"/>
<stop offset="0.99" stop-color="#F9D979"/>
</linearGradient>
<linearGradient id="paint7_linear_3834_19353" x1="150.5" y1="50.4595" x2="138.161" y2="59.5255" gradientUnits="userSpaceOnUse">
<stop stop-color="#18384B"/>
<stop offset="0.99" stop-color="#132C3B"/>
</linearGradient>
<linearGradient id="paint8_linear_3834_19353" x1="146.362" y1="33.666" x2="150.849" y2="49.7983" gradientUnits="userSpaceOnUse">
<stop stop-color="#FCAA86"/>
<stop offset="0.38" stop-color="#FBBA97"/>
<stop offset="0.99" stop-color="#FFC8B0"/>
</linearGradient>
<linearGradient id="paint9_linear_3834_19353" x1="87.6702" y1="56.5738" x2="57.3729" y2="78.835" gradientUnits="userSpaceOnUse">
<stop stop-color="#F7D058"/>
<stop offset="0.99" stop-color="#F9D979"/>
</linearGradient>
<linearGradient id="paint10_linear_3834_19353" x1="92.4318" y1="146.049" x2="95.6537" y2="89.9236" gradientUnits="userSpaceOnUse">
<stop stop-color="#FCAA86"/>
<stop offset="0.38" stop-color="#FBBA97"/>
<stop offset="0.99" stop-color="#FFC8B0"/>
</linearGradient>
<linearGradient id="paint11_linear_3834_19353" x1="99.3478" y1="153.937" x2="87.1321" y2="143.054" gradientUnits="userSpaceOnUse">
<stop stop-color="#9CA3AF"/>
<stop offset="0.99" stop-color="#111827"/>
</linearGradient>
<linearGradient id="paint12_linear_3834_19353" x1="62.7862" y1="154.077" x2="52.0923" y2="139.263" gradientUnits="userSpaceOnUse">
<stop stop-color="#9CA3AF"/>
<stop offset="0.99" stop-color="#111827"/>
</linearGradient>
<linearGradient id="paint13_linear_3834_19353" x1="140.309" y1="73.2525" x2="153.512" y2="93.947" gradientUnits="userSpaceOnUse">
<stop stop-color="#FCAA86"/>
<stop offset="0.38" stop-color="#FBBA97"/>
<stop offset="0.99" stop-color="#FFC8B0"/>
</linearGradient>
<linearGradient id="paint14_linear_3834_19353" x1="136.735" y1="28.7716" x2="85.6461" y2="66.3097" gradientUnits="userSpaceOnUse">
<stop stop-color="#1F4A63"/>
<stop offset="0.99" stop-color="#18384B"/>
</linearGradient>
<linearGradient id="paint15_linear_3834_19353" x1="141.701" y1="14.1807" x2="160.992" y2="39.7226" gradientUnits="userSpaceOnUse">
<stop stop-color="#9CA3AF"/>
<stop offset="0.99" stop-color="#111827"/>
</linearGradient>
<linearGradient id="paint16_linear_3834_19353" x1="75.3016" y1="48.3063" x2="65.4399" y2="55.5523" gradientUnits="userSpaceOnUse">
<stop stop-color="#9CA3AF"/>
<stop offset="0.99" stop-color="#111827"/>
</linearGradient>
<linearGradient id="paint17_linear_3834_19353" x1="95.8491" y1="67.7045" x2="85.2753" y2="75.4738" gradientUnits="userSpaceOnUse">
<stop stop-color="#ADA9D0"/>
<stop offset="0.99" stop-color="#2B285A"/>
</linearGradient>
<linearGradient id="paint18_linear_3834_19353" x1="139.141" y1="56.4449" x2="128.32" y2="64.3962" gradientUnits="userSpaceOnUse">
<stop stop-color="#ADA9D0"/>
<stop offset="0.99" stop-color="#2B285A"/>
</linearGradient>
<linearGradient id="paint19_linear_3834_19353" x1="117.804" y1="40.7736" x2="87.5373" y2="63.0121" gradientUnits="userSpaceOnUse">
<stop stop-color="#1F4A63"/>
<stop offset="0.99" stop-color="#18384B"/>
</linearGradient>
<linearGradient id="paint20_linear_3834_19353" x1="150.906" y1="26.8705" x2="144.651" y2="31.466" gradientUnits="userSpaceOnUse">
<stop stop-color="#9CA3AF"/>
<stop offset="0.99" stop-color="#111827"/>
</linearGradient>
<linearGradient id="paint21_linear_3834_19353" x1="154.868" y1="33.3993" x2="163.203" y2="51.3293" gradientUnits="userSpaceOnUse">
<stop stop-color="#9CA3AF"/>
<stop offset="0.99" stop-color="#111827"/>
</linearGradient>
<linearGradient id="paint22_linear_3834_19353" x1="145.512" y1="83.7089" x2="140.914" y2="87.0873" gradientUnits="userSpaceOnUse">
<stop stop-color="#FCAA86"/>
<stop offset="0.45" stop-color="#FBBA97"/>
<stop offset="0.98" stop-color="#FFC8B0"/>
</linearGradient>
<linearGradient id="paint23_linear_3834_19353" x1="93.0312" y1="146.801" x2="89.4086" y2="149.462" gradientUnits="userSpaceOnUse">
<stop stop-color="#9CA3AF"/>
<stop offset="0.99" stop-color="#111827"/>
</linearGradient>
<linearGradient id="paint24_linear_3834_19353" x1="59.1832" y1="140.8" x2="50.9625" y2="146.84" gradientUnits="userSpaceOnUse">
<stop stop-color="#9CA3AF"/>
<stop offset="0.99" stop-color="#111827"/>
</linearGradient>
<linearGradient id="paint25_linear_3834_19353" x1="108.467" y1="104.182" x2="76.606" y2="127.592" gradientUnits="userSpaceOnUse">
<stop stop-color="#FCAA86"/>
<stop offset="0.45" stop-color="#FBBA97"/>
<stop offset="0.98" stop-color="#FFC8B0"/>
</linearGradient>
<linearGradient id="paint26_linear_3834_19353" x1="51.0152" y1="151.068" x2="66.7079" y2="156.916" gradientUnits="userSpaceOnUse">
<stop stop-color="#F7D058"/>
<stop offset="0.99" stop-color="#F9D979"/>
</linearGradient>
<linearGradient id="paint27_linear_3834_19353" x1="55.8435" y1="151.312" x2="52.3601" y2="153.871" gradientUnits="userSpaceOnUse">
<stop stop-color="#F7D058"/>
<stop offset="0.99" stop-color="#F9D979"/>
</linearGradient>
<linearGradient id="paint28_linear_3834_19353" x1="88.2603" y1="155.265" x2="104.73" y2="160.614" gradientUnits="userSpaceOnUse">
<stop stop-color="#F7D058"/>
<stop offset="0.99" stop-color="#F9D979"/>
</linearGradient>
<linearGradient id="paint29_linear_3834_19353" x1="95.5193" y1="156.512" x2="92.5778" y2="158.674" gradientUnits="userSpaceOnUse">
<stop stop-color="#F7D058"/>
<stop offset="0.99" stop-color="#F9D979"/>
</linearGradient>
<linearGradient id="paint30_linear_3834_19353" x1="150.372" y1="38.9916" x2="141.671" y2="45.3844" gradientUnits="userSpaceOnUse">
<stop stop-color="#FCAA86"/>
<stop offset="0.45" stop-color="#FBBA97"/>
<stop offset="0.98" stop-color="#FFC8B0"/>
</linearGradient>
<linearGradient id="paint31_linear_3834_19353" x1="147.195" y1="34.5071" x2="142.876" y2="37.6808" gradientUnits="userSpaceOnUse">
<stop stop-color="#F7D058"/>
<stop offset="0.99" stop-color="#F9D979"/>
</linearGradient>
<linearGradient id="paint32_linear_3834_19353" x1="146.405" y1="33.5631" x2="142.225" y2="36.6344" gradientUnits="userSpaceOnUse">
<stop stop-color="#F7D058"/>
<stop offset="0.99" stop-color="#F9D979"/>
</linearGradient>
<linearGradient id="paint33_linear_3834_19353" x1="120.378" y1="9.46489" x2="86.1641" y2="34.6041" gradientUnits="userSpaceOnUse">
<stop stop-color="#F7D058"/>
<stop offset="0.99" stop-color="#F9D979"/>
</linearGradient>
<linearGradient id="paint34_linear_3834_19353" x1="113.415" y1="30.3869" x2="97.5618" y2="42.0351" gradientUnits="userSpaceOnUse">
<stop stop-color="#F7D058"/>
<stop offset="0.99" stop-color="#F9D979"/>
</linearGradient>
<linearGradient id="paint35_linear_3834_19353" x1="126.45" y1="48.1292" x2="122.564" y2="50.9843" gradientUnits="userSpaceOnUse">
<stop stop-color="#ADA9D0"/>
<stop offset="0.99" stop-color="#2B285A"/>
</linearGradient>
<linearGradient id="paint36_linear_3834_19353" x1="76.7831" y1="52.4631" x2="101.691" y2="87.5626" gradientUnits="userSpaceOnUse">
<stop stop-color="#F7D058"/>
<stop offset="0.99" stop-color="#F9D979"/>
</linearGradient>
<linearGradient id="paint37_linear_3834_19353" x1="81.6013" y1="60.7718" x2="64.5562" y2="73.2959" gradientUnits="userSpaceOnUse">
<stop stop-color="#9CA3AF"/>
<stop offset="0.99" stop-color="#111827"/>
</linearGradient>
<linearGradient id="paint38_linear_3834_19353" x1="177.058" y1="138.484" x2="120.721" y2="179.878" gradientUnits="userSpaceOnUse">
<stop stop-color="#4B5563"/>
<stop offset="0.98" stop-color="#111827"/>
</linearGradient>
<linearGradient id="paint39_linear_3834_19353" x1="163.537" y1="111.613" x2="130.639" y2="135.785" gradientUnits="userSpaceOnUse">
<stop stop-color="#4B5563"/>
<stop offset="0.98" stop-color="#111827"/>
</linearGradient>
<linearGradient id="paint40_linear_3834_19353" x1="135.097" y1="92.2438" x2="87.0884" y2="127.518" gradientUnits="userSpaceOnUse">
<stop stop-color="#4B5563"/>
<stop offset="0.98" stop-color="#111827"/>
</linearGradient>
<linearGradient id="paint41_linear_3834_19353" x1="85.5922" y1="158.155" x2="71.7672" y2="168.314" gradientUnits="userSpaceOnUse">
<stop stop-color="#9CA3AF"/>
<stop offset="0.97" stop-color="#4B5563"/>
</linearGradient>
<linearGradient id="paint42_linear_3834_19353" x1="68.8944" y1="154.214" x2="55.5494" y2="164.019" gradientUnits="userSpaceOnUse">
<stop stop-color="#4B5563"/>
<stop offset="0.98" stop-color="#111827"/>
</linearGradient>
<linearGradient id="paint43_linear_3834_19353" x1="83.1152" y1="130.58" x2="40.3553" y2="161.999" gradientUnits="userSpaceOnUse">
<stop stop-color="#374151"/>
<stop offset="0.98" stop-color="#111827"/>
</linearGradient>
<linearGradient id="paint44_linear_3834_19353" x1="100.351" y1="95.6035" x2="51.9557" y2="131.162" gradientUnits="userSpaceOnUse">
<stop stop-color="#FCAA86"/>
<stop offset="0.38" stop-color="#FBBA97"/>
<stop offset="0.99" stop-color="#FFC8B0"/>
</linearGradient>
<linearGradient id="paint45_linear_3834_19353" x1="87.4072" y1="100.179" x2="49.6014" y2="127.957" gradientUnits="userSpaceOnUse">
<stop stop-color="#FCAA86"/>
<stop offset="0.45" stop-color="#FBBA97"/>
<stop offset="0.98" stop-color="#FFC8B0"/>
</linearGradient>
<linearGradient id="paint46_linear_3834_19353" x1="153.335" y1="163.094" x2="146.569" y2="162.059" gradientUnits="userSpaceOnUse">
<stop stop-color="#9CA3AF"/>
<stop offset="0.97" stop-color="#4B5563"/>
</linearGradient>
<linearGradient id="paint47_linear_3834_19353" x1="42.5905" y1="161.616" x2="35.8245" y2="160.582" gradientUnits="userSpaceOnUse">
<stop stop-color="#9CA3AF"/>
<stop offset="0.97" stop-color="#4B5563"/>
</linearGradient>
<clipPath id="clip0_3834_19353">
<rect width="184" height="207" fill="white" transform="matrix(-1 0 0 1 184 0)"/>
</clipPath>
</defs>
</svg>
