<svg width="210" height="206" viewBox="0 0 210 206" fill="none" xmlns="http://www.w3.org/2000/svg">
<path d="M37.9611 155.263L85.0275 42.0915L163.167 120.231L49.9955 167.297C46.5533 168.729 42.5876 167.943 39.9515 165.307C37.3154 162.671 36.5295 158.705 37.9611 155.263Z" fill="url(#paint0_radial_0_101)" stroke="url(#paint1_linear_0_101)"/>
<g filter="url(#filter0_b_0_101)">
<path fill-rule="evenodd" clip-rule="evenodd" d="M113.137 92.1213C135.006 113.991 157.8 126.654 164.049 120.406C168.923 115.532 162.29 100.592 148.758 83.8759L147.704 82.5867C146.28 80.8635 144.785 79.1238 143.223 77.3766L142.039 76.065C140.046 73.877 137.951 71.6809 135.765 69.4939C133.578 67.307 131.381 65.2121 129.193 63.219L127.882 62.0354C126.135 60.4738 124.395 58.9786 122.672 57.5547L121.383 56.5002C104.667 42.968 89.7266 36.3359 84.8528 41.2096C78.6044 47.458 91.2677 70.252 113.137 92.1213Z" fill="url(#paint2_radial_0_101)"/>
<path d="M163.695 120.052C162.313 121.435 159.933 121.847 156.628 121.207C153.344 120.571 149.278 118.917 144.694 116.371C135.531 111.28 124.402 102.679 113.491 91.7678C102.579 80.8564 93.978 69.727 88.8879 60.5648C86.3411 55.9806 84.6878 51.9145 84.0517 48.6302C83.4116 45.3252 83.8237 42.9459 85.2064 41.5632C86.2841 40.4855 87.9641 39.9957 90.2346 40.1387C92.5031 40.2816 95.2911 41.0541 98.4809 42.4127C104.856 45.1282 112.729 50.1386 121.067 56.8879C121.067 56.8882 121.068 56.8885 121.068 56.8888L122.353 57.9401C122.354 57.9404 122.354 57.9406 122.354 57.9409C124.072 59.3601 125.806 60.8506 127.548 62.4075C127.548 62.4077 127.548 62.408 127.549 62.4082L128.857 63.5886C128.857 63.5889 128.857 63.5891 128.857 63.5893C131.039 65.577 133.23 67.6662 135.411 69.8475C137.592 72.0287 139.681 74.219 141.669 76.4009C141.669 76.4012 141.67 76.4014 141.67 76.4017L142.85 77.7098C142.85 77.7101 142.851 77.7104 142.851 77.7107C144.408 79.4528 145.899 81.1873 147.318 82.9052C147.318 82.9052 147.318 82.9052 147.318 82.9052L148.37 84.1905C148.37 84.1908 148.37 84.191 148.37 84.1912C155.12 92.5287 160.13 100.402 162.846 106.778C164.204 109.967 164.977 112.755 165.12 115.024C165.263 117.294 164.773 118.974 163.695 120.052Z" stroke="url(#paint3_radial_0_101)"/>
</g>
<path fill-rule="evenodd" clip-rule="evenodd" d="M203.679 31.9989L183.029 32.8622L194.875 54.3372L203.679 31.9989Z" fill="#FFDAFE"/>
<path fill-rule="evenodd" clip-rule="evenodd" d="M111.015 5.17935L99.7505 31.0777L120.786 30.278L111.015 5.17935Z" fill="#5B72F2"/>
<circle cx="156.463" cy="10.7832" r="7" transform="rotate(45 156.463 10.7832)" fill="#E965E2"/>
<circle cx="154.392" cy="98.8076" r="7" transform="rotate(45 154.392 98.8076)" fill="#E965E2"/>
<path fill-rule="evenodd" clip-rule="evenodd" d="M132.247 43.9124C130.092 42.6802 129.342 39.9355 130.571 37.7785C131.802 35.6167 134.554 34.8646 136.714 36.0997L137.292 36.4301L138.244 36.9895L139.148 37.5303L140.019 38.0614C146.127 41.8236 150.4 45.3137 153.195 49.4117L153.406 49.7259L153.501 49.8736L153.753 49.8319C162.849 48.3659 170.141 51.5621 175.137 58.5362L175.37 58.8659C178.12 62.8277 180.429 71.8712 181.649 77.3826C182.199 79.8654 180.503 82.241 177.989 82.6212C175.558 82.9887 173.276 81.3444 172.772 78.9381C171.78 74.2064 170.007 66.9228 167.977 63.9988C165.242 60.0596 161.709 58.1347 156.777 58.5138L156.362 58.5509L156.367 58.6467C156.446 61.5068 155.73 64.4453 154.158 67.4052L153.965 67.7605L153.466 68.6445C147.286 79.3889 140.212 84.2303 133.246 82.4683C127.143 80.9247 123.202 74.2627 124.141 68.331C125.398 60.3945 131.038 55.6677 139.339 53.0758C139.531 53.0158 139.738 52.9547 139.956 52.8927L140.645 52.7051C140.885 52.6421 141.134 52.5786 141.389 52.5152L142.175 52.3252L142.987 52.1374L143.679 51.9831L143.66 51.9631C141.758 50.0653 139.108 48.096 135.696 45.9704L135.299 45.7244L134.49 45.2311L133.644 44.7255L132.748 44.199L132.247 43.9124ZM147.182 60.5243L147.195 60.4442L145.471 60.8119L144.465 61.0373L143.532 61.2584L142.967 61.4008L142.46 61.5375L142.021 61.6668C136.64 63.3471 133.645 65.8569 133.031 69.7389C132.791 71.2496 134.058 73.3902 135.453 73.743C137.052 74.1475 139.424 72.9191 142.277 69.2843L142.679 68.7614C142.746 68.6716 142.814 68.5805 142.882 68.4881L143.292 67.9175C143.499 67.6241 143.707 67.3186 143.918 67.0007L144.343 66.3482C144.414 66.2366 144.486 66.1237 144.557 66.0094L144.99 65.3064L145.427 64.5691C145.501 64.4433 145.574 64.3161 145.648 64.1874L146.093 63.3979C146.636 62.4181 146.999 61.4638 147.182 60.5243Z" fill="white"/>
<defs>
<filter id="filter0_b_0_101" x="69.6663" y="26.0231" width="109.569" height="109.569" filterUnits="userSpaceOnUse" color-interpolation-filters="sRGB">
<feFlood flood-opacity="0" result="BackgroundImageFix"/>
<feGaussianBlur in="BackgroundImageFix" stdDeviation="6.7957"/>
<feComposite in2="SourceAlpha" operator="in" result="effect1_backgroundBlur_0_101"/>
<feBlend mode="normal" in="SourceGraphic" in2="effect1_backgroundBlur_0_101" result="shape"/>
</filter>
<radialGradient id="paint0_radial_0_101" cx="0" cy="0" r="1" gradientUnits="userSpaceOnUse" gradientTransform="translate(83.4264 55.308) rotate(49.4017) scale(103.344 110.642)">
<stop stop-color="#F065E2"/>
<stop offset="1" stop-color="#3748FA"/>
</radialGradient>
<linearGradient id="paint1_linear_0_101" x1="36.1433" y1="59.0383" x2="51.1825" y2="147.887" gradientUnits="userSpaceOnUse">
<stop stop-color="white" stop-opacity="0.29535"/>
<stop offset="1" stop-color="white" stop-opacity="0.01"/>
</linearGradient>
<radialGradient id="paint2_radial_0_101" cx="0" cy="0" r="1" gradientUnits="userSpaceOnUse" gradientTransform="translate(90.903 80.8076) rotate(34.3143) scale(73.0722)">
<stop stop-color="white" stop-opacity="0.801593"/>
<stop offset="1" stop-color="#889AFF" stop-opacity="0.301884"/>
</radialGradient>
<radialGradient id="paint3_radial_0_101" cx="0" cy="0" r="1" gradientUnits="userSpaceOnUse" gradientTransform="translate(91.2046 47.606) rotate(70.2944) scale(47.4778 71.8208)">
<stop stop-color="white" stop-opacity="0.973411"/>
<stop offset="1" stop-color="white" stop-opacity="0.01"/>
</radialGradient>
</defs>
</svg>
