<svg width="100" height="110" viewBox="0 0 100 110" fill="none" xmlns="http://www.w3.org/2000/svg">
<path d="M97.9286 109.927H12.07C9.82086 109.927 7.99805 108.104 7.99805 105.855V40.2012H102.001V105.855C102.001 108.104 100.178 109.927 97.9286 109.927Z" fill="#F7D058"/>
<path d="M7.99805 40.2012H102.001V53.8631H7.99805V40.2012Z" fill="#C6A646"/>
<path d="M110 25.9577V42.8834C110 44.6911 108.533 46.1555 106.725 46.1555H3.27217C1.46446 46.1555 0 44.6911 0 42.8834V25.9577C0 24.15 1.46446 22.6855 3.27217 22.6855H106.725C108.533 22.6855 110 24.15 110 25.9577Z" fill="#F7D058"/>
<path d="M51.2605 30.4675C50.5463 31.2991 49.8455 32.1426 49.1616 32.9952C46.6128 36.1667 44.2797 39.4901 42.1707 42.9393C41.522 44.0001 40.896 45.0718 40.2883 46.1561H17.979C19.2823 43.1986 20.7115 40.2957 22.2599 37.4583C25.068 32.3104 28.2722 27.3707 31.8524 22.6861C32.7076 21.5674 33.5829 20.4621 34.48 19.3736C35.0171 18.7174 35.5635 18.0703 36.1174 17.4258C38.1533 19.1798 40.1876 20.9321 42.2245 22.6861C42.54 22.9563 42.8556 23.2299 43.1703 23.501C45.5738 25.5705 47.9774 27.6393 50.3801 29.7113C50.6747 29.9614 50.9668 30.2157 51.2605 30.4675Z" fill="#C6A646"/>
<path d="M54.9984 30.4693C54.2834 31.3001 53.5827 32.1436 52.8987 32.9962C50.3508 36.1677 48.0169 39.491 45.9079 42.9411C39.2125 53.8856 34.7654 66.1115 32.8897 78.9082C30.0707 75.1694 27.4691 71.1243 25.1284 66.7989C21.0112 69.4844 16.987 72.556 13.1123 76.012C15.1021 62.4382 19.4863 49.3915 25.9979 37.4593C29.4757 31.0828 33.5627 25.0243 38.2171 19.3746C38.7542 18.7183 39.3006 18.0721 39.8545 17.4268C42.206 19.4518 44.5559 21.4769 46.9082 23.502C49.311 25.5715 51.7145 27.6402 54.1181 29.7123C54.4118 29.9624 54.7039 30.2167 54.9984 30.4693Z" fill="#D75F6B"/>
<path d="M96.8864 76.012C93.0116 72.556 88.9875 69.4844 84.8702 66.7989C82.5296 71.1243 79.928 75.1694 77.109 78.9082C75.2333 66.1115 70.787 53.8856 64.0908 42.9411C61.9818 39.491 59.6462 36.1677 57.1 32.9962C56.4135 32.1436 55.7127 31.3001 54.9985 30.4693C55.2923 30.2167 55.5843 29.9641 55.8789 29.7123C58.2841 27.6402 60.6877 25.569 63.0913 23.502C65.4428 21.4744 67.7952 19.4518 70.1442 17.4268C70.6981 18.0696 71.2444 18.7183 71.7815 19.3729C76.4368 25.0227 80.5238 31.0811 84.0033 37.4593C90.5132 49.3915 94.8965 62.4382 96.8864 76.012Z" fill="#D75F6B"/>
<path d="M46.2417 30.4697H63.7573V46.1567H46.2417V30.4697Z" fill="#D75F6B"/>
<path d="M84.0033 37.4594L64.0908 42.9412C61.9818 39.4911 59.6462 36.1678 57.1 32.9963L55.8789 29.7124L54.9985 27.3441L63.0913 23.5021L71.7815 19.373C76.4368 25.0228 80.5238 31.0812 84.0033 37.4594Z" fill="#AC4C56"/>
<path d="M54.9981 27.3434L54.1178 29.7117L52.8983 32.9956C50.3504 36.1671 48.0165 39.4904 45.9075 42.9405L25.9976 37.4587C29.4753 31.0822 33.5624 25.0237 38.2168 19.374L46.9079 23.5014L54.9981 27.3434Z" fill="#AC4C56"/>
<path d="M86.7783 0.761014L54.999 15.8529L61.1036 32.2709L95.0237 22.9344C99.4599 21.7133 101.897 16.9523 100.293 12.6395L97.4936 5.1116C95.8907 0.798779 90.935 -1.21286 86.7783 0.761014Z" fill="#D75F6B"/>
<path d="M23.2198 0.761014L54.999 15.8529L48.8945 32.2709L14.9752 22.9344C10.539 21.7133 8.10184 16.9523 9.70562 12.6395L12.5045 5.1116C14.1082 0.798779 19.0631 -1.21286 23.2198 0.761014Z" fill="#D75F6B"/>
<path d="M62.5874 22.4508C62.01 22.4508 61.4435 22.1654 61.1103 21.6426C60.5892 20.8277 60.8267 19.7451 61.6416 19.2239C61.8824 19.0703 67.606 15.4281 74.1772 12.7702C83.6505 8.93828 89.9766 9.14389 92.9777 13.3812C93.5375 14.1709 93.3503 15.2644 92.5606 15.8234C91.7709 16.3823 90.6782 16.196 90.1193 15.4063C86.0507 9.66254 69.1342 18.5937 63.529 22.1755C63.2369 22.3618 62.9105 22.4508 62.5874 22.4508Z" fill="#AC4C56"/>
<path d="M47.2379 22.4508C46.9148 22.4508 46.5884 22.3618 46.2963 22.1755C40.6911 18.5937 23.7747 9.66254 19.7061 15.4063C19.1463 16.196 18.0536 16.3823 17.2639 15.8234C16.475 15.2636 16.2879 14.1709 16.8476 13.3812C19.8487 9.14389 26.174 8.93828 35.6481 12.7702C42.2193 15.4272 47.9429 19.0703 48.1838 19.2239C48.9987 19.7451 49.2362 20.8277 48.7158 21.6426C48.381 22.1654 47.8153 22.4508 47.2379 22.4508Z" fill="#AC4C56"/>
<path d="M59.9828 10.21H50.016C47.2885 10.21 45.0771 12.4213 45.0771 15.1497V29.629C45.0771 32.3573 47.2885 34.5687 50.016 34.5687H59.9828C62.7103 34.5687 64.9217 32.3573 64.9217 29.629V15.1497C64.9217 12.4213 62.7103 10.21 59.9828 10.21Z" fill="#AC4C56"/>
<path d="M46.2417 46.1562H63.7573V109.927H46.2417V46.1562Z" fill="#D75F6B"/>
<path d="M46.2417 46.1562H63.7573V53.8629H46.2417V46.1562Z" fill="#AC4C56"/>
</svg>
