<svg width="343" height="399" viewBox="0 0 343 399" fill="none" xmlns="http://www.w3.org/2000/svg">
<g filter="url(#filter0_f_3834_15491)">
<path d="M99.9242 368.489C99.9242 368.489 98.6939 369.054 96.5991 369.952C95.4686 370.384 94.1386 370.916 92.5759 371.448C91.013 371.98 89.2507 372.679 87.3554 373.31L81.1375 375.339L74.1879 377.434C71.7273 378.132 69.2334 378.863 66.6731 379.528L58.9257 381.557C56.3321 382.222 53.7052 382.92 51.1449 383.519C48.5845 384.117 46.0241 384.749 43.5968 385.347L36.5143 387.01C34.2532 387.542 32.092 387.908 30.1302 388.406C28.1683 388.905 26.3395 389.204 24.7435 389.57C23.1474 389.936 21.6844 390.169 20.5538 390.402C18.193 390.834 16.8297 391 16.8297 391L16.464 389.936C16.464 389.936 17.6943 389.304 19.7891 388.307C20.8531 387.808 22.1499 387.143 23.6794 386.478C25.209 385.813 27.0045 385.048 28.8 384.283C30.5956 383.519 32.7237 382.72 34.9183 381.889L41.8346 379.429C44.2287 378.564 46.7225 377.799 49.2828 377.035C51.8432 376.27 54.4368 375.472 57.0304 374.74C59.624 374.009 62.2507 373.344 64.8443 372.712C67.4379 372.08 69.9982 371.448 72.492 370.95C74.9859 370.451 77.3801 369.985 79.6744 369.586C81.9687 369.187 84.1633 368.822 86.3246 368.589C88.4859 368.356 90.1817 368.057 91.8442 367.924C93.5068 367.791 94.9365 367.625 96.1335 367.558C97.3306 367.491 98.2617 367.558 98.8934 367.558H99.8909L99.9242 368.489Z" fill="#D1D5DB"/>
</g>
<path d="M61.3531 343.916C61.103 343.906 60.8609 343.825 60.6547 343.684C60.4224 343.494 60.272 343.223 60.2348 342.926C60.1977 342.628 60.2766 342.328 60.4552 342.088L77.7791 319.942C77.9682 319.729 78.2307 319.595 78.5142 319.568C78.7977 319.54 79.0814 319.62 79.3083 319.792C79.5352 319.965 79.6886 320.216 79.738 320.497C79.7874 320.777 79.729 321.066 79.5746 321.306L62.2509 343.484C62.1397 343.615 62.0023 343.721 61.8477 343.795C61.693 343.87 61.5246 343.911 61.3531 343.916Z" fill="#374151"/>
<path d="M34.2868 180.62C31.9045 179.506 29.1994 179.293 26.6723 180.021C28.6386 181.835 29.9874 184.219 30.5294 186.838L40.5047 183.878C38.5011 182.665 36.4245 181.577 34.2868 180.62Z" fill="url(#paint0_linear_3834_15491)"/>
<path d="M26.6721 180.022C25.3753 180.388 24.0451 182.782 27.4035 189.465C30.7619 196.149 28.5673 198.376 26.2065 199.141C26.2065 199.141 24.7767 195.816 23.4799 197.545C22.1831 199.274 24.677 203.065 29.1326 200.87C33.5883 198.676 32.8568 191.194 31.2607 187.337C29.6647 183.48 28.2016 179.589 26.6721 180.022Z" fill="url(#paint1_linear_3834_15491)"/>
<path d="M99.2264 363.9C98.33 363.89 97.4375 363.778 96.5661 363.568C89.2509 361.672 84.9947 352.329 84.2965 336.534C83.9556 320.965 85.8254 305.426 89.8495 290.382C97.1648 262.152 113.125 232.159 128.255 232.159C129.196 232.151 130.134 232.263 131.048 232.492C146.509 236.515 144.814 272.127 136.7 303.516C133.156 317.804 127.803 331.581 120.773 344.515C113.458 357.383 106.209 363.9 99.2264 363.9ZM128.255 239.74C125.162 239.74 119.443 243.598 112.726 254.371C105.733 266.183 100.502 278.953 97.1979 292.277C93.3865 306.599 91.5959 321.384 91.8778 336.202C92.4763 349.868 95.8014 355.521 98.528 356.153C98.7807 356.201 99.0401 356.201 99.2927 356.153C106.841 356.153 121.072 333.708 129.418 301.488C138.23 267.405 136.401 241.636 129.219 239.74C128.9 239.679 128.573 239.679 128.255 239.74Z" fill="url(#paint2_linear_3834_15491)"/>
<path d="M98.162 366.461C97.2109 366.449 96.2635 366.337 95.3356 366.128C80.7383 362.338 77.0807 329.352 86.9895 291.047C96.1003 255.734 113.591 229.1 127.889 229.1C128.842 229.105 129.791 229.228 130.715 229.466C145.312 233.257 149.003 266.042 139.061 304.514C129.95 339.827 112.36 366.461 98.162 366.461ZM127.889 232.359C115.353 232.359 98.7604 258.494 90.1151 291.878C80.9711 327.191 83.7642 359.744 96.1669 362.969C96.8194 363.131 97.4899 363.209 98.162 363.202C110.698 363.202 127.29 337.067 135.935 303.716C145.079 268.403 142.319 235.817 129.884 232.625C129.232 232.453 128.562 232.363 127.889 232.359Z" fill="url(#paint3_linear_3834_15491)"/>
<path d="M23.0809 309.269C21.2829 312.52 19.045 315.507 16.4306 318.147C13.1055 321.04 5.1917 327.224 2.86412 325.196C2.70847 325.084 2.58288 324.936 2.4984 324.764C0.802597 321.439 9.14861 315.587 11.2102 314.057C13.8576 313.633 16.4321 312.838 18.8579 311.696C20.338 311.02 21.7519 310.208 23.0809 309.269Z" fill="#275D7C"/>
<path style="mix-blend-mode:multiply" opacity="0.6" d="M23.0807 309.269C21.2827 312.52 19.0449 315.507 16.4305 318.147C14.0697 320.275 5.32457 327.357 2.86398 325.196C6.12213 322.772 9.67521 320.772 13.4378 319.244C16.0951 317.569 18.0288 314.959 18.8578 311.929C20.347 311.179 21.7612 310.288 23.0807 309.269Z" fill="url(#paint4_linear_3834_15491)"/>
<path d="M84.7285 216.166C84.7285 216.166 62.9157 238.976 61.4527 242.068C59.9896 245.161 58.6263 257.43 51.4773 270.265C44.3283 283.1 23.081 309.269 23.081 309.269C21.8158 310.188 20.4689 310.99 19.0575 311.663C16.6258 312.827 14.0387 313.633 11.3765 314.057C12.9393 302.353 27.7028 262.086 34.0538 244.596C40.4047 227.105 58.9922 200.538 61.5192 196.448C69.0835 199.436 75.7328 204.355 80.8048 210.713C82.2191 212.451 83.5293 214.272 84.7285 216.166Z" fill="url(#paint5_linear_3834_15491)"/>
<path style="mix-blend-mode:multiply" opacity="0.5" d="M84.7286 216.165C84.7286 216.165 62.9159 238.976 61.4529 242.068C59.9898 245.16 58.6265 257.43 51.4775 270.265C44.3285 283.1 23.0811 309.269 23.0811 309.269C21.8159 310.188 20.4691 310.989 19.0577 311.663C21.2059 305.945 24.6155 300.785 29.033 296.567C39.7399 285.893 48.0194 266.441 50.4467 254.471C52.8741 242.5 57.097 239.541 63.9467 234.188C69.6991 229.632 74.9529 216.697 80.8383 210.712C82.2412 212.452 83.5402 214.273 84.7286 216.165Z" fill="url(#paint6_linear_3834_15491)"/>
<path d="M120.241 221.153C120.098 221.184 119.951 221.184 119.809 221.153C119.668 221.103 119.54 221.023 119.433 220.92C119.325 220.817 119.24 220.693 119.184 220.555C119.127 220.417 119.1 220.269 119.105 220.12C119.109 219.971 119.145 219.824 119.21 219.69L136.401 180.288C136.518 180.016 136.737 179.802 137.01 179.69C137.284 179.578 137.59 179.578 137.864 179.689C138.002 179.747 138.128 179.832 138.233 179.939C138.338 180.046 138.421 180.173 138.477 180.312C138.532 180.451 138.56 180.6 138.557 180.75C138.555 180.9 138.523 181.048 138.462 181.185L121.272 220.588C121.168 220.768 121.017 220.915 120.836 221.015C120.654 221.115 120.448 221.163 120.241 221.153Z" fill="url(#paint7_linear_3834_15491)"/>
<path d="M18.4923 385.747C17.5606 385.742 16.6333 385.619 15.7324 385.381C8.11793 383.419 3.72893 373.71 2.9974 357.317C2.63403 341.107 4.58214 324.929 8.78306 309.269C16.3643 279.941 32.9234 248.752 48.6844 248.752C49.671 248.755 50.6536 248.878 51.6105 249.118C67.6708 253.274 65.9085 290.283 57.4627 322.902C53.7501 337.748 48.1634 352.061 40.8372 365.497C33.2892 378.864 25.7411 385.747 18.4923 385.747ZM48.6511 256.732C45.326 256.732 39.4739 260.722 32.5244 271.961C25.287 284.203 19.8658 297.431 16.4308 311.231C12.4449 326.1 10.5866 341.46 10.9112 356.851C11.543 371.05 14.9678 376.802 17.5614 377.667C17.8265 377.699 18.0944 377.699 18.3594 377.667C26.2067 377.667 41.0033 354.391 49.6486 320.84C58.8259 285.395 56.8974 258.594 49.6486 256.666C49.3181 256.62 48.9839 256.609 48.6511 256.632V256.732Z" fill="url(#paint8_linear_3834_15491)"/>
<path d="M173.043 123.295C172.181 133.4 169.262 143.222 164.465 152.157C164.465 152.423 164.165 152.656 164.032 152.889C162.944 154.939 161.722 156.916 160.375 158.807C160.375 158.807 160.375 157.577 155.52 156.679H155.354C153.311 156.228 151.227 155.994 149.136 155.981C137.863 155.316 136.168 157.71 136.168 157.71V158.042L134.938 160.403C134.273 161.733 133.408 163.396 132.377 165.291L130.316 164.759L129.484 164.493C120.274 161.667 113.424 157.012 111.263 152.822C111.263 152.589 111.063 152.423 110.997 152.224C110.93 152.024 110.797 151.725 110.697 151.425C108.237 144.41 99.5583 111.225 98.727 107.7C97.8957 104.176 96.4992 105.572 93.1076 108.565C90.7467 110.626 83.7973 118.241 79.8071 122.663C79.5794 122.868 79.3681 123.09 79.1753 123.328L76.881 125.855L74.9857 122.53L65.2098 105.439C65.2098 105.439 65.7751 103.644 67.0386 100.718C67.0386 100.452 67.3048 100.152 67.4378 99.8198C71.7635 89.5618 78.0297 80.2359 85.8921 72.3543C99.1926 59.7854 114.455 65.3051 123.3 68.6302L125.162 69.3617C134.211 72.5428 142.966 76.5035 151.33 81.1991C163.334 88.1819 169.086 95.0316 171.68 102.314C173.62 109.131 174.085 116.284 173.043 123.295Z" fill="url(#paint9_linear_3834_15491)"/>
<path d="M135.47 91.5737C123 88.8471 120.34 72.1218 123.134 68.5972L124.996 69.3287C134.045 72.5098 142.8 76.4704 151.164 81.1661C153.399 82.985 155.099 85.375 156.085 88.0823C157.515 93.1365 149.236 94.5663 135.47 91.5737Z" fill="#C6A646"/>
<path style="mix-blend-mode:multiply" opacity="0.6" d="M112.859 147.236C111.921 148.971 111.27 150.846 110.93 152.789C110.93 152.556 110.731 152.39 110.664 152.19C110.598 151.991 110.465 151.692 110.365 151.392C107.905 144.376 99.2261 111.192 98.3948 107.667C97.5635 104.143 96.167 105.539 92.7753 108.532C90.4145 110.593 83.465 118.208 79.4749 122.63C79.2471 122.835 79.0359 123.057 78.8431 123.295L76.5488 125.822L74.6534 122.497C75.9835 117.909 76.848 113.586 80.5057 111.192C84.1633 108.798 88.6522 108.798 91.4785 105.406C94.3048 102.015 101.454 95.6968 101.886 106.537C101.884 115.337 105.155 123.823 111.063 130.344C113.115 132.606 114.395 135.461 114.718 138.497C115.04 141.534 114.389 144.594 112.859 147.236Z" fill="url(#paint10_linear_3834_15491)"/>
<path d="M168.954 204.295C167.969 204.199 166.978 204.199 165.994 204.295C161.866 204.851 157.809 205.843 153.891 207.254C148.837 208.984 144.846 210.58 142.087 211.81C139.327 213.04 137.764 213.838 137.697 213.871C135.004 207.221 128.952 185.575 126.691 182.748C124.43 179.922 110.664 191.36 103.881 197.412C97.0979 203.464 84.7285 216.133 84.7285 216.133C83.4784 214.241 82.1242 212.42 80.6719 210.679C75.582 204.326 68.9234 199.409 61.353 196.415C68.0875 188.022 75.2924 180.018 82.933 172.441C88.3435 167.2 94.1704 162.407 100.357 158.109C105.51 154.452 109.534 152.058 110.664 151.459C110.664 151.758 110.897 152.024 110.964 152.257C112.925 157.045 121.238 162.532 132.344 165.325C133.375 163.43 134.239 161.767 134.904 160.437L136.135 158.076L144.58 160.237L157.615 163.563C159.865 168.537 161.743 173.672 163.235 178.925C165.568 187.279 167.477 195.747 168.954 204.295Z" fill="url(#paint11_linear_3834_15491)"/>
<path style="mix-blend-mode:multiply" opacity="0.5" d="M168.954 204.295C167.97 204.199 166.979 204.199 165.994 204.295C165.994 201.236 165.629 197.645 165.296 194.32C164.83 187.382 162.268 180.749 157.948 175.3C153.259 168.849 149.103 169.681 142.12 161.8L144.414 160.204L157.449 163.529C159.699 168.504 161.577 173.639 163.068 178.891C165.459 187.254 167.423 195.733 168.954 204.295Z" fill="url(#paint12_linear_3834_15491)"/>
<path style="mix-blend-mode:multiply" opacity="0.5" d="M142.087 211.943C139.294 213.173 137.764 213.971 137.698 214.004C135.004 207.354 128.953 185.708 126.692 182.881C124.43 180.055 110.665 191.493 103.881 197.545C97.0981 203.597 84.7287 216.265 84.7287 216.265C83.4786 214.374 82.1244 212.553 80.6721 210.812C83.831 207.487 89.8493 201.635 95.3025 196.547C101.482 191.019 108.644 186.699 116.417 183.812C123.899 180.986 128.288 172.507 132.178 181.352C136.068 190.196 142.486 196.248 142.153 202.466C141.949 205.621 141.927 208.785 142.087 211.943Z" fill="url(#paint13_linear_3834_15491)"/>
<path d="M123.965 55.729C123.057 57.0333 122.444 58.5198 122.169 60.0849C122.169 60.0849 123.267 60.0849 124.165 62.3127C124.29 61.6202 124.562 60.9626 124.963 60.3842C125.694 59.2869 126.16 58.8214 126.16 58.4889L124.996 57.1588C124.628 56.7004 124.284 56.2232 123.965 55.729Z" fill="url(#paint14_linear_3834_15491)"/>
<path d="M164.465 152.157C164.465 152.423 164.165 152.656 164.032 152.889C162.419 152.297 160.776 151.786 159.111 151.359H158.911C154.643 150.22 150.195 149.915 145.811 150.462C143.191 150.721 140.661 151.549 138.396 152.889C138.315 152.966 138.208 153.009 138.096 153.009C137.985 153.009 137.878 152.966 137.797 152.889C137.755 152.855 137.722 152.811 137.699 152.763C137.676 152.714 137.664 152.66 137.664 152.606C137.664 152.552 137.676 152.499 137.699 152.45C137.722 152.401 137.755 152.358 137.797 152.324C138.13 152.058 145.378 147.303 158.745 150.595C160.845 141.855 162.224 132.958 162.868 123.994V122.73C163.234 111.358 163.633 99.4543 155.62 92.6045C147.606 85.7548 127.456 77.2093 111.13 74.2832C94.8033 71.3571 88.5521 79.9359 81.6359 88.9469C77.6351 93.9012 74.0433 99.1722 70.8959 104.708C70.8689 104.829 70.7978 104.936 70.6964 105.007C74.021 110.696 76.9969 116.581 79.6076 122.63C79.3799 122.835 79.1686 123.057 78.9759 123.295C75.6609 115.388 71.5968 107.817 66.8391 100.685C66.8391 100.419 67.1053 100.119 67.2383 99.7868C68.2026 101.084 69.2 102.58 70.1975 104.176C73.3956 98.6825 76.985 93.4263 80.9378 88.4482C87.588 79.6034 94.737 70.4926 111.263 73.4519C127.789 76.4113 147.839 84.6908 156.185 91.9395C164.531 99.1883 164.065 111.89 163.7 122.763V123.661C163.069 132.737 161.69 141.746 159.577 150.595C161.231 151.034 162.862 151.555 164.465 152.157Z" fill="#F7D058"/>
<path d="M152.494 69.2289H151.796C143.83 68.3359 136.187 65.5792 129.485 61.1821C128.274 60.4181 127.158 59.5141 126.16 58.4888C124.441 56.8626 123.089 54.8883 122.195 52.6979C121.3 50.5074 120.883 48.1513 120.972 45.7869C121.021 45.5416 121.15 45.3195 121.338 45.1551C135.703 33.883 147.939 43.7253 153.126 50.7745C154.604 52.7063 155.524 55.0065 155.786 57.4248C156.518 63.2105 154.157 68.7302 152.494 69.2289Z" fill="url(#paint15_linear_3834_15491)"/>
<path d="M76.715 125.822C76.715 125.822 66.0081 139.921 60.0894 149.098C54.1707 158.275 44.8937 177.262 44.8937 177.262C44.5421 177.045 44.2086 176.8 43.8962 176.53C42.1854 175.053 40.7938 173.243 39.8063 171.21C41.9805 161.859 44.7006 152.644 47.9527 143.612C52.886 130.484 58.6387 117.68 65.1768 105.273L74.7531 121.899L76.715 125.822Z" fill="url(#paint16_linear_3834_15491)"/>
<path d="M149.103 155.981C137.831 155.283 136.135 157.677 136.135 157.677C140.374 156.596 144.728 156.026 149.103 155.981Z" fill="url(#paint17_linear_3834_15491)"/>
<path d="M134.739 160.37C134.073 161.7 133.209 163.363 132.178 165.291L134.739 160.37Z" fill="url(#paint18_linear_3834_15491)"/>
<path d="M134.739 160.37C134.073 161.7 133.209 163.363 132.178 165.291L134.739 160.37Z" fill="url(#paint19_linear_3834_15491)"/>
<path d="M155.52 156.679C157.258 157.078 158.905 157.799 160.375 158.807C160.375 158.807 160.375 157.577 155.52 156.679Z" fill="url(#paint20_linear_3834_15491)"/>
<path d="M142.785 86.952C142.286 87.3177 141.787 87.6835 141.255 88.016C136.633 90.8756 130.316 92.4052 126.226 88.415C125.776 87.9717 125.374 87.4812 125.029 86.952C123.377 84.4306 122.425 81.5161 122.269 78.5062C122.086 76.3495 122.209 74.1776 122.635 72.0555C117.148 71.0579 118.412 61.7476 120.773 60.4176C123.133 59.0875 124.098 62.3129 124.098 62.3129C124.098 61.0493 126.226 58.622 126.059 58.489C127.058 59.5143 128.174 60.4183 129.385 61.1823C134.529 64.4992 140.177 66.9585 146.11 68.4643C147.917 68.9828 149.784 69.2623 151.663 69.2956C151.101 76.1085 147.918 82.4378 142.785 86.952Z" fill="url(#paint21_linear_3834_15491)"/>
<path d="M103.615 105.406C103.679 108.235 103.935 111.057 104.38 113.852C110.238 115.878 116.271 117.358 122.402 118.274C122.513 115.362 122.357 112.446 121.936 109.562L103.615 105.406Z" fill="url(#paint22_linear_3834_15491)"/>
<path d="M135.902 158.575C135.801 158.524 135.722 158.44 135.679 158.336C135.637 158.232 135.633 158.116 135.669 158.009C139.36 148.932 143.649 133.47 146.21 124.226C147.074 121.167 147.739 118.74 148.105 117.576C148.136 117.466 148.209 117.373 148.309 117.317C148.409 117.26 148.527 117.246 148.637 117.277C148.743 117.315 148.831 117.389 148.886 117.487C148.941 117.585 148.959 117.699 148.936 117.809C148.537 119.006 147.872 121.433 147.041 124.459C144.447 133.736 140.158 149.231 136.467 158.375C136.417 158.475 136.33 158.552 136.225 158.589C136.119 158.626 136.003 158.621 135.902 158.575Z" fill="#8581B6"/>
<path d="M129.485 104.475H129.285C129.068 104.542 128.837 104.542 128.62 104.475C127.897 115.012 127.82 125.584 128.387 136.13C128.853 145.64 129.219 159.14 129.385 164.36L130.216 164.626C130.216 159.606 129.717 145.806 129.252 136.097C128.654 125.562 128.732 115 129.485 104.475Z" fill="#F7D058"/>
<path d="M141.388 88.0159C139.229 90.7838 137.209 93.6581 135.337 96.628C133.706 99.4677 131.741 102.102 129.485 104.475H129.285C129.068 104.542 128.837 104.542 128.62 104.475C126.891 104.043 124.63 100.252 123.3 94.6994C122.397 90.3274 122.072 85.8555 122.335 81.399C122.335 80.1022 122.335 79.0381 122.335 78.3398C122.492 81.3498 123.444 84.2643 125.095 86.7856C129.052 92.5381 136.234 91.0085 141.322 87.8497L141.388 88.0159Z" fill="url(#paint23_linear_3834_15491)"/>
<path d="M140.923 63.8091C142.652 63.8091 138.828 60.7168 135.337 55.6294C131.845 50.5419 126.858 43.526 125.927 44.856C124.995 46.186 128.42 53.1688 131.779 57.3252C134.035 60.4294 137.247 62.7073 140.923 63.8091Z" fill="url(#paint24_linear_3834_15491)"/>
<path d="M133.341 43.4594C132.61 43.9914 135.436 47.7487 138.263 52.4039C141.089 57.0591 143.949 64.1083 144.913 64.4741C145.877 64.8398 145.744 57.4581 143.217 52.1046C140.69 46.7512 134.539 42.5283 133.341 43.4594Z" fill="url(#paint25_linear_3834_15491)"/>
<path d="M146.11 48.0148C145.279 48.5468 147.407 53.2352 148.039 57.5911C148.67 61.947 149.07 64.9396 150.134 65.2056C151.198 65.4717 152.461 59.42 151.264 54.665C150.067 49.9101 147.274 47.3165 146.11 48.0148Z" fill="url(#paint26_linear_3834_15491)"/>
<path d="M132.178 111.192C131.616 113.667 131.482 116.219 131.779 118.74C132.211 119.77 140.524 120.635 146.01 119.937C146.948 117.311 147.649 114.607 148.105 111.857L132.178 111.192Z" fill="url(#paint27_linear_3834_15491)"/>
<path d="M160.375 158.807C150.931 175.699 122.07 205.359 122.07 205.359C121.14 205.421 120.206 205.421 119.276 205.359C116.449 205.405 113.664 204.669 111.23 203.231C115.486 196.946 126.193 176.63 132.178 165.192L134.705 160.304L136.102 157.61C136.102 157.61 137.797 155.216 149.07 155.881C151.042 155.998 153.006 156.22 154.955 156.546H155.454C160.375 157.577 160.375 158.807 160.375 158.807Z" fill="url(#paint28_linear_3834_15491)"/>
<path style="mix-blend-mode:multiply" opacity="0.6" d="M173.043 123.295C172.181 133.4 169.262 143.222 164.465 152.157C164.465 152.423 164.166 152.656 164.032 152.889C162.944 154.939 161.722 156.916 160.375 158.807C160.375 158.807 160.375 157.577 155.52 156.679H155.354C158.66 147.82 162.837 139.31 167.823 131.275C172.611 123.162 173.243 113.453 171.514 102.314C173.51 109.119 174.031 116.272 173.043 123.295Z" fill="url(#paint29_linear_3834_15491)"/>
<path d="M76.715 125.822C76.715 125.822 66.0082 139.921 60.0895 149.098C54.1708 158.275 44.8937 177.262 44.8937 177.262C44.5421 177.045 44.2086 176.8 43.8962 176.53C45.2595 172.872 47.9195 165.391 49.6486 158.807C52.0426 149.663 55.8666 145.972 62.6166 138.291C67.4008 133.464 71.4858 127.991 74.7531 122.031L76.715 125.822Z" fill="url(#paint30_linear_3834_15491)"/>
<path style="mix-blend-mode:multiply" opacity="0.5" d="M160.375 158.807C150.931 175.699 122.069 205.359 122.069 205.359C121.139 205.421 120.206 205.421 119.276 205.359C120.606 202.699 122.601 199.075 125.162 194.652C131.213 184.344 139.393 181.352 145.844 174.934C151.729 169.049 153.325 161.634 155.021 156.546H155.52C160.375 157.577 160.375 158.807 160.375 158.807Z" fill="url(#paint31_linear_3834_15491)"/>
<path style="mix-blend-mode:multiply" opacity="0.5" d="M142.785 86.952C142.286 87.3177 141.787 87.6835 141.255 88.016C136.633 90.8756 130.316 92.4052 126.226 88.415C127.665 89.1779 129.296 89.4996 130.917 89.3399C132.537 89.1802 134.075 88.5462 135.337 87.5172C139.327 83.5936 138.263 82.3301 143.749 79.7697C148.371 77.6417 147.507 72.6872 146.11 68.4644C147.917 68.9828 149.784 69.2623 151.663 69.2956C151.101 76.1085 147.919 82.4378 142.785 86.952Z" fill="url(#paint32_linear_3834_15491)"/>
<path style="mix-blend-mode:multiply" opacity="0.5" d="M141.389 88.0156C139.229 90.7835 137.209 93.6578 135.337 96.6277C134.406 92.7373 127.689 93.3026 124.73 89.7779C123.173 87.3275 122.311 84.5003 122.236 81.5982C122.236 80.3014 122.236 79.2373 122.236 78.5391C122.392 81.549 123.345 84.4635 124.996 86.9848C128.953 92.7373 136.135 91.2077 141.222 88.0489L141.389 88.0156Z" fill="url(#paint33_linear_3834_15491)"/>
<path style="mix-blend-mode:multiply" opacity="0.5" d="M152.494 69.2289H151.796C143.83 68.3358 136.187 65.5792 129.485 61.1821C128.274 60.4181 127.158 59.5141 126.16 58.4888C124.441 56.8626 123.089 54.8883 122.195 52.6979C121.3 50.5074 120.883 48.1513 120.972 45.7869C122.388 49.7264 124.359 53.4436 126.825 56.8262C130.15 60.6169 133.009 64.3077 139.826 62.3127C146.642 60.3176 144.946 57.857 151.031 59.9518C154.689 61.2154 155.653 59.9518 155.786 57.5578C156.518 63.2105 154.157 68.7301 152.494 69.2289Z" fill="url(#paint34_linear_3834_15491)"/>
<path d="M17.395 388.307C16.4084 388.304 15.4258 388.181 14.4689 387.941C-0.693611 384.017 -4.51747 349.769 5.75712 309.967C15.2669 273.391 33.5219 245.593 48.2522 245.593C49.2496 245.597 50.243 245.72 51.2116 245.959C66.3741 249.882 70.1979 284.164 59.89 323.966C50.4135 360.642 32.1585 388.307 17.395 388.307ZM48.2522 248.984C35.251 248.984 17.9937 276.151 9.04916 310.798C-0.460665 347.374 2.39874 381.324 15.3002 384.682C15.9857 384.852 16.6888 384.942 17.395 384.948C30.4295 384.948 47.6537 357.782 56.6315 323.101C66.1413 286.525 63.2817 252.576 50.347 249.25C49.6654 249.06 48.9597 248.97 48.2522 248.984Z" fill="url(#paint35_linear_3834_15491)"/>
<path d="M28.9332 328.122H28.5342C28.0986 328.019 27.7211 327.748 27.4844 327.368C27.2477 326.988 27.1709 326.53 27.2707 326.094C27.5034 325.196 49.3162 237.047 50.5465 235.617C50.8419 235.28 51.2565 235.071 51.7031 235.034C52.1497 234.997 52.5934 235.134 52.9405 235.418C53.2249 235.669 53.4207 236.006 53.4986 236.377C53.5765 236.749 53.5323 237.135 53.3727 237.48C52.1092 240.805 35.4172 307.307 30.5958 326.892C30.4984 327.255 30.2809 327.574 29.979 327.797C29.6771 328.02 29.3086 328.135 28.9332 328.122Z" fill="url(#paint36_linear_3834_15491)"/>
<path d="M80.672 320.807C80.4361 320.786 80.2129 320.691 80.0339 320.535C79.8549 320.38 79.7292 320.173 79.6745 319.942L58.2607 228.036C58.1906 227.745 58.2387 227.438 58.3945 227.183C58.5503 226.927 58.8012 226.744 59.092 226.673C59.383 226.603 59.6899 226.651 59.9454 226.807C60.201 226.963 60.3843 227.214 60.4552 227.504L80.938 315.919L122.469 211.344L60.9208 224.844C60.6421 224.88 60.3602 224.81 60.1299 224.649C59.8996 224.488 59.7376 224.247 59.6753 223.973C59.613 223.699 59.655 223.412 59.793 223.167C59.9311 222.923 60.1553 222.738 60.4219 222.65L124.065 208.684C124.263 208.633 124.473 208.64 124.667 208.705C124.862 208.77 125.034 208.89 125.162 209.05C125.304 209.197 125.398 209.384 125.434 209.585C125.469 209.786 125.444 209.994 125.361 210.181L81.7027 320.109C81.6219 320.316 81.4801 320.494 81.296 320.618C81.112 320.743 80.8943 320.809 80.672 320.807Z" fill="url(#paint37_linear_3834_15491)"/>
<path d="M80.6723 320.807C80.4795 320.808 80.2896 320.759 80.1208 320.666C79.9521 320.573 79.8101 320.439 79.708 320.275C79.6289 320.149 79.5754 320.008 79.551 319.86C79.5265 319.713 79.5314 319.563 79.5654 319.417C79.5994 319.272 79.6618 319.135 79.749 319.014C79.8363 318.893 79.9467 318.79 80.0738 318.712L115.885 297.066C116.051 291.779 116.916 248.253 117.381 224.844C117.39 224.547 117.512 224.264 117.722 224.054C117.932 223.844 118.215 223.722 118.512 223.714C118.661 223.718 118.807 223.752 118.942 223.812C119.078 223.873 119.2 223.96 119.302 224.068C119.404 224.176 119.483 224.303 119.536 224.442C119.589 224.581 119.614 224.729 119.609 224.878C119.277 241.869 118.18 297.265 118.113 297.864C118.091 298.033 118.031 298.195 117.94 298.339C117.848 298.482 117.725 298.604 117.581 298.695L81.2375 320.641C81.0743 320.761 80.8743 320.82 80.6723 320.807Z" fill="url(#paint38_linear_3834_15491)"/>
<path d="M40.9367 325.894C40.6657 325.894 40.3986 325.828 40.158 325.703C39.9174 325.579 39.7104 325.398 39.554 325.176C39.3977 324.955 39.2969 324.699 39.2598 324.431C39.2226 324.162 39.2504 323.889 39.3407 323.633C48.6843 297.332 56.997 250.215 58.3936 242.234C55.268 240.439 52.0426 238.61 51.3443 238.311C50.9901 238.21 50.6784 237.996 50.4564 237.702C50.2345 237.408 50.1144 237.05 50.1141 236.682C50.1141 236.232 50.2927 235.8 50.6107 235.482C50.9287 235.164 51.3602 234.986 51.8099 234.986C52.3752 234.986 52.6744 234.986 61.0869 239.907C61.3804 240.089 61.6149 240.353 61.7623 240.665C61.9098 240.978 61.9639 241.327 61.9182 241.669C61.9182 242.201 52.8073 295.835 42.5327 324.797C42.4147 325.124 42.1974 325.405 41.9111 325.602C41.6248 325.799 41.2841 325.901 40.9367 325.894Z" fill="url(#paint39_linear_3834_15491)"/>
<path d="M55.5673 240.073C55.2087 240.055 54.8591 239.955 54.5457 239.78C54.2322 239.605 53.9635 239.359 53.7606 239.063C53.5578 238.767 53.4263 238.428 53.3763 238.072C53.3263 237.717 53.3592 237.354 53.4725 237.014C62.3505 213.339 68.0032 193.787 68.0697 193.787C68.2765 193.262 68.6718 192.834 69.1785 192.585C69.6851 192.337 70.2664 192.287 70.8079 192.446C71.3495 192.604 71.8122 192.959 72.1054 193.441C72.3985 193.923 72.5009 194.497 72.3924 195.051C72.3924 195.25 66.6398 214.769 57.6952 238.61C57.5323 239.042 57.2411 239.413 56.8607 239.675C56.4803 239.937 56.0289 240.075 55.5673 240.073Z" fill="url(#paint40_linear_3834_15491)"/>
<path d="M112.56 218.36C112.121 218.372 111.69 218.244 111.33 217.995C73.8888 193.721 38.1773 182.283 32.2918 182.15C31.6921 182.15 31.117 181.912 30.693 181.488C30.2689 181.064 30.0308 180.488 30.0308 179.889C30.0308 179.289 30.2689 178.714 30.693 178.29C31.117 177.866 31.6921 177.628 32.2918 177.628C40.0393 177.827 77.081 190.496 113.69 214.204C114.186 214.536 114.532 215.048 114.657 215.632C114.781 216.215 114.673 216.824 114.356 217.33C114.16 217.632 113.895 217.883 113.583 218.062C113.27 218.242 112.92 218.344 112.56 218.36Z" fill="url(#paint41_linear_3834_15491)"/>
<path d="M87.7879 320.009C86.5576 326.925 82.4011 332.013 78.4775 331.314C74.5538 330.616 72.3261 324.465 73.5564 317.515C74.7866 310.566 78.943 305.478 82.8666 306.177C86.7903 306.875 88.985 313.059 87.7879 320.009Z" fill="url(#paint42_linear_3834_15491)"/>
<path d="M45.1598 180.62L41.5021 179.556C41.5021 179.556 41.5021 177.528 38.8087 179.357C36.1154 181.185 34.32 189.332 32.9234 188.7C32.7444 188.623 32.6017 188.48 32.5244 188.301C31.9419 186.512 31.7379 184.621 31.9257 182.748C31.9257 182.748 30.2299 189.399 29.2324 188.667C28.2349 187.935 29.2324 182.782 29.2324 182.017C29.0661 182.649 27.7695 187.769 26.7055 186.439C26.2523 184.72 26.169 182.924 26.4613 181.17C26.7537 179.416 27.4148 177.744 28.4011 176.264C31.5861 173.52 35.5276 171.804 39.7066 171.343L43.0317 175.2L44.8937 177.395L45.1598 180.62Z" fill="url(#paint43_linear_3834_15491)"/>
<path style="mix-blend-mode:multiply" opacity="0.5" d="M45.16 180.62L41.5022 179.556C41.5022 179.556 41.5022 177.528 38.8089 179.356C36.1156 181.185 34.3201 189.332 32.9236 188.7C32.7446 188.623 32.6019 188.48 32.5246 188.301C32.6978 186.293 33.2626 184.339 34.1872 182.548C36.4815 177.428 40.5048 176.663 42.8989 175.2L44.761 177.395L45.16 180.62Z" fill="url(#paint44_linear_3834_15491)"/>
<path d="M38.7423 326.193C38.3433 328.687 38.7422 330.815 39.6067 330.981L41.1363 321.937C40.2385 321.771 39.1746 323.666 38.7423 326.193Z" fill="url(#paint45_linear_3834_15491)"/>
<path d="M41.5688 321.638C40.6045 321.472 39.4739 323.5 39.0084 326.16C38.5428 328.821 39.0084 331.115 39.9395 331.281C40.8705 331.447 42.0011 329.386 42.4666 326.726C42.9321 324.066 42.4998 321.771 41.5688 321.638Z" fill="url(#paint46_linear_3834_15491)"/>
<path d="M170.517 240.073C169.752 242.7 163.866 249.782 155.154 256.133C146.443 262.484 106.009 290.216 106.009 290.216C104.58 287.694 103.856 284.834 103.914 281.936C103.865 280.983 103.865 280.029 103.914 279.076C103.914 279.076 111.828 265.543 122.934 250.647C128.755 242.325 136.296 235.351 145.046 230.197C143.517 227.803 138.728 216.365 137.731 214.004C137.731 214.004 139.46 213.106 142.486 211.776C145.512 210.446 149.136 209.05 153.924 207.387C158.709 205.429 163.817 204.38 168.987 204.295C170.084 213.439 171.847 235.551 170.517 240.073Z" fill="url(#paint47_linear_3834_15491)"/>
<path style="mix-blend-mode:multiply" opacity="0.5" d="M144.448 239.441C133.097 245.914 123.141 254.571 115.153 264.912C110.432 271.562 106.907 278.678 103.914 281.87C103.865 280.917 103.865 279.963 103.914 279.01C103.914 279.01 111.828 265.477 122.934 250.581C128.755 242.259 136.296 235.285 145.046 230.131C143.517 227.737 138.728 216.299 137.731 213.938C137.731 213.938 139.46 213.04 142.486 211.71C143.417 219.657 143.749 223.714 146.742 227.737C149.735 231.76 153.159 234.853 144.448 239.441Z" fill="url(#paint48_linear_3834_15491)"/>
<path d="M39.0082 326.16C39.4738 323.5 40.6044 321.472 41.5686 321.638H29.3655C28.4013 321.472 27.2707 323.5 26.8384 326.16C26.4062 328.821 26.8385 331.115 27.7363 331.281H39.9394C38.9751 331.115 38.576 328.821 39.0082 326.16Z" fill="url(#paint49_linear_3834_15491)"/>
<path d="M107.273 212.84C107.007 212.84 101.321 211.843 101.321 211.843L105.81 217.695L113.99 217.961C111.897 216.07 109.65 214.357 107.273 212.84Z" fill="url(#paint50_linear_3834_15491)"/>
<path d="M122.07 205.259C121.894 208.367 121.37 211.445 120.507 214.436C119.243 218.094 116.55 221.918 115.286 221.087C114.023 220.255 115.286 217.329 115.286 217.063C115.12 217.329 112.327 221.685 111.23 221.02C110.895 220.756 110.638 220.407 110.485 220.009C110.333 219.611 110.292 219.179 110.365 218.759C110.204 218.931 110.026 219.087 109.833 219.225C107.506 221.253 106.508 219.89 107.539 217.762C108.964 215.393 109.881 212.755 110.232 210.014C110.232 208.484 106.674 210.014 106.674 210.014L104.214 208.484C105.045 206.689 111.23 203.53 111.23 203.53L119.509 205.026L122.07 205.259Z" fill="url(#paint51_linear_3834_15491)"/>
<path style="mix-blend-mode:multiply" opacity="0.5" d="M122.07 205.259C121.894 208.367 121.37 211.446 120.507 214.437C119.243 218.094 116.55 221.918 115.286 221.087C114.023 220.256 115.286 217.33 115.286 217.064C115.12 217.33 112.327 221.686 111.23 221.02C110.895 220.757 110.638 220.407 110.486 220.009C110.334 219.611 110.292 219.179 110.365 218.759C110.204 218.932 110.026 219.088 109.833 219.225C111.622 217.293 113.568 215.513 115.652 213.905C117.991 211.43 119.361 208.196 119.509 204.794L122.07 205.259Z" fill="url(#paint52_linear_3834_15491)"/>
<path d="M101.321 211.777C99.7249 210.679 97.7297 211.777 98.694 214.836C99.6582 217.895 106.608 224.212 100.29 227.77C100.29 227.77 98.96 225.409 97.9292 226.44C96.8985 227.471 98.295 232.159 102.917 229.1C104.781 227.597 106.042 225.473 106.469 223.116C106.897 220.76 106.462 218.328 105.245 216.265C104.402 214.419 103.039 212.858 101.321 211.777Z" fill="url(#paint53_linear_3834_15491)"/>
<path d="M80.6716 319.876C80.419 319.881 80.1723 319.799 79.9733 319.643C79.8557 319.555 79.757 319.444 79.6831 319.317C79.6091 319.19 79.5615 319.05 79.5428 318.904C79.5242 318.758 79.535 318.61 79.5747 318.469C79.6144 318.327 79.6821 318.195 79.7738 318.08L98.9265 292.743C99.0024 292.599 99.1085 292.472 99.2378 292.373C99.3671 292.274 99.5164 292.203 99.6754 292.167C99.8343 292.131 99.9994 292.129 100.159 292.163C100.319 292.196 100.469 292.264 100.6 292.361C100.731 292.458 100.84 292.582 100.918 292.725C100.997 292.868 101.043 293.026 101.055 293.189C101.066 293.351 101.043 293.515 100.985 293.667C100.928 293.82 100.838 293.958 100.722 294.073L81.5695 319.444C81.4583 319.574 81.3208 319.68 81.1662 319.755C81.0116 319.829 80.8432 319.87 80.6716 319.876Z" fill="#374151"/>
<path d="M106.009 290.216C106.009 290.216 105.61 304.148 103.648 308.77C103.316 309.568 102.917 310.1 102.485 310.2C99.5254 310.898 98.8271 303.017 98.6941 293.574C98.5611 284.131 100.922 281.038 103.881 279.21V280.506C103.699 283.876 104.435 287.231 106.009 290.216Z" fill="#275D7C"/>
<path style="mix-blend-mode:multiply" opacity="0.6" d="M103.881 279.077V280.939C101.297 284.255 99.8923 288.339 99.8911 292.544C98.9933 301.422 99.3592 306.11 101.487 307.473L103.648 308.77C103.316 309.568 102.917 310.1 102.485 310.2C99.5254 310.898 98.8271 303.018 98.6941 293.574C98.5611 284.131 100.922 280.906 103.881 279.077Z" fill="url(#paint54_linear_3834_15491)"/>
<path d="M121.737 66.5351V66.3689C121.97 64.8726 121.737 64.1078 121.504 64.0413C121.271 63.9748 121.504 64.0413 121.504 63.8418H121.671C121.97 63.8418 122.269 64.9391 122.036 66.5019C121.87 66.5351 121.803 66.5351 121.737 66.5351Z" fill="#ED7D66"/>
<path d="M138.196 83.8593H137.93C136.467 83.3605 136.866 78.7719 137.432 74.3162C137.446 74.1059 137.446 73.8948 137.432 73.6845C137.432 73.6845 137.432 73.6845 137.598 73.6845V74.3162C137.332 76.4776 136.501 83.0613 137.897 83.5601C138.069 83.6237 138.257 83.6237 138.429 83.5601C139.46 82.9283 140.557 79.6364 141.754 73.5847H142.02C140.856 79.7362 139.792 82.9283 138.695 83.5601C138.57 83.7166 138.393 83.8229 138.196 83.8593Z" fill="#ED7D66"/>
<path d="M151.763 70.7586C151.763 70.7586 151.231 77.0763 148.97 78.5061C148.97 78.5061 146.11 78.5061 144.181 78.2069H143.417C141.555 77.8411 141.555 73.4187 140.989 72.9199C140.424 72.4212 140.025 72.2882 138.496 74.0505C136.966 75.8128 136.201 76.5111 134.938 76.3448C133 75.7967 131.222 74.7935 129.751 73.4187C128.188 71.9889 129.152 69.5948 129.751 68.1318L124.164 62.2796C124.306 61.4527 124.674 60.6813 125.228 60.0518C125.461 60.0518 130.682 64.9729 133.209 66.702C136.255 68.5171 139.658 69.6515 143.184 70.0271C146.016 70.5252 148.887 70.77 151.763 70.7586Z" fill="url(#paint55_linear_3834_15491)"/>
<path style="mix-blend-mode:multiply" opacity="0.6" d="M151.763 70.7584C151.763 70.7584 151.231 77.0761 148.97 78.5059C148.97 78.5059 146.11 78.5059 144.181 78.2066C144.102 75.51 143.768 72.827 143.184 70.1931C146.021 70.6356 148.892 70.8247 151.763 70.7584Z" fill="url(#paint56_linear_3834_15491)"/>
<g filter="url(#filter1_f_3834_15491)">
<path d="M217.495 285.759C217.495 285.759 218.789 285.095 221.179 284.132C222.341 283.668 223.801 283.07 225.494 282.506C227.187 281.942 229.045 281.178 231.136 280.581L237.775 278.556C240.198 277.859 242.753 277.262 245.409 276.565C248.064 275.868 250.786 275.237 253.574 274.706L262.104 273.046C264.958 272.549 267.813 271.984 270.634 271.619L278.965 270.557C281.687 270.258 284.276 269.96 286.765 269.761C289.255 269.561 291.611 269.429 293.802 269.362C298.15 269.163 301.801 269.097 304.357 269.13C306.913 269.163 308.34 269.13 308.34 269.13V270.258C308.34 270.258 306.946 270.69 304.49 271.287C302.033 271.885 298.482 272.748 294.233 273.611C292.109 274.042 289.786 274.507 287.363 274.905L279.695 276.399L271.497 277.793C268.709 278.191 265.888 278.722 263.033 279.187L254.57 280.548C251.781 280.979 249.026 281.51 246.371 281.942C243.716 282.373 241.127 282.705 238.704 283.17C236.281 283.635 233.958 283.933 231.833 284.298C229.709 284.663 227.751 284.995 225.992 285.294L221.511 286.024L217.594 286.721L217.495 285.759Z" fill="#D1D5DB"/>
</g>
<path d="M261.506 224.752C261.27 224.753 261.039 224.684 260.842 224.553C260.602 224.38 260.44 224.119 260.39 223.828C260.341 223.536 260.408 223.236 260.577 222.993C265.413 219.179 270.479 215.665 275.746 212.472C275.997 212.309 276.302 212.253 276.594 212.315C276.887 212.377 277.143 212.553 277.306 212.803C277.461 213.048 277.517 213.342 277.461 213.627C277.406 213.911 277.243 214.163 277.007 214.33C271.729 217.882 263.166 223.69 262.336 224.288C262.238 224.419 262.114 224.529 261.971 224.609C261.828 224.689 261.67 224.738 261.506 224.752Z" fill="#374151"/>
<path d="M190.709 121.162C189.381 121.162 189.215 121.527 189.016 125.709C188.817 129.892 189.016 137.459 185 136.995C185.346 137.275 185.755 137.469 186.191 137.559C186.627 137.649 187.079 137.634 187.508 137.513C187.937 137.393 188.331 137.172 188.657 136.868C188.983 136.564 189.231 136.186 189.381 135.766C190.781 132.77 191.614 129.54 191.837 126.241C191.865 125.71 191.865 125.178 191.837 124.647C191.937 122.191 191.306 121.129 190.709 121.162Z" fill="url(#paint57_linear_3834_15491)"/>
<path d="M195.986 120.299C194.308 120.774 192.583 121.063 190.842 121.162C191.439 121.162 192.07 122.191 192.07 124.481C192.098 125.012 192.098 125.544 192.07 126.075L193.53 126.705C194.068 124.473 194.894 122.319 195.986 120.299Z" fill="#111827"/>
<path d="M211.686 123.121C209.396 121.926 207.736 120.93 207.736 120.93C207.736 120.93 204.218 117.611 201.994 118.142C199.77 118.673 199.671 122.39 199.671 122.39C200.439 123.647 201.55 124.658 202.873 125.305C204.196 125.951 205.676 126.207 207.139 126.041C208.552 126.201 209.983 126.043 211.327 125.578C212.671 125.113 213.894 124.352 214.906 123.353C214.906 123.353 213.976 124.183 211.686 123.121Z" fill="url(#paint58_linear_3834_15491)"/>
<path d="M270.004 134.937C269.473 143.334 272.593 151.532 275.48 159.133C275.917 164.073 275.716 169.048 274.883 173.937C273.456 182.069 270.834 199.428 270.834 199.428C269.993 200.242 269.044 200.934 268.012 201.486C265.517 202.779 262.844 203.697 260.08 204.207V165.473C260.106 152.162 260.892 138.864 262.436 125.643C266.951 122.182 271.19 118.375 275.115 114.258L275.414 113.96C276.491 113.6 277.656 113.6 278.733 113.96C278.733 113.96 276.742 116.681 275.713 118.407L274.783 119.934C271.893 124.425 270.244 129.601 270.004 134.937Z" fill="url(#paint59_linear_3834_15491)"/>
<path style="mix-blend-mode:multiply" opacity="0.5" d="M270.004 134.937C269.473 143.334 272.593 151.532 275.48 159.133C275.916 164.073 275.716 169.048 274.883 173.937C273.456 182.069 270.833 199.428 270.833 199.428C269.993 200.242 269.044 200.934 268.012 201.486C270.514 190.589 271.926 179.47 272.227 168.294C272.559 154.486 266.585 146.056 267.016 134.24C267.283 126.854 270.151 119.8 275.115 114.325L275.414 114.026C276.491 113.667 277.656 113.667 278.733 114.026C278.733 114.026 276.742 116.748 275.713 118.474L274.783 120C271.904 124.472 270.255 129.624 270.004 134.937Z" fill="url(#paint60_linear_3834_15491)"/>
<path d="M270.834 199.461C270.408 203.461 269.39 207.377 267.813 211.078C267.601 211.515 267.295 211.9 266.917 212.206L265.921 212.837C264.044 213.786 262.09 214.574 260.08 215.194V204.24C262.979 203.699 265.778 202.714 268.377 201.32C269.275 200.811 270.101 200.186 270.834 199.461Z" fill="url(#paint61_linear_3834_15491)"/>
<path style="mix-blend-mode:multiply" opacity="0.6" d="M270.834 199.461C270.408 203.461 269.39 207.377 267.813 211.078C267.601 211.515 267.295 211.9 266.917 212.206L265.921 212.837C267.212 209.114 268.037 205.245 268.377 201.32C269.275 200.811 270.101 200.186 270.834 199.461Z" fill="url(#paint62_linear_3834_15491)"/>
<path d="M265.954 219.575C262.436 221.832 251.682 224.487 249.823 223.392C249.69 223.31 249.595 223.179 249.558 223.027C249.292 221.234 256.893 215.492 260.079 213.534V215.16C262.127 214.529 264.115 213.718 266.02 212.737L266.917 212.173C267.294 211.867 267.6 211.482 267.813 211.045C268.587 212.451 268.825 214.09 268.483 215.658C268.141 217.227 267.243 218.618 265.954 219.575Z" fill="url(#paint63_linear_3834_15491)"/>
<path style="mix-blend-mode:multiply" opacity="0.5" d="M265.954 219.575C262.436 221.832 251.682 224.487 249.823 223.392C253.142 219.509 258.353 220.073 262.436 218.679C265.755 217.716 266.054 215.36 266.021 212.737L266.917 212.173C267.295 211.867 267.601 211.482 267.813 211.045C268.587 212.451 268.825 214.09 268.483 215.658C268.141 217.227 267.243 218.618 265.954 219.575Z" fill="url(#paint64_linear_3834_15491)"/>
<path d="M307.211 269.528C306.471 269.578 305.728 269.578 304.988 269.528C289.056 267.171 280.193 240.618 284.873 209.119C289.255 179.247 304.091 156.976 319.393 156.976C320.133 156.926 320.876 156.926 321.616 156.976C337.581 159.332 346.41 185.885 341.764 217.384C337.349 247.09 322.513 269.528 307.211 269.528ZM319.393 160.195C306.116 160.195 292.275 181.836 288.193 209.451C283.878 238.593 291.512 263.985 305.485 265.877C306.06 265.927 306.637 265.927 307.211 265.877C320.488 265.877 334.329 244.236 338.411 216.621C342.726 187.479 335.092 162.087 321.119 160.195C320.544 160.145 319.967 160.145 319.393 160.195Z" fill="url(#paint65_linear_3834_15491)"/>
<path d="M277.704 221.766C277.519 221.771 277.336 221.728 277.173 221.64C277.01 221.553 276.873 221.425 276.775 221.268L227.85 147.018C227.688 146.767 227.631 146.462 227.693 146.17C227.756 145.877 227.932 145.621 228.182 145.458C228.433 145.296 228.738 145.239 229.031 145.302C229.323 145.364 229.579 145.54 229.742 145.79L276.974 217.484L288.325 128.066L272.924 128.995L230.506 133.344C230.211 133.372 229.918 133.283 229.688 133.097C229.458 132.91 229.311 132.642 229.278 132.348C229.249 132.05 229.337 131.752 229.522 131.517C229.708 131.282 229.977 131.128 230.273 131.087L272.725 126.738L289.553 125.743C289.888 125.744 290.209 125.875 290.45 126.108C290.557 126.228 290.637 126.371 290.683 126.526C290.729 126.681 290.74 126.844 290.715 127.004L278.965 220.803C278.931 221.027 278.83 221.235 278.677 221.401C278.523 221.566 278.323 221.682 278.102 221.733L277.704 221.766Z" fill="url(#paint66_linear_3834_15491)"/>
<path d="M277.804 223.425C277.557 223.421 277.317 223.339 277.12 223.19C276.923 223.04 276.779 222.832 276.708 222.595C276.668 222.452 276.657 222.301 276.675 222.153C276.694 222.005 276.741 221.862 276.816 221.732C276.89 221.602 276.989 221.489 277.107 221.398C277.225 221.306 277.361 221.24 277.505 221.201L314.016 210.945L287.462 136.53C287.41 136.393 287.385 136.246 287.39 136.1C287.395 135.953 287.43 135.809 287.492 135.676C287.554 135.542 287.642 135.423 287.751 135.325C287.86 135.226 287.988 135.151 288.126 135.103C288.404 135.006 288.708 135.021 288.975 135.145C289.241 135.269 289.449 135.492 289.553 135.766L316.638 211.31C316.754 211.598 316.754 211.919 316.638 212.206C316.487 212.478 316.238 212.68 315.941 212.771L278.235 223.392L277.804 223.425Z" fill="url(#paint67_linear_3834_15491)"/>
<path d="M217.661 229.499H217.461C217.17 229.443 216.912 229.277 216.74 229.037C216.567 228.796 216.493 228.499 216.532 228.205C219.32 211.974 224.232 159.001 224.266 158.503C224.278 158.354 224.32 158.21 224.388 158.078C224.457 157.946 224.551 157.828 224.665 157.733C224.779 157.637 224.912 157.565 225.054 157.52C225.196 157.476 225.345 157.46 225.494 157.474C225.641 157.486 225.784 157.528 225.915 157.597C226.045 157.666 226.16 157.761 226.253 157.876C226.346 157.99 226.415 158.123 226.456 158.265C226.496 158.407 226.508 158.555 226.489 158.702C226.489 159.233 221.544 212.306 218.756 228.603C218.709 228.858 218.573 229.088 218.372 229.252C218.172 229.416 217.92 229.504 217.661 229.499Z" fill="url(#paint68_linear_3834_15491)"/>
<path d="M321.484 71.0763C318.527 75.0403 314.773 78.3416 310.464 80.7683C305.713 83.3127 300.596 85.1042 295.296 86.0789H295.063H294.267C291.611 86.5768 289.786 86.8091 289.786 86.8091H287.396C283.517 86.7732 279.65 86.3732 275.845 85.6142C273.667 85.1899 271.548 84.4987 269.539 83.5563C261.805 79.8389 249.624 73.5989 246.703 71.9725C243.782 70.3461 240.231 68.6533 238.538 72.3044C237.576 74.4619 235.816 78.5776 234.489 81.6976C234.392 81.9689 234.282 82.2348 234.157 82.4942L232.763 85.8134C232.763 85.8134 231.667 85.3155 230.074 84.6848C228.154 83.9228 226.193 83.2691 224.199 82.7266C222.276 82.1542 220.294 81.7979 218.291 81.6644C218.291 80.8014 218.656 79.4738 218.988 77.8474L219.187 76.9512C220.704 70.2013 222.633 63.5506 224.963 57.0363C226.669 52.6792 229.129 48.6569 232.232 45.1538C235.944 40.8629 240.571 37.4601 245.774 35.1963C250.918 33.2503 256.415 32.4133 261.905 32.7401C272.158 33.1698 282.194 35.8317 291.312 40.5401C307.643 49.2031 318.961 63.3759 321.484 71.0763Z" fill="url(#paint69_linear_3834_15491)"/>
<path style="mix-blend-mode:multiply" opacity="0.5" d="M275.845 85.8465C273.667 85.4222 271.549 84.731 269.539 83.7886C261.805 80.0712 249.624 73.8312 246.703 72.2048C243.782 70.5784 240.231 68.8856 238.538 72.5367C237.576 74.6942 235.816 78.8099 234.489 81.9299C234.392 82.2012 234.282 82.4671 234.157 82.7265L232.763 86.0457C232.763 86.0457 231.668 85.5478 230.074 84.9172C232.934 80.488 234.886 75.5352 235.816 70.3461C236.746 64.8363 242.156 60.9861 251.184 69.4499C260.212 77.9137 266.419 79.6065 273.422 82.7265C275.248 83.5231 275.879 84.6516 275.845 85.8465Z" fill="url(#paint70_linear_3834_15491)"/>
<path style="mix-blend-mode:multiply" opacity="0.5" d="M261.905 33.039C262.17 37.0552 256.959 42.7973 251.151 44.4237C243.052 46.7139 239.932 53.0203 235.418 52.2901C232.796 51.8254 231.8 48.6722 232.099 45.3863C235.811 41.0955 240.438 37.6927 245.641 35.4288C250.831 33.4868 256.375 32.6721 261.905 33.039Z" fill="url(#paint71_linear_3834_15491)"/>
<path style="mix-blend-mode:multiply" opacity="0.5" d="M298.117 71.4745C298.285 76.5277 297.237 81.5474 295.063 86.112H294.267C291.611 86.6099 289.786 86.8422 289.786 86.8422H287.396C288.556 82.7391 289.344 78.5401 289.753 74.2958C290.593 66.8548 289.962 59.3211 287.894 52.1239C287.383 49.8717 286.729 47.6544 285.935 45.4856C289.693 48.7057 292.723 52.6884 294.823 57.1692C296.923 61.6501 298.046 66.5264 298.117 71.4745Z" fill="url(#paint72_linear_3834_15491)"/>
<path d="M251.35 16.0776C251.35 16.0776 252.744 16.841 253.275 20.5253C253.275 20.5253 254.47 16.9738 255.465 16.4095C255.504 15.7097 255.403 15.0092 255.17 14.3484C254.936 13.6876 254.574 13.0795 254.105 12.5593C254.105 12.5593 253.872 12.7917 252.711 14.3517L251.35 16.0776Z" fill="url(#paint73_linear_3834_15491)"/>
<path d="M256.097 25.6033C256.641 28.7887 256.641 32.0434 256.097 35.2289C255.842 37.4952 254.795 39.5989 253.142 41.1701H252.943C250.82 42.5056 248.264 42.9694 245.807 42.4646C243.809 42.0009 241.946 41.0807 240.364 39.7761C235.703 35.8629 231.982 30.9509 229.477 25.4042H229.643C234.232 24.7718 238.704 23.4748 242.92 21.554C244.977 20.6325 246.943 19.5213 248.794 18.2348C249.757 17.526 250.677 16.7613 251.549 15.9446C253.01 17.0067 253.474 20.3922 253.474 20.3922C253.474 20.3922 254.47 16.6748 255.665 16.2765C256.86 15.8782 258.121 16.9403 258.353 20.3922C258.452 21.3811 258.296 22.3786 257.901 23.2905C257.506 24.2024 256.885 24.9984 256.097 25.6033Z" fill="url(#paint74_linear_3834_15491)"/>
<path d="M272.958 71.4743C272.906 71.5005 272.849 71.5142 272.792 71.5142C272.734 71.5142 272.677 71.5005 272.626 71.4743C271.995 70.6445 269.307 67.7568 266.751 64.836C262.834 60.3883 258.42 55.3764 257.623 54.1483C257.546 54.068 257.503 53.961 257.503 53.8496C257.503 53.7383 257.546 53.6312 257.623 53.5509C257.707 53.4806 257.813 53.4421 257.922 53.4421C258.031 53.4421 258.137 53.4806 258.221 53.5509C258.984 54.7126 263.398 59.7245 267.282 64.139C270.103 67.4581 272.559 70.1466 273.19 71.0096C273.232 71.047 273.266 71.093 273.29 71.1445C273.313 71.196 273.325 71.2518 273.325 71.3083C273.325 71.3649 273.313 71.4207 273.29 71.4722C273.266 71.5237 273.232 71.5697 273.19 71.6071L272.958 71.4743Z" fill="#C6A646"/>
<path d="M295.296 86.0786L294.267 86.2778C292.375 84.419 289.918 82.2284 289.885 82.1952C289.808 82.1149 289.765 82.0078 289.765 81.8965C289.765 81.7851 289.808 81.6781 289.885 81.5978C289.969 81.5275 290.075 81.489 290.184 81.489C290.293 81.489 290.399 81.5275 290.483 81.5978C290.483 81.5978 293.337 84.1535 295.296 86.0786Z" fill="#C6A646"/>
<path d="M324.073 86.3113C323.608 93.5139 319.957 102.144 312.754 111.603C308.533 116.838 303.607 121.462 298.117 125.345C297.895 125.524 297.662 125.691 297.42 125.842C295.395 127.27 294.101 128.099 294.101 128.099C292.455 126.691 290.725 125.384 288.923 124.183L286.334 122.457C283.055 120.529 279.419 119.286 275.646 118.806C275.711 118.666 275.789 118.533 275.878 118.408C276.41 117.511 277.239 116.316 277.87 115.42C278.069 115.088 278.268 114.823 278.434 114.59L278.899 113.96H278.666C277.679 113.684 276.634 113.684 275.646 113.96C275.878 113.694 276.144 113.429 276.376 113.13C277.558 111.902 278.666 110.605 279.695 109.247C284.786 102.738 288.297 95.137 289.952 87.0415C289.952 87.0415 292.175 86.776 295.362 86.1122C300.698 85.1533 305.85 83.3612 310.63 80.8015C314.939 78.3749 318.693 75.0735 321.649 71.1096C322.499 73.4411 323.154 75.8392 323.608 78.279C324.114 80.9245 324.27 83.6251 324.073 86.3113Z" fill="url(#paint75_linear_3834_15491)"/>
<path d="M296.424 182.533C295.873 183.3 295.263 184.021 294.598 184.691C294.083 185.239 293.528 185.749 292.939 186.217C291.085 187.556 289.08 188.67 286.964 189.537C286.964 189.537 279.463 169.854 276.376 161.423L275.48 159C272.592 151.3 269.472 143.201 270.003 134.804C270.234 129.472 271.871 124.296 274.75 119.801L275.48 118.673C279.333 119.122 283.051 120.366 286.4 122.324L288.823 123.95C290.652 125.179 292.404 126.521 294.067 127.966C291.826 129.959 289.881 132.261 288.292 134.804C287.728 136.762 290.449 143.334 291.943 151.2C293.436 159.067 296.424 182.533 296.424 182.533Z" fill="url(#paint76_linear_3834_15491)"/>
<path d="M253.607 13.5884C252.934 14.4668 252.178 15.2782 251.35 16.0114C248.794 18.3427 245.881 20.2479 242.72 21.654C238.505 23.5748 234.032 24.8718 229.443 25.5042C228.583 25.5685 227.724 25.3715 226.978 24.9392C226.232 24.5069 225.633 23.8593 225.261 23.0812C224.258 21.1741 223.809 19.0237 223.967 16.8744C223.839 13.9352 224.579 11.0234 226.096 8.5027C227.613 5.98205 229.84 3.96433 232.497 2.70161C235.431 0.988329 238.795 0.152712 242.189 0.29391C245.584 0.435107 248.867 1.54718 251.649 3.49819C251.984 3.81991 252.284 4.1759 252.545 4.56032C254.968 8.51011 254.901 11.8625 253.607 13.5884Z" fill="url(#paint77_linear_3834_15491)"/>
<path d="M232.763 86.0455C231.701 88.5348 227.419 99.322 224.399 105.164C221.378 111.005 216.234 122.722 214.707 123.585C214.043 123.95 212.616 123.585 211.388 122.822C210.16 122.058 207.869 120.83 207.869 120.83V120.399C207.869 120.399 208.799 115.984 210.89 107.122C212.981 98.2599 217.528 84.4854 218.424 81.9629C218.424 81.9629 220.217 82.162 224.83 83.1578C226.654 83.5649 228.441 84.1199 230.174 84.8174C231.06 85.1761 231.925 85.5862 232.763 86.0455Z" fill="url(#paint78_linear_3834_15491)"/>
<path d="M275.646 113.959L276.078 113.096H275.613L262.801 124.879C262.714 125.184 262.648 125.495 262.602 125.809C267.259 122.213 271.621 118.25 275.646 113.959Z" fill="url(#paint79_linear_3834_15491)"/>
<path d="M249.093 121.892C247.599 122.357 242.455 124.349 242.986 125.975C243.517 127.601 248.628 124.913 249.624 124.183C250.852 122.888 250.553 121.394 249.093 121.892Z" fill="url(#paint80_linear_3834_15491)"/>
<path d="M231.634 21.2887C232.696 20.4589 227.352 15.2479 226.357 16.6419C225.361 18.0359 230.306 22.3508 231.634 21.2887Z" fill="url(#paint81_linear_3834_15491)"/>
<path d="M233.526 20.525C234.953 20.2594 232.563 15.3139 231.767 13.3556C230.97 11.3973 230.24 7.24838 229.012 8.37689C227.784 9.5054 231.003 21.0229 233.526 20.525Z" fill="url(#paint82_linear_3834_15491)"/>
<path d="M238.405 2.8673C236.912 2.40262 234.489 6.18645 234.489 10.8333C234.489 15.4801 234.489 21.2554 236.049 20.5252C237.609 19.795 237.21 13.6213 237.576 11.132C238.073 7.77964 239.501 3.23241 238.405 2.8673Z" fill="url(#paint83_linear_3834_15491)"/>
<path d="M244.28 4.0625C242.986 4.0625 240.961 8.04547 239.434 11.7297C237.907 15.414 237.542 18.368 238.737 18.9323C239.932 19.4966 241.691 14.8165 242.953 12.294C244.214 9.77144 245.508 4.22846 244.28 4.0625Z" fill="url(#paint84_linear_3834_15491)"/>
<path d="M249.856 7.81307C248.694 7.48116 246.537 9.80457 244.778 12.9578C243.019 16.111 242.753 18.0029 243.583 18.0693C244.413 18.1356 246.471 15.5467 248.163 13.3561C249.856 11.1654 250.885 8.0786 249.856 7.81307Z" fill="url(#paint85_linear_3834_15491)"/>
<path d="M258.154 53.4182C256.826 54.3475 252.412 50.5969 248.728 46.4148C247.629 45.1973 246.609 43.9113 245.674 42.5645C248.131 43.0694 250.688 42.6056 252.81 41.2701C254.665 39.7403 255.855 37.5513 256.129 35.1628C256.532 36.1708 256.876 37.2015 257.158 38.2497C258.519 43.859 259.581 52.4888 258.154 53.4182Z" fill="url(#paint86_linear_3834_15491)"/>
<path d="M234.488 81.9298C234.392 82.2011 234.281 82.467 234.157 82.7264C225.726 77.9801 220.88 77.8141 218.988 78.0796L219.187 77.1835C221.511 76.9511 226.323 77.3494 234.488 81.9298Z" fill="#C6A646"/>
<path d="M290.583 71.0098C290.583 64.7366 290.085 53.4183 285.936 45.5188C285.899 45.4816 285.855 45.4522 285.807 45.4321C285.758 45.412 285.706 45.4016 285.654 45.4016C285.601 45.4016 285.549 45.412 285.501 45.4321C285.453 45.4522 285.409 45.4816 285.372 45.5188C285.272 45.5688 285.195 45.6556 285.158 45.7608C285.121 45.866 285.126 45.9815 285.172 46.083C289.122 53.6175 289.753 64.3715 289.753 70.6447C287.142 69.7273 284.363 69.3858 281.607 69.6436C278.851 69.9014 276.184 70.7525 273.788 72.1384C273.497 65.2335 272.653 58.363 271.265 51.5928C271.241 51.4839 271.176 51.3884 271.083 51.3265C270.99 51.2646 270.877 51.2411 270.767 51.2609C270.662 51.2915 270.571 51.3582 270.511 51.4493C270.45 51.5404 270.423 51.65 270.435 51.7588C270.435 51.9579 274.053 68.8856 272.659 78.8099C272.644 78.8626 272.641 78.9181 272.651 78.9722C272.66 79.0262 272.681 79.0775 272.713 79.1221C272.745 79.1668 272.787 79.2037 272.835 79.2301C272.883 79.2564 272.936 79.2716 272.991 79.2745C273.093 79.2696 273.191 79.2311 273.269 79.1651C273.347 79.0991 273.401 79.0093 273.423 78.9094C273.657 76.9823 273.767 75.0422 273.755 73.1009C276.108 71.6403 278.764 70.7374 281.519 70.4613C284.275 70.1852 287.057 70.5431 289.653 71.5077C289.653 73.5988 289.653 75.0592 289.653 75.5239C289.644 75.6333 289.676 75.7422 289.744 75.8285C289.812 75.9149 289.91 75.9721 290.018 75.9886C290.073 75.9932 290.129 75.9863 290.181 75.9683C290.233 75.9504 290.281 75.9218 290.322 75.8843C290.362 75.8469 290.395 75.8014 290.417 75.7508C290.439 75.7001 290.45 75.6455 290.45 75.5903C290.45 75.0592 290.45 73.466 290.45 71.209L290.583 71.0098Z" fill="#C6A646"/>
<path d="M298.117 125.344C297.895 125.524 297.662 125.69 297.42 125.842C295.341 123.366 292.902 121.218 290.184 119.469C286.39 117.178 282.12 115.793 277.704 115.42C277.903 115.088 278.102 114.822 278.268 114.59C282.639 115.048 286.855 116.464 290.616 118.739C293.427 120.56 295.955 122.786 298.117 125.344Z" fill="#F7D058"/>
<path d="M227.784 159.631C227.488 159.597 227.215 159.451 227.024 159.222C226.832 158.994 226.736 158.7 226.755 158.403C227.651 147.516 229.775 122.489 230.074 118.573L228.713 116.98C228.502 116.768 228.384 116.482 228.384 116.183C228.384 115.884 228.502 115.598 228.713 115.386C228.813 115.279 228.933 115.193 229.067 115.134C229.202 115.075 229.347 115.045 229.493 115.045C229.64 115.045 229.785 115.075 229.919 115.134C230.053 115.193 230.174 115.279 230.273 115.386L231.966 117.345C232.065 117.457 232.139 117.589 232.185 117.732C232.231 117.875 232.246 118.025 232.231 118.174C232.231 118.174 229.842 146.52 228.912 158.303C228.936 158.466 228.924 158.632 228.879 158.791C228.833 158.949 228.754 159.096 228.648 159.222C228.541 159.347 228.409 159.449 228.26 159.519C228.111 159.59 227.949 159.628 227.784 159.631Z" fill="url(#paint87_linear_3834_15491)"/>
<path style="mix-blend-mode:multiply" opacity="0.6" d="M295.196 86.0786C292.848 92.7169 289.489 98.9529 285.239 104.566C282.484 108.649 280.359 111.57 278.6 113.86C277.612 113.584 276.568 113.584 275.58 113.86C275.812 113.594 276.078 113.329 276.31 113.03C277.492 111.802 278.6 110.505 279.629 109.147C284.72 102.638 288.23 95.037 289.885 86.9416C289.885 86.9416 292.01 86.6097 295.196 86.0786Z" fill="url(#paint88_linear_3834_15491)"/>
<path style="mix-blend-mode:multiply" opacity="0.6" d="M324.073 86.3111C323.608 93.5137 319.957 102.143 312.754 111.603C308.533 116.837 303.607 121.462 298.117 125.344C297.895 125.524 297.662 125.691 297.42 125.842C295.395 127.269 294.101 128.099 294.101 128.099C292.455 126.691 290.726 125.383 288.923 124.183C292.673 115.951 305.021 109.213 313.153 102.807C320.621 96.8992 323.11 87.7052 323.376 78.2456C323.963 80.8916 324.197 83.6037 324.073 86.3111Z" fill="url(#paint89_linear_3834_15491)"/>
<path style="mix-blend-mode:multiply" opacity="0.5" d="M232.763 86.0452C231.701 88.5346 227.419 99.3218 224.398 105.164C221.378 111.005 216.233 122.722 214.707 123.585C214.043 123.95 212.616 123.585 211.387 122.821C213.18 115.453 220.747 108.084 223.403 100.019C224.72 94.5853 226.966 89.42 230.041 84.7507C230.974 85.1263 231.883 85.5586 232.763 86.0452Z" fill="url(#paint90_linear_3834_15491)"/>
<path d="M290.482 74.7936C290.196 74.7626 289.906 74.7626 289.62 74.7936C286.85 74.5954 284.067 74.7966 281.355 75.3911C278.319 75.6772 275.367 76.5449 272.659 77.9468C272.275 85.4325 270.649 92.8021 267.846 99.7536C264.18 106.492 259.796 112.813 254.769 118.606C257.308 120.406 259.296 122.877 260.511 125.743C260.511 126.141 260.776 126.606 260.876 127.037C260.975 127.469 261.473 126.639 262.436 125.875C267.152 122.265 271.57 118.28 275.646 113.96C275.878 113.694 276.144 113.429 276.376 113.13H276.077L275.646 113.96L276.077 113.097H276.376C277.558 111.869 278.666 110.572 279.695 109.213C285.187 102.248 288.819 94.0023 290.25 85.249C290.683 81.7808 290.761 78.2776 290.482 74.7936Z" fill="url(#paint91_linear_3834_15491)"/>
<path style="mix-blend-mode:multiply" opacity="0.5" d="M289.985 85.2825C288.554 94.0358 284.922 102.282 279.43 109.247C278.401 110.605 277.292 111.902 276.111 113.13L275.38 113.96C271.361 118.215 267.011 122.144 262.369 125.71C261.407 126.473 260.809 126.871 260.809 126.871C260.809 126.871 260.577 125.975 260.444 125.577C262.455 123.658 264.299 121.57 265.954 119.337C272.161 111.039 278.899 100.717 284.641 93.2152C289.985 86.2782 289.288 81.0339 289.553 74.628C289.84 74.597 290.129 74.597 290.416 74.628C290.642 78.1848 290.498 81.7555 289.985 85.2825Z" fill="url(#paint92_linear_3834_15491)"/>
<path style="mix-blend-mode:multiply" opacity="0.5" d="M256.993 38.3163C256.461 40.3078 255.897 41.2372 252.976 42.8304C251.262 43.6507 249.797 44.9104 248.728 46.4814C247.629 45.264 246.609 43.978 245.674 42.6312C248.131 43.136 250.688 42.6722 252.81 41.3367C254.665 39.8069 255.855 37.6179 256.129 35.2295C256.476 36.241 256.764 37.2716 256.993 38.3163Z" fill="url(#paint93_linear_3834_15491)"/>
<path style="mix-blend-mode:multiply" opacity="0.5" d="M256.096 25.6036C256.64 28.789 256.64 32.0437 256.096 35.2291C255.841 37.4954 254.795 39.5992 253.142 41.1704C253.398 40.5842 253.53 39.9514 253.53 39.3117C253.53 38.672 253.398 38.0392 253.142 37.453C251.649 33.8019 253.474 29.9517 253.574 26.0351C253.434 24.4677 252.926 22.9557 252.089 21.6229C251.253 20.2902 250.112 19.1747 248.761 18.3678C249.723 17.6591 250.643 16.8944 251.516 16.0776C252.976 17.1398 253.441 20.5253 253.441 20.5253C253.441 20.5253 254.437 16.8078 255.632 16.4095C256.826 16.0112 258.088 17.0734 258.32 20.5253C258.399 21.4897 258.237 22.4587 257.849 23.3451C257.461 24.2314 256.859 25.0075 256.096 25.6036Z" fill="url(#paint94_linear_3834_15491)"/>
<path d="M247.035 22.2843C247.035 21.9856 252.246 18.9652 255.233 16.4094L253.408 20.2265L249.856 27.8605L247.035 22.2843Z" fill="url(#paint95_linear_3834_15491)"/>
<path style="mix-blend-mode:multiply" opacity="0.6" d="M253.607 13.5882C252.934 14.4666 252.179 15.2781 251.35 16.0112C248.795 18.3426 245.881 20.2477 242.72 21.6538C238.505 23.5747 234.033 24.8717 229.444 25.504C228.584 25.5683 227.724 25.3714 226.978 24.939C226.232 24.5067 225.634 23.8591 225.262 23.081C228.581 19.1312 236.845 18.9653 245.177 16.9406C254.271 14.7168 252.611 8.90824 251.516 3.43164C251.851 3.75335 252.152 4.10935 252.412 4.49377C254.968 8.50994 254.902 11.8623 253.607 13.5882Z" fill="url(#paint96_linear_3834_15491)"/>
<path style="mix-blend-mode:multiply" opacity="0.5" d="M296.424 182.4C295.873 183.167 295.263 183.888 294.598 184.558C294.446 176.096 293.535 167.665 291.877 159.366C289.786 148.811 285.238 146.089 283.18 138.322C281.454 131.286 285.902 127.767 288.823 123.95C290.652 125.179 292.404 126.521 294.067 127.966C291.826 129.959 289.881 132.261 288.292 134.804C287.728 136.762 290.449 143.334 291.943 151.2C293.436 159.067 296.424 182.4 296.424 182.4Z" fill="url(#paint97_linear_3834_15491)"/>
<path d="M296.789 190.897C296.234 191.631 295.504 192.213 294.665 192.59C292.868 193.449 290.956 194.042 288.989 194.349L288.491 193.221L286.964 189.669C289.08 188.802 291.085 187.688 292.939 186.35C293.521 185.873 294.075 185.363 294.598 184.823C295.263 184.154 295.873 183.432 296.424 182.666L296.722 189.304L296.789 190.897Z" fill="url(#paint98_linear_3834_15491)"/>
<path style="mix-blend-mode:multiply" opacity="0.6" d="M296.789 190.897C296.234 191.631 295.504 192.213 294.665 192.59C294.665 190.2 294.665 187.446 294.665 184.691C295.33 184.021 295.94 183.3 296.491 182.533L296.789 189.172V190.897Z" fill="url(#paint99_linear_3834_15491)"/>
<path d="M291.28 201.485C285.372 204.805 279.662 205.701 280.127 203.842C280.365 203.204 280.689 202.601 281.09 202.05C283.223 199.028 285.587 196.176 288.16 193.519L288.491 193.254L288.989 194.382C291.041 194.062 293.032 193.436 294.897 192.524C295.645 192.149 296.293 191.603 296.789 190.931V189.138C297.593 191.512 297.473 194.102 296.451 196.39C295.43 198.679 293.583 200.498 291.28 201.485Z" fill="url(#paint100_linear_3834_15491)"/>
<path style="mix-blend-mode:multiply" opacity="0.5" d="M291.28 201.485C285.372 204.805 279.662 205.701 280.127 203.842C280.365 203.204 280.689 202.601 281.09 202.05C284.409 200.357 289.189 199.594 291.877 198.332C292.942 197.823 293.813 196.981 294.358 195.933C294.903 194.885 295.092 193.689 294.897 192.524C295.645 192.149 296.293 191.603 296.789 190.931V189.138C297.593 191.512 297.473 194.102 296.451 196.39C295.43 198.679 293.583 200.498 291.28 201.485Z" fill="url(#paint101_linear_3834_15491)"/>
<path d="M214.175 285.361C213.424 285.411 212.67 285.411 211.918 285.361C195.986 283.004 187.124 256.451 191.804 224.952C196.186 195.246 211.056 172.808 226.324 172.808C227.075 172.759 227.829 172.759 228.581 172.808C244.513 175.165 253.375 201.718 248.695 233.217C244.28 262.923 229.444 285.361 214.175 285.361ZM226.324 176.028C213.047 176.028 199.239 197.669 195.157 225.284C190.842 254.426 198.476 279.784 212.416 281.709C213.002 281.759 213.59 281.759 214.175 281.709C227.452 281.709 241.26 260.069 245.376 232.453C249.657 203.311 242.056 177.92 228.083 176.028C227.497 175.978 226.909 175.978 226.324 176.028Z" fill="url(#paint102_linear_3834_15491)"/>
<path d="M203.886 140.878C201.536 140.95 199.219 140.302 197.248 139.019C195.697 137.898 194.472 136.385 193.696 134.636C192.921 132.887 192.623 130.963 192.833 129.062C193.232 117.245 202.791 114.922 220.084 114.789C232.033 114.789 250.952 116.117 253.474 119.536C253.688 119.809 253.83 120.131 253.888 120.473C253.945 120.815 253.917 121.166 253.806 121.494C253.372 122.541 252.779 123.515 252.047 124.382C250.321 126.771 247.898 129.991 249.027 133.011C249.274 133.894 249.733 134.702 250.364 135.367C250.994 136.032 251.777 136.534 252.644 136.828C253.755 137.015 254.894 136.934 255.967 136.594C257.041 136.253 258.018 135.662 258.818 134.87C258.984 134.702 259.183 134.571 259.403 134.485C259.623 134.399 259.858 134.36 260.094 134.37C260.329 134.38 260.56 134.439 260.772 134.544C260.983 134.648 261.17 134.796 261.321 134.977C261.472 135.159 261.584 135.369 261.649 135.596C261.714 135.823 261.73 136.061 261.698 136.295C261.665 136.528 261.584 136.753 261.46 136.953C261.335 137.154 261.17 137.326 260.976 137.459C259.771 138.61 258.305 139.45 256.703 139.907C255.101 140.364 253.412 140.424 251.781 140.081C250.387 139.65 249.119 138.887 248.084 137.858C247.049 136.829 246.279 135.565 245.84 134.173C244.114 129.46 247.268 125.211 249.159 122.39L249.989 121.228C240.231 118.774 230.169 117.746 220.117 118.175C201.828 118.175 196.484 120.764 196.219 129.161C196.024 130.534 196.209 131.934 196.753 133.209C197.297 134.485 198.18 135.587 199.306 136.397C200.459 137.089 201.755 137.509 203.096 137.624C204.436 137.739 205.785 137.547 207.039 137.061C207.455 136.889 207.92 136.883 208.339 137.043C208.759 137.204 209.102 137.519 209.296 137.924C209.475 138.333 209.485 138.797 209.323 139.213C209.161 139.63 208.842 139.966 208.433 140.147C206.984 140.7 205.436 140.949 203.886 140.878Z" fill="url(#paint103_linear_3834_15491)"/>
<path d="M225.859 229.997L224.896 227.973L225.361 229.002L224.266 228.736C224.432 227.873 225.66 214.464 226.722 202.647C227.286 196.706 227.85 190.632 228.315 185.554C229.165 177.063 229.42 168.523 229.078 159.996L225.295 159.631C224.998 159.598 224.726 159.452 224.534 159.223C224.343 158.994 224.247 158.701 224.266 158.403C224.278 158.255 224.32 158.11 224.388 157.978C224.457 157.846 224.551 157.729 224.665 157.633C224.78 157.537 224.912 157.465 225.054 157.421C225.196 157.376 225.345 157.361 225.494 157.374L230.273 157.739C230.534 157.774 230.776 157.893 230.962 158.079C231.149 158.265 231.268 158.507 231.302 158.768C231.764 167.746 231.52 176.747 230.572 185.687C230.107 190.765 229.543 196.839 229.012 202.813C228.381 209.452 227.784 216.09 227.352 220.903C226.523 229.699 226.523 229.699 225.859 229.997Z" fill="url(#paint104_linear_3834_15491)"/>
<path d="M254.769 118.44L253.806 119.569C252.901 122.054 251.475 124.318 249.624 126.207C246.902 128.73 245.641 129.725 245.508 131.119C245.375 132.514 248.429 131.485 250.752 128.896C250.752 128.896 245.774 134.306 246.039 135.069C246.305 135.833 249.358 135.069 251.748 132.115C251.748 132.115 247.732 136.397 248.23 137.028C248.728 137.658 251.815 136.331 252.877 134.571C252.877 134.571 249.923 137.891 250.686 138.355C251.449 138.82 254.404 137.393 255.964 134.837C257.146 132.779 258.178 130.638 259.05 128.431C259.614 127.835 260.25 127.311 260.942 126.871C260.719 124.986 259.906 123.22 258.619 121.826C257.642 120.391 256.317 119.226 254.769 118.44Z" fill="url(#paint105_linear_3834_15491)"/>
<path d="M224.033 230.362C224.033 228.205 224.631 226.446 225.394 226.446L217.661 226.811C216.897 226.811 216.3 228.537 216.3 230.694C216.3 232.852 216.897 234.611 217.661 234.611L225.394 234.246C224.631 234.246 224.033 232.652 224.033 230.362Z" fill="url(#paint106_linear_3834_15491)"/>
<path d="M224.033 230.362C224.033 232.52 224.631 234.246 225.394 234.246V226.446C224.631 226.446 224.033 228.205 224.033 230.362Z" fill="url(#paint107_linear_3834_15491)"/>
<path d="M225.394 226.446C224.631 226.446 224.033 228.205 224.033 230.362C224.033 232.52 224.631 234.246 225.394 234.246C226.157 234.246 226.722 232.52 226.722 230.362C226.722 228.205 226.124 226.446 225.394 226.446Z" fill="url(#paint108_linear_3834_15491)"/>
<path d="M282.716 212.738C282.716 219.376 279.397 224.952 275.48 224.952C271.564 224.952 268.211 219.476 268.211 212.738C268.211 206 271.53 200.523 275.48 200.523C279.43 200.523 282.716 206.099 282.716 212.738Z" fill="url(#paint109_linear_3834_15491)"/>
<path d="M194.227 119.071C193.696 120.697 196.218 122.39 199.239 123.884C202.259 125.377 204.815 123.884 202.16 121.56C199.504 119.237 194.658 117.776 194.227 119.071Z" fill="url(#paint110_linear_3834_15491)"/>
<path d="M193.796 122.589C193.63 123.618 193.796 121.395 193.796 122.589C193.796 123.784 197.115 126.672 201.895 127.502C206.675 128.332 201.895 123.851 198.576 122.755C195.257 121.66 194.062 121.029 193.796 122.589Z" fill="url(#paint111_linear_3834_15491)"/>
<path d="M194.891 116.482C194.891 118.341 199.14 121.062 201.529 121.295C203.919 121.527 203.189 118.573 199.671 116.482C196.152 114.391 194.792 114.723 194.891 116.482Z" fill="url(#paint112_linear_3834_15491)"/>
<path d="M199.007 114.159C199.007 115.519 202.558 120.996 204.716 120.233C206.873 119.469 199.007 108.815 199.007 114.159Z" fill="url(#paint113_linear_3834_15491)"/>
<path d="M248.23 123.95C248.23 123.95 244.413 124.647 243.484 124.647C244.546 125.211 244.645 127.601 244.347 130.356L245.508 131.086C245.508 131.086 247.5 126.008 248.23 123.95Z" fill="#111827"/>
<path d="M243.484 124.647C242.189 123.917 240.762 125.743 240.928 129.394C241.094 133.045 242.056 140.646 237.609 140.745C238.145 140.878 238.703 140.902 239.248 140.817C239.794 140.731 240.318 140.537 240.788 140.246C241.258 139.956 241.665 139.574 241.985 139.124C242.306 138.674 242.533 138.164 242.654 137.625C243.371 135.249 243.893 132.818 244.214 130.356C244.646 127.601 244.546 125.212 243.484 124.647Z" fill="url(#paint114_linear_3834_15491)"/>
<path d="M276.343 214.53C276.118 214.526 275.899 214.457 275.712 214.331C275.472 214.157 275.31 213.897 275.26 213.605C275.211 213.313 275.278 213.014 275.447 212.771C275.447 212.538 275.945 212.074 293.968 199.859C294.089 199.759 294.23 199.684 294.381 199.641C294.533 199.598 294.691 199.587 294.847 199.609C295.003 199.631 295.153 199.686 295.286 199.769C295.42 199.852 295.535 199.963 295.623 200.093C295.712 200.223 295.772 200.371 295.8 200.526C295.828 200.681 295.823 200.84 295.786 200.993C295.749 201.146 295.68 201.29 295.584 201.414C295.488 201.539 295.367 201.643 295.229 201.718C288.591 206.132 278.102 213.368 277.173 214.165C277.073 214.287 276.946 214.384 276.802 214.447C276.658 214.511 276.5 214.539 276.343 214.53Z" fill="#374151"/>
<path d="M246.338 41.0042C246.829 41.0272 247.319 40.9408 247.772 40.7514C248.226 40.562 248.631 40.2742 248.96 39.9089C248.96 39.9089 248.96 39.9089 249.159 39.9089C249.358 39.9089 249.159 39.9089 249.159 40.1081C248.79 40.4656 248.344 40.7326 247.854 40.8881C247.364 41.0436 246.845 41.0834 246.338 41.0042Z" fill="#E06255"/>
<path d="M244.712 37.9838H244.513C243.451 37.7846 242.222 35.6272 241.193 33.7353C240.895 33.2374 240.629 32.7727 240.364 32.3744C240.098 31.9761 240.364 32.3744 240.364 32.1753C240.364 31.9761 240.364 32.1753 240.364 32.1753L241.16 33.5693C242.189 35.3285 243.45 37.5191 244.479 37.7182C244.568 37.7576 244.664 37.7779 244.762 37.7779C244.859 37.7779 244.955 37.7576 245.044 37.7182C246.073 36.7225 243.583 31.9429 242.554 30.1838C242.537 30.1535 242.528 30.1192 242.528 30.0842C242.528 30.0492 242.537 30.0149 242.554 29.9846C242.554 29.9846 242.554 29.9846 242.554 29.9846C242.953 30.6484 246.371 36.6229 245.044 37.8842C244.941 37.9387 244.828 37.9725 244.712 37.9838Z" fill="#ED7D66"/>
<path d="M249.856 27.7613C250.055 28.757 248.362 29.8856 246.139 30.9145C243.915 31.9434 243.417 31.877 242.819 31.2132C242.322 30.4498 241.226 28.8234 240.264 29.5204C239.301 30.2175 240.994 32.6736 240.463 33.0719C238.546 33.7858 236.49 34.0471 234.455 33.8353C232.63 33.4702 230.24 28.9894 229.808 26.9979C232.847 27.0296 235.871 26.5815 238.77 25.6702L244.911 23.4464C245.656 23.197 246.361 22.8391 247.002 22.3843C248.074 24.1098 249.028 25.9063 249.856 27.7613Z" fill="url(#paint115_linear_3834_15491)"/>
<path style="mix-blend-mode:multiply" opacity="0.6" d="M249.856 27.761C250.055 28.7568 248.363 29.8853 246.139 30.9142C243.915 31.9432 243.417 31.8768 242.82 31.213C244.085 28.7912 244.778 26.1113 244.844 23.3798C245.59 23.1304 246.294 22.7725 246.935 22.3176C248.033 24.0627 249.009 25.8815 249.856 27.761Z" fill="url(#paint116_linear_3834_15491)"/>
<defs>
<filter id="filter0_f_3834_15491" x="8.46399" y="359.528" width="99.4602" height="39.4716" filterUnits="userSpaceOnUse" color-interpolation-filters="sRGB">
<feFlood flood-opacity="0" result="BackgroundImageFix"/>
<feBlend mode="normal" in="SourceGraphic" in2="BackgroundImageFix" result="shape"/>
<feGaussianBlur stdDeviation="4" result="effect1_foregroundBlur_3834_15491"/>
</filter>
<filter id="filter1_f_3834_15491" x="209.495" y="261.122" width="106.845" height="33.5996" filterUnits="userSpaceOnUse" color-interpolation-filters="sRGB">
<feFlood flood-opacity="0" result="BackgroundImageFix"/>
<feBlend mode="normal" in="SourceGraphic" in2="BackgroundImageFix" result="shape"/>
<feGaussianBlur stdDeviation="4" result="effect1_foregroundBlur_3834_15491"/>
</filter>
<linearGradient id="paint0_linear_3834_15491" x1="26.6723" y1="183.213" x2="40.3717" y2="183.213" gradientUnits="userSpaceOnUse">
<stop stop-color="#ADA9D0"/>
<stop offset="0.99" stop-color="#2B285A"/>
</linearGradient>
<linearGradient id="paint1_linear_3834_15491" x1="23.1141" y1="190.729" x2="32.5243" y2="190.729" gradientUnits="userSpaceOnUse">
<stop stop-color="#9CA3AF"/>
<stop offset="0.99" stop-color="#111827"/>
</linearGradient>
<linearGradient id="paint2_linear_3834_15491" x1="108.055" y1="361.731" x2="115.348" y2="237.335" gradientUnits="userSpaceOnUse">
<stop stop-color="#9CA3AF"/>
<stop offset="0.99" stop-color="#111827"/>
</linearGradient>
<linearGradient id="paint3_linear_3834_15491" x1="82.4983" y1="286.001" x2="134.494" y2="299.265" gradientUnits="userSpaceOnUse">
<stop stop-color="#9CA3AF"/>
<stop offset="0.99" stop-color="#111827"/>
</linearGradient>
<linearGradient id="paint4_linear_3834_15491" x1="2.86398" y1="317.548" x2="631.877" y2="317.548" gradientUnits="userSpaceOnUse">
<stop stop-color="#275D7C"/>
<stop offset="0.99" stop-color="#1F4A63"/>
</linearGradient>
<linearGradient id="paint5_linear_3834_15491" x1="71.5943" y1="204.461" x2="25.4085" y2="300.624" gradientUnits="userSpaceOnUse">
<stop stop-color="#FCAA86"/>
<stop offset="0.38" stop-color="#FBBA97"/>
<stop offset="0.99" stop-color="#FFC8B0"/>
</linearGradient>
<linearGradient id="paint6_linear_3834_15491" x1="83.9639" y1="208.917" x2="12.7067" y2="319.344" gradientUnits="userSpaceOnUse">
<stop stop-color="#FCAA86"/>
<stop offset="0.45" stop-color="#FBBA97"/>
<stop offset="0.98" stop-color="#FFC8B0"/>
</linearGradient>
<linearGradient id="paint7_linear_3834_15491" x1="119.11" y1="200.338" x2="138.562" y2="200.338" gradientUnits="userSpaceOnUse">
<stop stop-color="#9CA3AF"/>
<stop offset="0.99" stop-color="#111827"/>
</linearGradient>
<linearGradient id="paint8_linear_3834_15491" x1="28.1914" y1="383.68" x2="35.7798" y2="254.457" gradientUnits="userSpaceOnUse">
<stop stop-color="#9CA3AF"/>
<stop offset="0.99" stop-color="#111827"/>
</linearGradient>
<linearGradient id="paint9_linear_3834_15491" x1="-128.478" y1="114.883" x2="332.782" y2="114.883" gradientUnits="userSpaceOnUse">
<stop stop-color="#B1C5D0"/>
<stop offset="0.14" stop-color="#7E9EB1"/>
<stop offset="0.3" stop-color="#527D96"/>
<stop offset="0.47" stop-color="#275D7C"/>
<stop offset="0.63" stop-color="#1F4A63"/>
<stop offset="0.81" stop-color="#18384B"/>
<stop offset="0.99" stop-color="#132C3B"/>
</linearGradient>
<linearGradient id="paint10_linear_3834_15491" x1="94.338" y1="162.432" x2="95.4021" y2="100.285" gradientUnits="userSpaceOnUse">
<stop stop-color="#3A79E5"/>
<stop offset="0.99" stop-color="#0746B2"/>
</linearGradient>
<linearGradient id="paint11_linear_3834_15491" x1="171.015" y1="164.228" x2="88.9514" y2="199.939" gradientUnits="userSpaceOnUse">
<stop stop-color="#F7D058"/>
<stop offset="0.99" stop-color="#F9D979"/>
</linearGradient>
<linearGradient id="paint12_linear_3834_15491" x1="149.967" y1="161.035" x2="164.066" y2="210.912" gradientUnits="userSpaceOnUse">
<stop stop-color="#F7D058"/>
<stop offset="0.99" stop-color="#F9D979"/>
</linearGradient>
<linearGradient id="paint13_linear_3834_15491" x1="136.999" y1="178.126" x2="97.2976" y2="229.665" gradientUnits="userSpaceOnUse">
<stop stop-color="#F7D058"/>
<stop offset="0.99" stop-color="#F9D979"/>
</linearGradient>
<linearGradient id="paint14_linear_3834_15491" x1="125.594" y1="64.1083" x2="123.732" y2="57.7573" gradientUnits="userSpaceOnUse">
<stop stop-color="#9CA3AF"/>
<stop offset="0.99" stop-color="#111827"/>
</linearGradient>
<linearGradient id="paint15_linear_3834_15491" x1="113.624" y1="54.6649" x2="161.638" y2="54.6649" gradientUnits="userSpaceOnUse">
<stop stop-color="#FEB80A"/>
<stop offset="0.99" stop-color="#FED56D"/>
</linearGradient>
<linearGradient id="paint16_linear_3834_15491" x1="68.236" y1="119.372" x2="48.8173" y2="169.215" gradientUnits="userSpaceOnUse">
<stop stop-color="#FCAA86"/>
<stop offset="0.38" stop-color="#FBBA97"/>
<stop offset="0.99" stop-color="#FFC8B0"/>
</linearGradient>
<linearGradient id="paint17_linear_3834_15491" x1="65.0767" y1="156.746" x2="173.409" y2="156.746" gradientUnits="userSpaceOnUse">
<stop stop-color="#ADA9D0"/>
<stop offset="0.99" stop-color="#2B285A"/>
</linearGradient>
<linearGradient id="paint18_linear_3834_15491" x1="65.0091" y1="162.831" x2="173.444" y2="162.831" gradientUnits="userSpaceOnUse">
<stop stop-color="#ADA9D0"/>
<stop offset="0.99" stop-color="#2B285A"/>
</linearGradient>
<linearGradient id="paint19_linear_3834_15491" x1="111.229" y1="162.831" x2="160.376" y2="162.831" gradientUnits="userSpaceOnUse">
<stop stop-color="#FCAA86"/>
<stop offset="0.38" stop-color="#FBBA97"/>
<stop offset="0.99" stop-color="#FFC8B0"/>
</linearGradient>
<linearGradient id="paint20_linear_3834_15491" x1="65.0798" y1="157.743" x2="173.409" y2="157.743" gradientUnits="userSpaceOnUse">
<stop stop-color="#ADA9D0"/>
<stop offset="0.99" stop-color="#2B285A"/>
</linearGradient>
<linearGradient id="paint21_linear_3834_15491" x1="135.137" y1="61.1824" x2="136.268" y2="99.1884" gradientUnits="userSpaceOnUse">
<stop stop-color="#FCAA86"/>
<stop offset="0.38" stop-color="#FBBA97"/>
<stop offset="0.99" stop-color="#FFC8B0"/>
</linearGradient>
<linearGradient id="paint22_linear_3834_15491" x1="114.156" y1="120.203" x2="110.299" y2="85.9207" gradientUnits="userSpaceOnUse">
<stop stop-color="#527D96"/>
<stop offset="0.99" stop-color="#275D7C"/>
</linearGradient>
<linearGradient id="paint23_linear_3834_15491" x1="131.413" y1="88.7807" x2="129.884" y2="106.803" gradientUnits="userSpaceOnUse">
<stop stop-color="#FCAA86"/>
<stop offset="0.38" stop-color="#FBBA97"/>
<stop offset="0.99" stop-color="#FFC8B0"/>
</linearGradient>
<linearGradient id="paint24_linear_3834_15491" x1="125.993" y1="43.9915" x2="138.196" y2="63.0444" gradientUnits="userSpaceOnUse">
<stop stop-color="#9CA3AF"/>
<stop offset="0.99" stop-color="#111827"/>
</linearGradient>
<linearGradient id="paint25_linear_3834_15491" x1="135.137" y1="41.8633" x2="147.041" y2="65.9705" gradientUnits="userSpaceOnUse">
<stop stop-color="#9CA3AF"/>
<stop offset="0.99" stop-color="#111827"/>
</linearGradient>
<linearGradient id="paint26_linear_3834_15491" x1="147.939" y1="48.5468" x2="151.497" y2="65.9039" gradientUnits="userSpaceOnUse">
<stop stop-color="#9CA3AF"/>
<stop offset="0.99" stop-color="#111827"/>
</linearGradient>
<linearGradient id="paint27_linear_3834_15491" x1="135.137" y1="120.402" x2="150.1" y2="102.048" gradientUnits="userSpaceOnUse">
<stop stop-color="#527D96"/>
<stop offset="0.99" stop-color="#275D7C"/>
</linearGradient>
<linearGradient id="paint28_linear_3834_15491" x1="148.438" y1="157.178" x2="125.162" y2="201.103" gradientUnits="userSpaceOnUse">
<stop stop-color="#FCAA86"/>
<stop offset="0.38" stop-color="#FBBA97"/>
<stop offset="0.99" stop-color="#FFC8B0"/>
</linearGradient>
<linearGradient id="paint29_linear_3834_15491" x1="163.833" y1="169.68" x2="164.964" y2="101.981" gradientUnits="userSpaceOnUse">
<stop stop-color="#3A79E5"/>
<stop offset="0.99" stop-color="#0746B2"/>
</linearGradient>
<linearGradient id="paint30_linear_3834_15491" x1="43.7632" y1="149.796" x2="1077.37" y2="149.796" gradientUnits="userSpaceOnUse">
<stop stop-color="#FCAA86"/>
<stop offset="0.38" stop-color="#FBBA97"/>
<stop offset="0.99" stop-color="#FFC8B0"/>
</linearGradient>
<linearGradient id="paint31_linear_3834_15491" x1="119.276" y1="181.019" x2="1408.95" y2="181.019" gradientUnits="userSpaceOnUse">
<stop stop-color="#FCAA86"/>
<stop offset="0.45" stop-color="#FBBA97"/>
<stop offset="0.98" stop-color="#FFC8B0"/>
</linearGradient>
<linearGradient id="paint32_linear_3834_15491" x1="147.872" y1="64.7402" x2="132.643" y2="93.1699" gradientUnits="userSpaceOnUse">
<stop stop-color="#FCAA86"/>
<stop offset="0.45" stop-color="#FBBA97"/>
<stop offset="0.98" stop-color="#FFC8B0"/>
</linearGradient>
<linearGradient id="paint33_linear_3834_15491" x1="122.236" y1="87.5501" x2="141.389" y2="87.5501" gradientUnits="userSpaceOnUse">
<stop stop-color="#FCAA86"/>
<stop offset="0.45" stop-color="#FBBA97"/>
<stop offset="0.98" stop-color="#FFC8B0"/>
</linearGradient>
<linearGradient id="paint34_linear_3834_15491" x1="58.3275" y1="57.5578" x2="207.458" y2="57.5578" gradientUnits="userSpaceOnUse">
<stop stop-color="#FEB80A"/>
<stop offset="0.99" stop-color="#FED56D"/>
</linearGradient>
<linearGradient id="paint35_linear_3834_15491" x1="1.6526" y1="304.989" x2="55.6788" y2="318.771" gradientUnits="userSpaceOnUse">
<stop stop-color="#9CA3AF"/>
<stop offset="0.99" stop-color="#111827"/>
</linearGradient>
<linearGradient id="paint36_linear_3834_15491" x1="27.2374" y1="281.571" x2="53.5058" y2="281.571" gradientUnits="userSpaceOnUse">
<stop stop-color="#9CA3AF"/>
<stop offset="0.99" stop-color="#111827"/>
</linearGradient>
<linearGradient id="paint37_linear_3834_15491" x1="58.1277" y1="264.746" x2="125.428" y2="264.746" gradientUnits="userSpaceOnUse">
<stop stop-color="#9CA3AF"/>
<stop offset="0.99" stop-color="#111827"/>
</linearGradient>
<linearGradient id="paint38_linear_3834_15491" x1="79.5417" y1="272.26" x2="119.609" y2="272.26" gradientUnits="userSpaceOnUse">
<stop stop-color="#9CA3AF"/>
<stop offset="0.99" stop-color="#111827"/>
</linearGradient>
<linearGradient id="paint39_linear_3834_15491" x1="39.241" y1="280.44" x2="61.9182" y2="280.44" gradientUnits="userSpaceOnUse">
<stop stop-color="#9CA3AF"/>
<stop offset="0.99" stop-color="#111827"/>
</linearGradient>
<linearGradient id="paint40_linear_3834_15491" x1="53.3394" y1="216.099" x2="72.4921" y2="216.099" gradientUnits="userSpaceOnUse">
<stop stop-color="#9CA3AF"/>
<stop offset="0.99" stop-color="#111827"/>
</linearGradient>
<linearGradient id="paint41_linear_3834_15491" x1="30.0973" y1="198.011" x2="114.821" y2="198.011" gradientUnits="userSpaceOnUse">
<stop stop-color="#9CA3AF"/>
<stop offset="0.99" stop-color="#111827"/>
</linearGradient>
<linearGradient id="paint42_linear_3834_15491" x1="83.17" y1="315.466" x2="97.4896" y2="317.925" gradientUnits="userSpaceOnUse">
<stop stop-color="#6B7280"/>
<stop offset="0.97" stop-color="#374151"/>
</linearGradient>
<linearGradient id="paint43_linear_3834_15491" x1="26.2066" y1="180.022" x2="45.1598" y2="180.022" gradientUnits="userSpaceOnUse">
<stop stop-color="#F7D058"/>
<stop offset="0.99" stop-color="#F9D979"/>
</linearGradient>
<linearGradient id="paint44_linear_3834_15491" x1="44.5615" y1="174.934" x2="33.0566" y2="189.897" gradientUnits="userSpaceOnUse">
<stop stop-color="#F7D058"/>
<stop offset="0.99" stop-color="#F9D979"/>
</linearGradient>
<linearGradient id="paint45_linear_3834_15491" x1="27.1047" y1="326.459" x2="41.1363" y2="326.459" gradientUnits="userSpaceOnUse">
<stop stop-color="#ADA9D0"/>
<stop offset="0.99" stop-color="#2B285A"/>
</linearGradient>
<linearGradient id="paint46_linear_3834_15491" x1="38.8421" y1="326.46" x2="46.4568" y2="326.46" gradientUnits="userSpaceOnUse">
<stop stop-color="#9CA3AF"/>
<stop offset="0.99" stop-color="#111827"/>
</linearGradient>
<linearGradient id="paint47_linear_3834_15491" x1="172.611" y1="201.202" x2="113.624" y2="284.596" gradientUnits="userSpaceOnUse">
<stop stop-color="#FCAA86"/>
<stop offset="0.38" stop-color="#FBBA97"/>
<stop offset="0.99" stop-color="#FFC8B0"/>
</linearGradient>
<linearGradient id="paint48_linear_3834_15491" x1="149.834" y1="214.171" x2="110.132" y2="281.77" gradientUnits="userSpaceOnUse">
<stop stop-color="#FCAA86"/>
<stop offset="0.45" stop-color="#FBBA97"/>
<stop offset="0.98" stop-color="#FFC8B0"/>
</linearGradient>
<linearGradient id="paint49_linear_3834_15491" x1="26.6389" y1="326.46" x2="41.5686" y2="326.46" gradientUnits="userSpaceOnUse">
<stop stop-color="#9CA3AF"/>
<stop offset="0.99" stop-color="#111827"/>
</linearGradient>
<linearGradient id="paint50_linear_3834_15491" x1="101.321" y1="214.835" x2="113.99" y2="214.835" gradientUnits="userSpaceOnUse">
<stop stop-color="#9CA3AF"/>
<stop offset="0.99" stop-color="#111827"/>
</linearGradient>
<linearGradient id="paint51_linear_3834_15491" x1="104.214" y1="212.209" x2="122.07" y2="212.209" gradientUnits="userSpaceOnUse">
<stop stop-color="#F7D058"/>
<stop offset="0.99" stop-color="#F9D979"/>
</linearGradient>
<linearGradient id="paint52_linear_3834_15491" x1="124.131" y1="205.093" x2="111.064" y2="222.051" gradientUnits="userSpaceOnUse">
<stop stop-color="#F7D058"/>
<stop offset="0.99" stop-color="#F9D979"/>
</linearGradient>
<linearGradient id="paint53_linear_3834_15491" x1="97.5967" y1="220.754" x2="106.608" y2="220.754" gradientUnits="userSpaceOnUse">
<stop stop-color="#9CA3AF"/>
<stop offset="0.99" stop-color="#111827"/>
</linearGradient>
<linearGradient id="paint54_linear_3834_15491" x1="103.549" y1="315.986" x2="99.8579" y2="270.93" gradientUnits="userSpaceOnUse">
<stop stop-color="#275D7C"/>
<stop offset="0.99" stop-color="#1F4A63"/>
</linearGradient>
<linearGradient id="paint55_linear_3834_15491" x1="124.164" y1="69.2291" x2="151.763" y2="69.2291" gradientUnits="userSpaceOnUse">
<stop stop-color="#111827"/>
<stop offset="0.99" stop-color="#9CA3AF"/>
</linearGradient>
<linearGradient id="paint56_linear_3834_15491" x1="148.105" y1="66.4357" x2="146.409" y2="77.7079" gradientUnits="userSpaceOnUse">
<stop stop-color="#9CA3AF"/>
<stop offset="0.99" stop-color="#111827"/>
</linearGradient>
<linearGradient id="paint57_linear_3834_15491" x1="187.523" y1="185.321" x2="188.618" y2="120.963" gradientUnits="userSpaceOnUse">
<stop stop-color="#275D7C"/>
<stop offset="0.99" stop-color="#527D96"/>
</linearGradient>
<linearGradient id="paint58_linear_3834_15491" x1="211.022" y1="117.578" x2="202.558" y2="127.037" gradientUnits="userSpaceOnUse">
<stop stop-color="#F7D058"/>
<stop offset="0.99" stop-color="#F9D979"/>
</linearGradient>
<linearGradient id="paint59_linear_3834_15491" x1="260.08" y1="158.934" x2="279.297" y2="158.934" gradientUnits="userSpaceOnUse">
<stop stop-color="#FCAA86"/>
<stop offset="0.38" stop-color="#FBBA97"/>
<stop offset="0.99" stop-color="#FFC8B0"/>
</linearGradient>
<linearGradient id="paint60_linear_3834_15491" x1="284.707" y1="113.594" x2="257.191" y2="203.245" gradientUnits="userSpaceOnUse">
<stop stop-color="#FCAA86"/>
<stop offset="0.45" stop-color="#FBBA97"/>
<stop offset="0.98" stop-color="#FFC8B0"/>
</linearGradient>
<linearGradient id="paint61_linear_3834_15491" x1="265.556" y1="200.921" x2="263.598" y2="217.783" gradientUnits="userSpaceOnUse">
<stop stop-color="#9CA3AF"/>
<stop offset="0.99" stop-color="#111827"/>
</linearGradient>
<linearGradient id="paint62_linear_3834_15491" x1="268.211" y1="215.393" x2="268.477" y2="199.328" gradientUnits="userSpaceOnUse">
<stop stop-color="#9CA3AF"/>
<stop offset="0.99" stop-color="#111827"/>
</linearGradient>
<linearGradient id="paint63_linear_3834_15491" x1="249.558" y1="217.351" x2="268.676" y2="217.351" gradientUnits="userSpaceOnUse">
<stop stop-color="#F7D058"/>
<stop offset="0.99" stop-color="#F9D979"/>
</linearGradient>
<linearGradient id="paint64_linear_3834_15491" x1="258.055" y1="214.231" x2="260.478" y2="222.761" gradientUnits="userSpaceOnUse">
<stop stop-color="#F7D058"/>
<stop offset="0.99" stop-color="#F9D979"/>
</linearGradient>
<linearGradient id="paint65_linear_3834_15491" x1="285.791" y1="216.749" x2="342.736" y2="225.377" gradientUnits="userSpaceOnUse">
<stop stop-color="#9CA3AF"/>
<stop offset="0.99" stop-color="#111827"/>
</linearGradient>
<linearGradient id="paint66_linear_3834_15491" x1="227.684" y1="173.771" x2="290.748" y2="173.771" gradientUnits="userSpaceOnUse">
<stop stop-color="#9CA3AF"/>
<stop offset="0.99" stop-color="#111827"/>
</linearGradient>
<linearGradient id="paint67_linear_3834_15491" x1="276.675" y1="179.214" x2="316.638" y2="179.214" gradientUnits="userSpaceOnUse">
<stop stop-color="#9CA3AF"/>
<stop offset="0.99" stop-color="#111827"/>
</linearGradient>
<linearGradient id="paint68_linear_3834_15491" x1="216.532" y1="193.487" x2="226.523" y2="193.487" gradientUnits="userSpaceOnUse">
<stop stop-color="#9CA3AF"/>
<stop offset="0.99" stop-color="#111827"/>
</linearGradient>
<linearGradient id="paint69_linear_3834_15491" x1="299.743" y1="92.7504" x2="221.378" y2="37.2541" gradientUnits="userSpaceOnUse">
<stop stop-color="#F7D058"/>
<stop offset="0.99" stop-color="#F9D979"/>
</linearGradient>
<linearGradient id="paint70_linear_3834_15491" x1="230.174" y1="70.9103" x2="263.896" y2="89.6967" gradientUnits="userSpaceOnUse">
<stop stop-color="#F7D058"/>
<stop offset="0.99" stop-color="#F9D979"/>
</linearGradient>
<linearGradient id="paint71_linear_3834_15491" x1="246.769" y1="56.2731" x2="247.168" y2="32.7071" gradientUnits="userSpaceOnUse">
<stop stop-color="#F7D058"/>
<stop offset="0.99" stop-color="#F9D979"/>
</linearGradient>
<linearGradient id="paint72_linear_3834_15491" x1="293.404" y1="55.2771" x2="287.529" y2="79.4405" gradientUnits="userSpaceOnUse">
<stop stop-color="#F7D058"/>
<stop offset="0.99" stop-color="#F9D979"/>
</linearGradient>
<linearGradient id="paint73_linear_3834_15491" x1="251.35" y1="16.5423" x2="255.465" y2="16.5423" gradientUnits="userSpaceOnUse">
<stop stop-color="#9CA3AF"/>
<stop offset="0.97" stop-color="#111827"/>
</linearGradient>
<linearGradient id="paint74_linear_3834_15491" x1="242.886" y1="17.7369" x2="247.301" y2="43.5931" gradientUnits="userSpaceOnUse">
<stop stop-color="#FCAA86"/>
<stop offset="0.38" stop-color="#FBBA97"/>
<stop offset="0.99" stop-color="#FFC8B0"/>
</linearGradient>
<linearGradient id="paint75_linear_3834_15491" x1="275.48" y1="99.5879" x2="324.139" y2="99.5879" gradientUnits="userSpaceOnUse">
<stop stop-color="#275D7C"/>
<stop offset="0.99" stop-color="#1F4A63"/>
</linearGradient>
<linearGradient id="paint76_linear_3834_15491" x1="278.6" y1="118.64" x2="294.465" y2="191.462" gradientUnits="userSpaceOnUse">
<stop stop-color="#FCAA86"/>
<stop offset="0.38" stop-color="#FBBA97"/>
<stop offset="0.99" stop-color="#FFC8B0"/>
</linearGradient>
<linearGradient id="paint77_linear_3834_15491" x1="216.233" y1="12.9578" x2="258.619" y2="12.9578" gradientUnits="userSpaceOnUse">
<stop stop-color="#111827"/>
<stop offset="0.99" stop-color="#9CA3AF"/>
</linearGradient>
<linearGradient id="paint78_linear_3834_15491" x1="207.737" y1="102.807" x2="232.763" y2="102.807" gradientUnits="userSpaceOnUse">
<stop stop-color="#FCAA86"/>
<stop offset="0.38" stop-color="#FBBA97"/>
<stop offset="0.99" stop-color="#FFC8B0"/>
</linearGradient>
<linearGradient id="paint79_linear_3834_15491" x1="254.769" y1="119.37" x2="290.549" y2="119.37" gradientUnits="userSpaceOnUse">
<stop stop-color="#FCAA86"/>
<stop offset="0.38" stop-color="#FBBA97"/>
<stop offset="0.99" stop-color="#FFC8B0"/>
</linearGradient>
<linearGradient id="paint80_linear_3834_15491" x1="242.786" y1="124.116" x2="250.321" y2="124.116" gradientUnits="userSpaceOnUse">
<stop stop-color="#F7D058"/>
<stop offset="0.99" stop-color="#F9D979"/>
</linearGradient>
<linearGradient id="paint81_linear_3834_15491" x1="226.224" y1="18.9321" x2="231.767" y2="18.9321" gradientUnits="userSpaceOnUse">
<stop stop-color="#F7D058"/>
<stop offset="0.99" stop-color="#F9D979"/>
</linearGradient>
<linearGradient id="paint82_linear_3834_15491" x1="228.746" y1="14.3514" x2="233.957" y2="14.3514" gradientUnits="userSpaceOnUse">
<stop stop-color="#F7D058"/>
<stop offset="0.99" stop-color="#F9D979"/>
</linearGradient>
<linearGradient id="paint83_linear_3834_15491" x1="234.489" y1="11.7294" x2="238.804" y2="11.7294" gradientUnits="userSpaceOnUse">
<stop stop-color="#F7D058"/>
<stop offset="0.99" stop-color="#F9D979"/>
</linearGradient>
<linearGradient id="paint84_linear_3834_15491" x1="238.073" y1="11.5306" x2="244.778" y2="11.5306" gradientUnits="userSpaceOnUse">
<stop stop-color="#F7D058"/>
<stop offset="0.99" stop-color="#F9D979"/>
</linearGradient>
<linearGradient id="paint85_linear_3834_15491" x1="243.152" y1="12.9246" x2="250.288" y2="12.9246" gradientUnits="userSpaceOnUse">
<stop stop-color="#F7D058"/>
<stop offset="0.99" stop-color="#F9D979"/>
</linearGradient>
<linearGradient id="paint86_linear_3834_15491" x1="251.748" y1="41.768" x2="256.229" y2="56.1067" gradientUnits="userSpaceOnUse">
<stop stop-color="#FCAA86"/>
<stop offset="0.38" stop-color="#FBBA97"/>
<stop offset="0.99" stop-color="#FFC8B0"/>
</linearGradient>
<linearGradient id="paint87_linear_3834_15491" x1="226.655" y1="137.525" x2="232.265" y2="137.525" gradientUnits="userSpaceOnUse">
<stop stop-color="#9CA3AF"/>
<stop offset="0.99" stop-color="#111827"/>
</linearGradient>
<linearGradient id="paint88_linear_3834_15491" x1="285.006" y1="119.502" x2="285.57" y2="85.8463" gradientUnits="userSpaceOnUse">
<stop stop-color="#275D7C"/>
<stop offset="0.99" stop-color="#1F4A63"/>
</linearGradient>
<linearGradient id="paint89_linear_3834_15491" x1="306.016" y1="137.891" x2="307.012" y2="77.8473" gradientUnits="userSpaceOnUse">
<stop stop-color="#275D7C"/>
<stop offset="0.99" stop-color="#1F4A63"/>
</linearGradient>
<linearGradient id="paint90_linear_3834_15491" x1="228.514" y1="83.2239" x2="215.171" y2="126.638" gradientUnits="userSpaceOnUse">
<stop stop-color="#FCAA86"/>
<stop offset="0.45" stop-color="#FBBA97"/>
<stop offset="0.98" stop-color="#FFC8B0"/>
</linearGradient>
<linearGradient id="paint91_linear_3834_15491" x1="284.11" y1="78.7102" x2="260.909" y2="124.548" gradientUnits="userSpaceOnUse">
<stop stop-color="#FCAA86"/>
<stop offset="0.38" stop-color="#FBBA97"/>
<stop offset="0.99" stop-color="#FFC8B0"/>
</linearGradient>
<linearGradient id="paint92_linear_3834_15491" x1="285.803" y1="71.8731" x2="267.282" y2="132.248" gradientUnits="userSpaceOnUse">
<stop stop-color="#FCAA86"/>
<stop offset="0.45" stop-color="#FBBA97"/>
<stop offset="0.98" stop-color="#FFC8B0"/>
</linearGradient>
<linearGradient id="paint93_linear_3834_15491" x1="245.674" y1="40.872" x2="256.993" y2="40.872" gradientUnits="userSpaceOnUse">
<stop stop-color="#FCAA86"/>
<stop offset="0.45" stop-color="#FBBA97"/>
<stop offset="0.98" stop-color="#FFC8B0"/>
</linearGradient>
<linearGradient id="paint94_linear_3834_15491" x1="248.595" y1="28.624" x2="258.154" y2="28.624" gradientUnits="userSpaceOnUse">
<stop stop-color="#FCAA86"/>
<stop offset="0.45" stop-color="#FBBA97"/>
<stop offset="0.98" stop-color="#FFC8B0"/>
</linearGradient>
<linearGradient id="paint95_linear_3834_15491" x1="252.412" y1="13.2562" x2="246.637" y2="40.8052" gradientUnits="userSpaceOnUse">
<stop stop-color="#111827"/>
<stop offset="0.99" stop-color="#9CA3AF"/>
</linearGradient>
<linearGradient id="paint96_linear_3834_15491" x1="239.6" y1="30.0844" x2="240.065" y2="3.26568" gradientUnits="userSpaceOnUse">
<stop stop-color="#9CA3AF"/>
<stop offset="0.99" stop-color="#111827"/>
</linearGradient>
<linearGradient id="paint97_linear_3834_15491" x1="299.511" y1="125.809" x2="281.687" y2="183.861" gradientUnits="userSpaceOnUse">
<stop stop-color="#FCAA86"/>
<stop offset="0.45" stop-color="#FBBA97"/>
<stop offset="0.98" stop-color="#FFC8B0"/>
</linearGradient>
<linearGradient id="paint98_linear_3834_15491" x1="287.827" y1="177.787" x2="298.78" y2="201.685" gradientUnits="userSpaceOnUse">
<stop stop-color="#9CA3AF"/>
<stop offset="0.99" stop-color="#111827"/>
</linearGradient>
<linearGradient id="paint99_linear_3834_15491" x1="295.594" y1="194.549" x2="295.793" y2="182.5" gradientUnits="userSpaceOnUse">
<stop stop-color="#9CA3AF"/>
<stop offset="0.99" stop-color="#111827"/>
</linearGradient>
<linearGradient id="paint100_linear_3834_15491" x1="280.094" y1="196.938" x2="297.387" y2="196.938" gradientUnits="userSpaceOnUse">
<stop stop-color="#F7D058"/>
<stop offset="0.99" stop-color="#F9D979"/>
</linearGradient>
<linearGradient id="paint101_linear_3834_15491" x1="287.263" y1="192.325" x2="290.483" y2="203.776" gradientUnits="userSpaceOnUse">
<stop stop-color="#F7D058"/>
<stop offset="0.99" stop-color="#F9D979"/>
</linearGradient>
<linearGradient id="paint102_linear_3834_15491" x1="192.547" y1="232.269" x2="249.493" y2="240.897" gradientUnits="userSpaceOnUse">
<stop stop-color="#9CA3AF"/>
<stop offset="0.99" stop-color="#111827"/>
</linearGradient>
<linearGradient id="paint103_linear_3834_15491" x1="192.999" y1="127.833" x2="261.739" y2="127.833" gradientUnits="userSpaceOnUse">
<stop stop-color="#9CA3AF"/>
<stop offset="0.99" stop-color="#111827"/>
</linearGradient>
<linearGradient id="paint104_linear_3834_15491" x1="224.266" y1="193.719" x2="231.501" y2="193.719" gradientUnits="userSpaceOnUse">
<stop stop-color="#9CA3AF"/>
<stop offset="0.99" stop-color="#111827"/>
</linearGradient>
<linearGradient id="paint105_linear_3834_15491" x1="261.606" y1="119.702" x2="245.575" y2="137.725" gradientUnits="userSpaceOnUse">
<stop stop-color="#F7D058"/>
<stop offset="0.99" stop-color="#F9D979"/>
</linearGradient>
<linearGradient id="paint106_linear_3834_15491" x1="216.3" y1="230.528" x2="225.394" y2="230.528" gradientUnits="userSpaceOnUse">
<stop stop-color="#9CA3AF"/>
<stop offset="0.99" stop-color="#111827"/>
</linearGradient>
<linearGradient id="paint107_linear_3834_15491" x1="216.3" y1="230.362" x2="225.394" y2="230.362" gradientUnits="userSpaceOnUse">
<stop stop-color="#ADA9D0"/>
<stop offset="0.99" stop-color="#2B285A"/>
</linearGradient>
<linearGradient id="paint108_linear_3834_15491" x1="225.66" y1="225.682" x2="225.195" y2="233.947" gradientUnits="userSpaceOnUse">
<stop stop-color="#9CA3AF"/>
<stop offset="0.99" stop-color="#111827"/>
</linearGradient>
<linearGradient id="paint109_linear_3834_15491" x1="268.211" y1="212.87" x2="282.716" y2="212.87" gradientUnits="userSpaceOnUse">
<stop stop-color="#9CA3AF"/>
<stop offset="0.97" stop-color="#4B5563"/>
</linearGradient>
<linearGradient id="paint110_linear_3834_15491" x1="199.291" y1="117.473" x2="208.886" y2="119.53" gradientUnits="userSpaceOnUse">
<stop stop-color="#C6A646"/>
<stop offset="0.99" stop-color="#F7D058"/>
</linearGradient>
<linearGradient id="paint111_linear_3834_15491" x1="193.73" y1="124.647" x2="203.853" y2="124.647" gradientUnits="userSpaceOnUse">
<stop stop-color="#C6A646"/>
<stop offset="0.99" stop-color="#F7D058"/>
</linearGradient>
<linearGradient id="paint112_linear_3834_15491" x1="194.891" y1="118.042" x2="203.123" y2="118.042" gradientUnits="userSpaceOnUse">
<stop stop-color="#C6A646"/>
<stop offset="0.99" stop-color="#F7D058"/>
</linearGradient>
<linearGradient id="paint113_linear_3834_15491" x1="199.007" y1="116.482" x2="205.114" y2="116.482" gradientUnits="userSpaceOnUse">
<stop stop-color="#C6A646"/>
<stop offset="0.99" stop-color="#F7D058"/>
</linearGradient>
<linearGradient id="paint114_linear_3834_15491" x1="240.331" y1="180.575" x2="241.293" y2="123.917" gradientUnits="userSpaceOnUse">
<stop stop-color="#275D7C"/>
<stop offset="0.99" stop-color="#527D96"/>
</linearGradient>
<linearGradient id="paint115_linear_3834_15491" x1="249.557" y1="22.4839" x2="231.966" y2="32.3085" gradientUnits="userSpaceOnUse">
<stop stop-color="#9CA3AF"/>
<stop offset="0.97" stop-color="#111827"/>
</linearGradient>
<linearGradient id="paint116_linear_3834_15491" x1="249.591" y1="24.9066" x2="241.691" y2="29.321" gradientUnits="userSpaceOnUse">
<stop stop-color="#9CA3AF"/>
<stop offset="0.99" stop-color="#111827"/>
</linearGradient>
</defs>
</svg>
