<svg width="34" height="34" viewBox="0 0 34 34" fill="none" xmlns="http://www.w3.org/2000/svg">
<path d="M10.4994 23.5811L9.1515 23.6468L6.53815 31.1551C6.45487 31.3942 6.64865 31.6388 6.90052 31.6124L10.5637 31.2288C10.666 31.2181 10.7678 31.2535 10.8413 31.3254L13.4747 33.9006C13.6557 34.0776 13.9594 34.0062 14.0426 33.7671L16.6731 26.2097L15.8974 25.457L10.4994 23.5811Z" fill="#FF4755"/>
<path d="M16.6724 26.2104L17.204 24.6834L9.6808 22.125L9.15088 23.6475C11.2872 25.1719 13.8738 26.105 16.6724 26.2104Z" fill="#FC2B3A"/>
<path d="M23.9094 23.5811L25.2573 23.6468L27.8707 31.1551C27.954 31.3942 27.7602 31.6388 27.5083 31.6124L23.8452 31.2288C23.7428 31.2181 23.6411 31.2535 23.5676 31.3254L20.9342 33.9006C20.7532 34.0776 20.4495 34.0062 20.3663 33.7671L17.7358 26.2097L18.5115 25.457L23.9094 23.5811Z" fill="#FF4755"/>
<path d="M17.7361 26.2104L17.2046 24.6834L24.7278 22.125L25.2577 23.6475C23.1214 25.1719 20.5347 26.105 17.7361 26.2104Z" fill="#FC2B3A"/>
<path d="M17.2039 23.914C4.86212 23.914 4.8673 11.9257 4.87753 11.7196C5.20153 5.19257 10.5963 0 17.2039 0C23.8114 0 29.2062 5.19257 29.5302 11.7197C29.5404 11.9258 29.5456 23.914 17.2039 23.914Z" fill="#FFE27A"/>
<path d="M17.204 23.4394C10.5965 23.4394 5.20191 18.2469 4.87784 11.7197C4.86762 11.9258 4.8623 12.1332 4.8623 12.3418C4.8623 19.1579 10.3879 24.6835 17.204 24.6835C24.0202 24.6835 29.5458 19.1579 29.5458 12.3418C29.5458 12.1331 29.5405 11.9258 29.5302 11.7197C29.2062 18.2469 23.8116 23.4394 17.204 23.4394Z" fill="#F9CF58"/>
<path d="M17.2039 21.2578C7.50086 21.2578 7.48784 11.7165 7.50086 11.5107C7.82167 6.43092 12.0432 2.41016 17.2039 2.41016C22.3646 2.41016 26.5862 6.43092 26.907 11.5107C26.92 11.7164 26.907 21.2578 17.2039 21.2578Z" fill="#FFBA57"/>
<path d="M17.2041 20.8204C12.0435 20.8204 7.82264 16.7995 7.50183 11.7197C7.48882 11.9255 7.48145 12.1328 7.48145 12.3418C7.48145 17.7114 11.8344 22.0644 17.2041 22.0644C22.5738 22.0644 26.9268 17.7114 26.9268 12.3418C26.9268 12.1327 26.9194 11.9255 26.9064 11.7197C26.5856 16.7995 22.3647 20.8204 17.2041 20.8204Z" fill="#FFAC3E"/>
<path d="M17.7589 18.1168C17.0839 18.1168 16.5367 17.5697 16.5367 16.8946V16.2481V10.0447C16.5367 10.0447 15.8053 10.7782 14.9303 10.3381C14.248 9.99496 14.248 9.11182 14.248 9.11182L15.755 6.56807C15.9751 6.19659 16.3748 5.96875 16.8066 5.96875H17.7589C18.434 5.96875 18.9812 6.51594 18.9812 7.19102V16.2481V16.8946C18.9812 17.5697 18.434 18.1168 17.7589 18.1168Z" fill="#FFE27A"/>
<path d="M16.3681 9.08449C16.0437 9.63215 15.3539 9.86961 14.7786 9.59702C14.5458 9.48672 14.3663 9.31532 14.247 9.11292C13.9076 9.68706 14.0913 10.4257 14.6565 10.7747C15.2392 11.1346 16.018 10.9197 16.367 10.3303L16.5361 10.0449V9.13038C16.5361 9.03861 16.4149 9.00547 16.3681 9.08449Z" fill="#F9CF58"/>
<path d="M17.7584 17.4703C17.0834 17.4703 16.5361 16.9231 16.5361 16.248V17.4922C16.5361 18.1673 17.0834 18.7144 17.7584 18.7144C18.4334 18.7144 18.9807 18.1673 18.9807 17.4922V16.248C18.9807 16.9231 18.4334 17.4703 17.7584 17.4703Z" fill="#F9CF58"/>
</svg>
