<svg width="34" height="34" viewBox="0 0 34 34" fill="none" xmlns="http://www.w3.org/2000/svg">
<path d="M15.6393 25.3546L10.5429 23.6558L9.04889 23.6475L6.43561 31.1557C6.35233 31.3948 6.54611 31.6394 6.79799 31.6129L10.4612 31.2294C10.5635 31.2187 10.6652 31.2541 10.7388 31.326L13.3721 33.9012C13.5532 34.0782 13.8569 34.0068 13.9401 33.7677L16.5705 26.2103L15.6393 25.3546Z" fill="#0083FD"/>
<path d="M16.5699 26.2104L17.1014 24.6834L9.57826 22.125L9.04834 23.6475C11.1846 25.1719 13.7713 26.105 16.5699 26.2104Z" fill="#0072FC"/>
<path d="M18.5644 25.3546L23.6608 23.6558L25.1548 23.6475L27.7682 31.1558C27.8514 31.3949 27.6577 31.6395 27.4058 31.613L23.7426 31.2295C23.6403 31.2188 23.5385 31.2542 23.465 31.3261L20.8317 33.9013C20.6507 34.0783 20.3469 34.0069 20.2637 33.7678L17.6333 26.2104L18.5644 25.3546Z" fill="#0083FD"/>
<path d="M17.6336 26.2104L17.1021 24.6834L24.6252 22.125L25.1551 23.6475C23.0188 25.1719 20.4322 26.105 17.6336 26.2104Z" fill="#0072FC"/>
<path d="M17.1013 23.6476C4.77496 23.6476 4.76473 11.9258 4.77496 11.7197C5.09895 5.19257 10.4937 0 17.1013 0C23.7088 0 29.1036 5.19257 29.4276 11.7197C29.4378 11.9258 29.4276 23.6476 17.1013 23.6476Z" fill="#FF9838"/>
<path d="M17.1015 23.4394C10.4939 23.4394 5.09937 18.2468 4.7753 11.7197C4.76508 11.9258 4.75977 12.1332 4.75977 12.3418C4.75977 19.1579 10.2854 24.6835 17.1015 24.6835C23.9176 24.6835 29.4432 19.1579 29.4432 12.3418C29.4432 12.1332 29.4379 11.9258 29.4277 11.7197C29.1036 18.2468 23.7091 23.4394 17.1015 23.4394Z" fill="#FF8709"/>
<path d="M26.8242 12.3418C26.8242 16.5051 22.4713 21.4668 17.1016 21.4668C11.7319 21.4668 7.37891 16.2321 7.37891 12.3418C7.37891 12.1328 7.38548 11.9254 7.3985 11.7197C7.71924 6.6399 11.9409 2.61914 17.1016 2.61914C22.2623 2.61914 26.4839 6.6399 26.8047 11.7197C26.8177 11.9254 26.8242 12.1328 26.8242 12.3418Z" fill="#CE7430"/>
<path d="M17.1016 20.8203C11.9409 20.8203 7.7201 16.7994 7.39929 11.7197C7.38628 11.9255 7.37891 12.1327 7.37891 12.3418C7.37891 17.7114 11.7319 22.0644 17.1016 22.0644C22.4712 22.0644 26.8242 17.7114 26.8242 12.3418C26.8242 12.1327 26.8169 11.9255 26.8039 11.7197C26.483 16.7994 22.2622 20.8203 17.1016 20.8203Z" fill="#BC672E"/>
<path d="M17.1144 18.1177C15.0204 18.1177 13.688 16.6742 13.4316 14.9616C13.4083 14.8058 13.4009 14.4715 13.4009 14.4715C13.5792 14.0172 14.0216 13.6955 14.5391 13.6955C15.2141 13.6955 15.7614 14.2427 15.7614 14.9178C15.7614 15.6638 16.3683 16.2708 17.1144 16.2708C17.8605 16.2708 18.4675 15.6638 18.4675 14.9178C18.4675 14.6934 18.4126 14.4817 18.3156 14.2953C18.3156 14.2953 18.2239 13.1427 17.1799 13.1427C16.1327 13.1427 16.0625 11.7198 16.0625 11.7198C16.2755 11.3609 16.6669 11.1203 17.1145 11.1203C17.8605 11.1203 18.4676 10.5133 18.4676 9.76723C18.4676 9.02116 17.8605 8.41421 17.1145 8.41421C16.3684 8.41421 15.7614 9.02116 15.7614 9.76723C15.7614 10.4423 15.2142 10.9895 14.5392 10.9895C13.8641 10.9895 13.3169 10.4423 13.3169 9.76723C13.3169 7.67331 15.0205 5.96973 17.1144 5.96973C19.2084 5.96973 20.912 7.67331 20.912 9.76723C20.912 10.7601 20.5291 11.6651 19.903 12.3425C20.3956 12.8755 20.7377 13.5494 20.8612 14.2961C20.8612 14.2961 20.865 14.706 20.8294 14.9147C20.5264 16.6959 19.2084 18.1177 17.1144 18.1177Z" fill="#FFAA5C"/>
<path d="M17.1128 12.3199C16.6653 12.3199 16.275 12.0786 16.0621 11.7197C15.9538 11.9021 15.8906 12.1143 15.8906 12.3418C15.8906 13.0168 16.4378 13.564 17.1129 13.564C17.6347 13.564 18.0875 13.8614 18.3132 14.2951C18.4102 14.1086 18.466 13.8974 18.466 13.6731C18.4659 12.9269 17.8589 12.3199 17.1128 12.3199Z" fill="#EA9957"/>
<path d="M17.113 17.4708C15.2929 17.4708 13.7683 16.1834 13.4006 14.4715C13.3463 14.6098 13.3154 14.7599 13.3154 14.9175C13.3154 17.0114 15.019 18.715 17.113 18.715C19.207 18.715 20.9106 17.0114 20.9106 14.9175C20.9106 14.7057 20.8922 14.4983 20.8587 14.2959C20.5607 16.0946 18.995 17.4708 17.113 17.4708Z" fill="#EA9957"/>
</svg>
