<svg width="34" height="34" viewBox="0 0 34 34" fill="none" xmlns="http://www.w3.org/2000/svg">
<path d="M15.7386 25.4198L10.2581 23.5244L9.04889 23.6476L6.43561 31.1559C6.35233 31.395 6.54611 31.6396 6.79799 31.6132L10.4612 31.2296C10.5635 31.2189 10.6652 31.2543 10.7388 31.3262L13.3721 33.9014C13.5532 34.0784 13.8569 34.007 13.9401 33.7679L16.5705 26.2105L15.7386 25.4198Z" fill="#98DB7C"/>
<path d="M16.5699 26.2104L17.1014 24.6834L9.57826 22.125L9.04834 23.6475C11.1846 25.1719 13.7713 26.105 16.5699 26.2104Z" fill="#82D361"/>
<path d="M18.4651 25.4198L23.9456 23.5244L25.1548 23.6476L27.7682 31.1559C27.8514 31.395 27.6577 31.6396 27.4058 31.6132L23.7426 31.2296C23.6403 31.2189 23.5385 31.2543 23.465 31.3262L20.8317 33.9014C20.6507 34.0784 20.3469 34.007 20.2637 33.7679L17.6333 26.2105L18.4651 25.4198Z" fill="#98DB7C"/>
<path d="M17.6336 26.2104L17.1021 24.6834L24.6252 22.125L25.1551 23.6475C23.0188 25.1719 20.4322 26.105 17.6336 26.2104Z" fill="#82D361"/>
<path d="M17.1013 23.8689C4.77496 23.8689 4.76473 11.9258 4.77496 11.7197C5.09895 5.19257 10.4937 0 17.1013 0C23.7045 0 29.0964 5.18566 29.4269 11.7066C29.4376 11.917 29.4269 23.8689 17.1013 23.8689Z" fill="#E0E0E0"/>
<path d="M17.1015 23.4394C10.4939 23.4394 5.09937 18.2469 4.7753 11.7197C4.76508 11.9258 4.75977 12.1332 4.75977 12.3418C4.75977 19.1579 10.2854 24.6835 17.1015 24.6835C23.9176 24.6835 29.4432 19.1579 29.4432 12.3418C29.4432 12.1331 29.4379 11.9258 29.4277 11.7197C29.1036 18.2469 23.7091 23.4394 17.1015 23.4394Z" fill="#CECECE"/>
<path d="M17.1015 21.2919C7.3788 21.2919 7.38537 11.9254 7.39839 11.7197C7.7192 6.6399 11.9408 2.61914 17.1015 2.61914C22.2622 2.61914 26.4837 6.6399 26.8045 11.7197C26.8176 11.9254 26.8045 21.2919 17.1015 21.2919Z" fill="#9E9E9E"/>
<path d="M17.1016 20.8203C11.9409 20.8203 7.7201 16.7994 7.39929 11.7197C7.38628 11.9255 7.37891 12.1328 7.37891 12.3418C7.37891 17.7114 11.7319 22.0644 17.1016 22.0644C22.4712 22.0644 26.8242 17.7114 26.8242 12.3418C26.8242 12.1327 26.8169 11.9255 26.8039 11.7197C26.483 16.7994 22.2622 20.8203 17.1016 20.8203Z" fill="#898989"/>
<path d="M19.9005 18.1168H14.3276C13.6526 18.1168 13.1313 16.9418 13.1821 16.6732C13.3231 15.9275 13.6549 15.2248 14.1504 14.6391L18.0716 10.0048C18.4385 9.57116 18.2748 9.10392 18.2159 8.97098C18.1442 8.80941 17.9214 8.43162 17.4024 8.41409C17.3874 8.41356 17.3718 8.4133 17.3562 8.4133C16.6271 8.4133 16.034 9.00644 16.034 9.73551C16.034 10.4105 15.4868 10.9578 14.8117 10.9578C14.1367 10.9578 13.5895 10.4106 13.5895 9.73551C13.5895 7.65859 15.2792 5.96875 17.3562 5.96875C17.3991 5.96875 17.4419 5.96948 17.4845 5.97094C18.784 6.01477 19.9204 6.78468 20.4505 7.98006C20.9885 9.1933 20.792 10.5742 19.9377 11.5838L16.0165 16.2182C16.0021 16.2352 15.988 16.2525 15.9742 16.27H19.9006C20.3482 16.27 20.7396 16.5106 20.9525 16.8695C21.0606 17.0519 20.5755 18.1168 19.9005 18.1168Z" fill="#E0E0E0"/>
<path d="M19.8997 17.4699H14.3268C13.8015 17.4699 13.3549 17.1379 13.1821 16.6729C13.1313 16.9415 13.1045 17.2155 13.1045 17.4917C13.1045 18.1668 13.6517 18.714 14.3268 18.714H19.8997C20.5747 18.714 21.122 18.1668 21.122 17.4917C21.122 17.2643 21.0587 17.052 20.9505 16.8697C20.7376 17.2285 20.3473 17.4699 19.8997 17.4699Z" fill="#CECECE"/>
</svg>
